<svg xmlns="http://www.w3.org/2000/svg" width="284.731" height="135.354" viewBox="0 0 284.731 135.354"><path fill="#007360" d="M32.188 129.274h-2.683l-4.41-15.377h2.784l2.93 12.075 3.03-12.075h2.89l2.98 12 3.17-12h2.58L41 129.274h-2.67l-3.082-11.842-3.062 11.842zm21.226 0h-2.69l-4.43-15.377h2.814l2.915 12.075 3.036-12.075h2.9l2.98 12 3.17-12h2.57l-4.45 15.377h-2.66l-3.1-11.842-3.07 11.842zm21.21 0h-2.68l-4.41-15.377h2.782l2.943 12.075 3.03-12.075h2.87l2.98 12 3.17-12h2.57l-4.44 15.377h-2.67l-3.08-11.842-3.07 11.842zm19.273-3.11v3.11h-3.063v-3.11h3.063zm6.737-7.586h-2.38c0-3.402 2.09-5.126 6.322-5.126 1.216 0 2.328.233 3.28.682 1.615.738 2.43 1.954 2.43 3.653v8.812c0 .64.263.96.832.96l.85-.18v1.89l-.758.2c-.213.06-.428.09-.644.09-.897 0-1.543-.19-1.962-.54-.422-.34-.664-.94-.76-1.82-1.565 1.67-3.428 2.5-5.556 2.5-1.413 0-2.534-.4-3.42-1.16-.917-.81-1.384-1.91-1.384-3.28 0-3.31 1.963-4.95 5.878-4.95 1.56 0 2.512-.07 2.868-.19.98-.27 1.467-.95 1.467-2.06 0-1.65-1.198-2.49-3.58-2.49-2.09 0-3.26 1-3.483 2.97zm7.064 5.367v-2.508c-.413.32-1.7.634-3.907.92-1.18.17-2.02.346-2.47.594-.77.4-1.18 1.05-1.18 1.91 0 1.8.95 2.7 2.82 2.7 1.17 0 2.22-.3 3.14-.9 1.06-.68 1.61-1.59 1.61-2.71zm6.942 11.41v-21.457h2.4v2.18c1.195-1.73 2.74-2.625 4.672-2.625 2.083 0 3.71.794 4.84 2.352 1.01 1.388 1.504 3.167 1.504 5.34 0 2.24-.44 4.13-1.363 5.638-1.16 1.947-2.944 2.93-5.317 2.93-1.906 0-3.27-.743-4.157-2.23v7.873h-2.58zm6.792-19.55c-2.792 0-4.214 1.902-4.214 5.754 0 1.58.28 2.9.85 3.92.71 1.34 1.814 2 3.28 2 1.355 0 2.4-.56 3.14-1.64.627-.93.942-2.12.942-3.57 0-1.85-.204-3.25-.587-4.19-.617-1.53-1.747-2.29-3.41-2.29zm10.203-6.15h2.588v4.28h2.467v2.143h-2.467v9.965c0 .817.522 1.225 1.562 1.225h.905v2.007c-.858.156-1.514.225-1.915.225-2.104 0-3.14-1.098-3.14-3.302v-10.12h-2.057v-2.144h2.057v-4.28zm17.845 14.79h2.587c-.867 3.504-3.166 5.266-6.902 5.266-2.177 0-3.897-.75-5.122-2.26-1.147-1.4-1.71-3.21-1.71-5.42 0-2.55.563-4.56 1.71-6.06 1.28-1.66 3.16-2.51 5.636-2.51 2.34 0 4.1.98 5.24 2.89.9 1.56 1.35 3.59 1.35 6.12h-11.18c0 3.34 1.48 5.03 4.43 5.03.89 0 1.74-.28 2.56-.82.93-.61 1.39-1.34 1.39-2.21zm-8.39-4.064h8.53c0-1.42-.354-2.56-1.095-3.37-.737-.8-1.82-1.2-3.223-1.2-1.177 0-2.186.45-2.997 1.39-.814.92-1.215 1.99-1.215 3.19zm16.724-12.2v12.24l6.577-6.52h3.33l-5.89 5.73 6.22 9.65h-3.31l-4.79-7.78-2.11 1.98v5.81h-2.59v-21.1h2.6zm14.47 10.4h-2.37c0-3.4 2.12-5.12 6.343-5.12 1.216 0 2.325.24 3.29.68 1.605.74 2.4 1.96 2.4 3.66v8.81c0 .64.288.96.85.96l.83-.17v1.89l-.745.2c-.216.07-.422.09-.646.09-.876 0-1.54-.18-1.95-.54-.422-.33-.673-.93-.776-1.82-1.57 1.68-3.43 2.51-5.56 2.51-1.384 0-2.514-.39-3.402-1.16-.914-.8-1.38-1.91-1.38-3.27 0-3.3 1.962-4.94 5.865-4.94 1.553 0 2.506-.07 2.877-.18.975-.26 1.47-.94 1.47-2.05 0-1.65-1.198-2.49-3.588-2.49-2.084 0-3.262 1-3.507 2.98zm7.095 5.37v-2.51c-.42.32-1.73.64-3.91.92-1.19.17-2.04.35-2.48.6-.8.4-1.19 1.05-1.19 1.91 0 1.8.93 2.7 2.81 2.7 1.17 0 2.21-.3 3.16-.9 1.04-.68 1.6-1.59 1.6-2.71zm10.65 2.22v3.11h-3.09v-3.11h3.08zm16.76 3.11h-2.44v-2.24c-1.18 1.78-2.82 2.68-4.92 2.68-1.52 0-2.74-.41-3.65-1.23-.9-.82-1.34-2.01-1.34-3.53V113.9h2.57v10.21c0 2.24.98 3.373 2.93 3.373 1.41 0 2.49-.535 3.26-1.567.66-.915.99-2.096.99-3.554v-8.46h2.59v15.375zm6.07-10.69h-2.39c0-3.4 2.12-5.12 6.34-5.12 1.2 0 2.3.24 3.28.68 1.6.74 2.42 1.96 2.42 3.66v8.81c0 .64.26.96.82.96l.85-.17v1.9l-.75.2c-.24.06-.42.09-.65.09-.9 0-1.55-.19-1.96-.54-.42-.33-.67-.94-.77-1.82-1.57 1.68-3.43 2.51-5.56 2.51-1.39 0-2.53-.39-3.4-1.16-.94-.8-1.4-1.91-1.4-3.27 0-3.3 1.96-4.95 5.86-4.95 1.56 0 2.52-.06 2.88-.18.99-.26 1.47-.94 1.47-2.05 0-1.65-1.2-2.49-3.58-2.49-2.1 0-3.26 1-3.49 2.98zm7.07 5.37v-2.51c-.43.32-1.72.64-3.89.92-1.22.17-2.04.35-2.49.6-.8.4-1.2 1.05-1.2 1.91 0 1.8.92 2.7 2.82 2.7 1.17 0 2.22-.3 3.13-.9 1.07-.68 1.61-1.59 1.61-2.71z"/><path fill="#007360" fill-rule="evenodd" d="M78.295 100.498V37.704h35.895v62.794h-13.91V49.84h-8.064v50.66m25.93-50.66V37.705h31.997V49.84h-8.997v50.66H127.16V49.84m26.937 50.658V37.704h30.97V49.84h-17.07v12.502h14.958v12.053h-14.957V88.35h17.76v12.148M192 37.704h13.922v23.33h2.66c1.928 0 3.3-1.183 4.16-3.523.477-1.52.748-4.13.748-7.83v-3.07c0-4.68.505-7.69 1.502-8.99h13.426c-.876 1.14-1.372 3.78-1.457 7.89v3.66c0 4.15-.41 7.46-1.27 9.87-1.24 3.25-3.62 5.51-7.16 6.72v.1c6.51 1.14 9.78 5.79 9.78 13.89 0 .9-.17 3.22-.43 6.97-.27 3.88-.42 6.15-.42 6.74 0 3.24.59 5.59 1.78 7.08h-13.81c-1.05-1.49-1.62-5.27-1.69-11.34v1.19-.71c0-1.51.05-5.29.07-11.31 0-2.69-.71-4.34-2.15-4.92-.51-.15-2.41-.24-5.72-.24v27.32H192v-62.8zm59.89 9.806l-3.55 30.67h6.996l-3.297-30.67h-.15zm-20.414 52.988l11.248-62.794h18.5l11.397 62.794h-14.68l-1.23-11.173h-9.79l-1.43 11.173h-14.01zM95.056 27.67V1.33h12.49v5.094h-6.883v5.24h6.044v5.06h-6.044v5.844h7.174v5.102m9.737 0V18.4h-.86c-1.066 0-1.606 1.21-1.606 3.67 0 .498.027.872.045 1.114v1.188c0 1.62-.187 2.705-.588 3.298h-5.25c.467-.552.662-1.55.662-3.013 0-.715-.01-1.266-.027-1.617l-.073-1.672v.028c0-1.56.194-2.743.578-3.472.552-1.06 1.467-1.728 2.765-2.004v-.1c-1.14-.275-1.97-.905-2.42-1.927-.262-.65-.4-1.673-.4-3.08V9.798c0-1.585-.225-2.667-.646-3.19h4.99c.4.588.57 1.532.57 2.82v1.513c0 .95.12 1.71.364 2.27.308.6.944.91 1.897.94V6.61h5.212v7.53h.682c.69 0 1.15-.523 1.35-1.566.03-.148.1-1.208.21-3.217.08-1.35.25-2.247.57-2.747h5c-.44.56-.67 1.63-.67 3.32v.776c0 1.406-.12 2.467-.4 3.157-.4.98-1.19 1.636-2.42 1.962v.1c1.32.25 2.25.905 2.75 2.003.35.73.55 1.897.55 3.472 0 .76 0 1.302-.04 1.61-.02.336-.03.882-.03 1.603 0 1.45.2 2.468.64 3.06h-5.24c-.42-.653-.65-1.61-.65-2.793 0-.406.03-.98.1-1.765.02-1.164.05-1.743.07-1.743v.027c0-2.01-.85-3-2.53-3v9.27h-5.21zm20.206-15.898v2.312h2.356v-2.312c0-1.158-.393-1.72-1.178-1.72-.802 0-1.177.562-1.177 1.72m-5.25 10.348v-9.95c0-2.018.62-3.55 1.86-4.597 1.11-.93 2.65-1.397 4.6-1.397 1.93 0 3.45.47 4.57 1.397 1.26 1.014 1.87 2.556 1.87 4.59v5.785h-7.63v4.554c0 1.14.38 1.7 1.18 1.7.86 0 1.29-.76 1.29-2.293 0-.55-.01-.92-.03-1.12 0-.3-.01-.48-.04-.59-.03-.12-.03-.25-.03-.33h5.28v2.24c0 1.98-.6 3.54-1.86 4.59-1.09.93-2.63 1.39-4.57 1.39-.99 0-1.86-.11-2.61-.33-.76-.23-1.41-.6-1.99-1.06-1.23-1.07-1.84-2.62-1.86-4.6m22.92-8.04V6.6h5.28v21.07h-5.27v-9.115h-2.38v9.115h-5.25V6.605h5.25v7.48m15.31-2.313v2.312h2.37v-2.312c0-1.158-.39-1.72-1.18-1.72-.79 0-1.18.562-1.18 1.72m-5.27 10.347v-9.95c0-2.02.63-3.55 1.87-4.6 1.12-.93 2.66-1.4 4.59-1.4 1.93 0 3.47.47 4.58 1.39 1.26 1.01 1.88 2.55 1.88 4.59v5.78h-7.65v4.56c0 1.14.39 1.7 1.19 1.7.86 0 1.3-.76 1.3-2.3 0-.55-.03-.92-.05-1.12 0-.3 0-.48-.02-.59-.047-.12-.047-.25-.047-.33h5.28v2.25c0 1.98-.62 3.54-1.88 4.59-1.087.93-2.64 1.39-4.58 1.39-.97 0-1.84-.11-2.58-.33-.76-.23-1.43-.59-2.01-1.06-1.217-1.07-1.83-2.61-1.87-4.6m21.41-11.04c0 5.91-.347 9.95-1.03 12.12h3.05v-12.1h-2.03zm-5.936 12.12c.33-1.08.56-3.04.72-5.76.17-2.73.26-6.35.27-10.84h12.26v16.6H193v8.26h-4.54v-3.79h-6.53v3.79h-4.56V23.2h1.212zm21.22-11.43v2.31h2.38v-2.31c0-1.16-.4-1.72-1.18-1.72-.79 0-1.192.56-1.192 1.72m-5.24 10.34v-9.95c0-2.01.61-3.54 1.82-4.59 1.15-.93 2.69-1.39 4.63-1.39s3.444.47 4.56 1.4c1.27 1.01 1.875 2.55 1.875 4.59v5.78h-7.65v4.55c0 1.14.4 1.7 1.2 1.7.87 0 1.29-.76 1.29-2.3 0-.55-.01-.92-.03-1.12 0-.3-.01-.48-.04-.59-.04-.12-.04-.25-.04-.33h5.26v2.25c0 1.98-.61 3.55-1.88 4.59-1.09.93-2.62 1.39-4.56 1.39-.987 0-1.837-.11-2.58-.33-.78-.23-1.44-.6-2.05-1.07-1.19-1.07-1.81-2.61-1.82-4.598m16.71-15.5h12.23v21.07h-5.26V11.08h-2.09c-.03 3.66-.066 6.204-.105 7.616-.18 3.7-.524 6.073-1.056 7.086-.67 1.387-2 2.097-3.95 2.12-.98 0-1.77-.22-2.3-.663v-3.66c.36.16.72.26 1.06.26 1.03 0 1.504-3.83 1.504-11.51 0-1.75 0-2.93-.02-3.54 0-1.08-.01-1.83-.03-2.2m19.92 11.32v5.9h1.316c.705 0 1.05-.45 1.05-1.4V19.2c0-.86-.345-1.28-1.05-1.28h-1.32zm-5.28 9.74V6.6h5.28v7.48c2.317 0 4.02.25 5.11.797 1.67.81 2.52 2.32 2.52 4.54v2.37c0 1.66-.49 3.07-1.45 4.2-1 1.11-2.25 1.68-3.82 1.68h-7.642zm22.39-13.58V6.6h5.26v21.07h-5.27v-9.115h-2.38v9.115h-5.252V6.605h5.252v7.48m15.41 2.33l2.25-9.81h5.29V27.67h-5.29v-9.787h-.09l-2.27 9.787h-5.25V6.605h5.26v9.81m19.59-.593v.1c1.29.25 2.2.905 2.74 2.003.39.813.59 1.98.59 3.472 0 .76 0 1.303-.04 1.61 0 .65 0 1.202-.02 1.562 0 1.49.23 2.5.65 3.1h-5.25c-.436-.63-.64-1.56-.64-2.8 0-.51.02-1.09.05-1.77.05-.91.07-1.48.07-1.66 0-2.02-.81-3.03-2.47-3.06v9.27h-5.235V6.6h5.23v7.53h.67c.72 0 1.18-.52 1.36-1.56.08-.27.15-1.33.22-3.22.06-1.36.25-2.27.57-2.74h5c-.434.53-.66 1.63-.66 3.32v.78c0 1.41-.11 2.47-.38 3.16-.41.98-1.23 1.64-2.445 1.96M36.29 64.84h12.658L59.31 15.57 36.29 64.84zM0 100.5L49.91 0h28.842L63.197 100.498H41.81l2.907-17.836H28.814l-9.39 17.836H0z" clip-rule="evenodd"/></svg>