<svg xmlns="http://www.w3.org/2000/svg" width="239.399" height="82.969" viewBox="0 0 239.399 82.969"><g fill="#D6DBDD" fill-rule="evenodd" clip-rule="evenodd"><path d="M109.296 65.26c-3.816.79-5.328.72-8.208.575-2.88-.144-5.76-.648-8.424-1.44s-5.04-1.872-6.984-3.24c-1.872-1.224-3.24-2.736-3.888-4.32-1.368-3.023 0-5.832 2.952-7.848 2.736-1.8 6.768-2.952 11.448-3.096 4.32-.21 8.64.44 12.24 1.66 3.6 1.23 6.768 3.03 8.712 5.19 2.016 2.38 2.375 4.83 1.368 6.99-1.224 2.45-5.328 4.68-9.216 5.55z"/><path d="M97.848 45.963c10.656.864 18.792 6.264 18.144 12.096s-9.864 9.93-20.592 9.07c-10.656-.79-18.792-6.27-18.144-12.1.648-5.83 9.864-9.87 20.592-9.07z"/><path d="M87.048 55.107c4.176-.432 8.064-.792 11.736-1.152 3.456-.288 6.696-.648 9.792-.864.864 1.01 1.728 2.09 2.664 3.17-3.168.36-6.48.79-10.08 1.23-3.672.43-7.704.94-11.952 1.51-.72-1.37-1.44-2.66-2.16-3.89z"/><path d="M100.944 62.595c-1.512-2.304-2.88-4.464-4.248-6.552-1.296-2.016-2.52-3.888-3.744-5.688 2.16-.144 4.248-.288 6.192-.36 1.224 1.728 2.592 3.456 3.96 5.328 1.44 1.944 2.88 4.032 4.464 6.192-2.16.36-4.32.72-6.624 1.08z"/><path d="M87.12 54.315c4.176-.36 8.064-.792 11.736-1.08 3.456-.36 6.768-.648 9.792-.936.864 1.08 1.728 2.08 2.664 3.16-3.168.43-6.48.79-10.008 1.22-3.744.5-7.776 1.01-12.024 1.51l-2.16-3.89z"/><path d="M101.016 61.803c-1.512-2.304-2.88-4.464-4.248-6.552-1.296-1.94-2.52-3.81-3.744-5.68 2.16-.07 4.248-.21 6.192-.36 1.296 1.73 2.592 3.53 3.96 5.4 1.44 1.95 2.88 3.96 4.464 6.12-2.16.36-4.32.72-6.624 1.08zm9.72 3.24c.72-.216 1.44-.432 2.16-.576.648-.216 1.296-.144 1.584.144.648.65 1.44 1.37 2.16 2.16.864.8 1.728 1.66 2.592 2.67 1.08 1.08 2.304 2.31 3.672 3.6.72.72 1.512 1.44 2.304 2.23l2.448 2.45c.863.87.863 2.02 0 2.52-1.152.65-2.376 1.37-3.6 2.02-1.01.65-2.593.22-3.313-.86-.72-1.01-1.44-2.01-2.088-2.95-.576-.93-1.224-1.8-1.8-2.66-1.152-1.58-2.16-3.02-3.024-4.32-.79-1.08-1.51-2.08-2.16-3.02-.64-.86-1.22-1.72-1.72-2.44-.21-.36.15-.72.8-.94z"/><path d="M125.928 81.89c-.72.505-1.512.865-2.16 1.01-.72.143-1.295.07-1.655-.29-.288-.36-.288-.935.07-1.583.36-.648 1.08-1.368 1.945-2.016.937-.57 1.8-.93 2.52-.93.72-.07 1.225.15 1.368.58.145.44 0 1.01-.36 1.59s-.936 1.15-1.728 1.66z"/></g><path fill="#485E88" d="M137.592 19.25h2.88c1.585 0 2.952.433 4.105 1.37 1.08.935 1.656 2.087 1.656 3.527v12.168c0 1.368-.576 2.52-1.656 3.457-1.08.936-2.448 1.44-4.104 1.44h-2.88v-2.45c.72 0 1.367-.215 2.015-.72.576-.503.865-1.08.865-1.727V24.147c0-.648-.29-1.224-.865-1.8-.575-.432-1.223-.648-2.016-.72V19.25zm-7.056 1.37c1.296-.937 2.664-1.37 4.104-1.37h2.95v2.377h-.07c-.72 0-1.368.216-2.017.72-.576.432-.863 1.08-.863 1.8v12.168c0 .648.287 1.224.863 1.728.648.504 1.296.72 2.016.72h.07v2.448h-2.95c-1.52 0-2.88-.5-4.04-1.51-1.23-.93-1.8-2.09-1.8-3.38V24.15c0-1.296.58-2.448 1.73-3.528zm30.384 20.59h-2.88v-2.447c.647 0 1.368-.216 2.017-.72.575-.504.863-1.08.863-1.728v-2.448c0-1.584-.937-2.448-2.88-2.448v-2.45c.792 0 1.44-.22 2.017-.72.575-.51.863-1.08.863-1.73v-2.38c0-.65-.288-1.23-.863-1.8-.576-.44-1.225-.65-2.017-.72v-2.37h2.88c1.584 0 2.952.43 4.104 1.37 1.08.93 1.656 2.08 1.656 3.52v1.16c0 1.44-.432 2.59-1.295 3.31-.865.79-2.377 1.29-4.465 1.58 1.872 0 3.313.5 4.392 1.44.937 1.01 1.368 2.16 1.368 3.45v1.23c0 1.37-.576 2.52-1.728 3.46-1.152.94-2.52 1.44-4.032 1.44zm-2.88 0h-8.784V19.25h8.784v2.377h-2.952v7.344h2.952v2.45h-2.952v7.35h2.952v2.45zm17.496-19.583h-5.832V19.25h5.832v2.377zm0 19.584h-5.832V24.15h5.832v17.06zm29.304 0h-5.903V19.25h5.903v8.93l9.36-8.93h5.185L207.72 30.196l11.665 11.016h-5.832l-8.713-8.567m25.848-13.395h2.953c1.59 0 2.96.433 4.04 1.37 1.15.935 1.73 2.087 1.73 3.527V41.21h-5.76v-9.79h-2.95v-2.45h2.95v-4.823c0-.648-.28-1.224-.86-1.8-.57-.432-1.29-.648-2.08-.72V19.25zm-2.88 21.96h-5.903V24.148c0-1.296.576-2.448 1.8-3.528 1.224-.937 2.592-1.37 4.104-1.37h2.87v2.377c-.72 0-1.44.216-2.09.72-.51.432-.79 1.08-.79 1.8v4.824h2.87v2.45h-2.88v9.79zm-31.325.36V30.7c0-1.873-.07-3.385-.287-4.61-.288-1.223-.648-2.23-1.152-3.023-.792-1.296-1.872-2.304-3.312-3.024-1.368-.72-2.952-1.08-4.68-1.08v4.464c2.088 0 3.6.648 4.535 1.872.936 1.22 1.368 3.38 1.368 6.33v5.61h-5.903v3.09c3.816 0 7.2.86 9.43 1.22zm-9.43-22.607c-2.953 0-5.257.937-6.84 2.736-1.656 1.87-2.45 4.46-2.45 7.92v11.95c2.81-.36 3.745-.72 6.553-1.08.937-.07 1.872-.15 2.737-.15v-3.09h-5.904v-7.71c0-2.02.5-3.53 1.43-4.54 1.01-1.08 2.45-1.58 4.32-1.58h.14v-4.46zm-57.74 31.752h1.223l1.152 4.32 1.295-4.32h1.08v5.472h-.718v-4.392l-1.368 4.392h-.65l-1.223-4.608v4.6h-.792m10.295-1.8l.792.14c-.15.57-.44 1.01-.72 1.29-.36.29-.8.43-1.3.43h-.08v-.72h.07c.57 0 1.01-.36 1.22-1.16zm-1.295-3.82h.073c.575 0 1.008.29 1.44.72.358.5.574 1.22.574 2.16v.21h-2.09v-.79h1.29c-.07-.43-.15-.79-.29-1.01-.29-.36-.58-.51-.94-.51h-.08v-.79zm0 5.69c-.575 0-1.08-.22-1.44-.72-.43-.44-.575-1.16-.575-2.09s.145-1.66.576-2.09c.36-.51.864-.79 1.44-.79v.79c-.29 0-.576.14-.793.43-.287.29-.36.65-.432 1.08h1.224v.79h-1.224c0 .64.145 1.08.36 1.36.288.29.575.5.863.5v.72zm6.12-5.55h1.944v4.68h.433v2.31h-.58v-1.51h-1.8v-.79h1.15V51.5h-1.15v-.792zm-1.152 0h1.152v.79h-.577c0 1.72-.287 3.02-.647 3.88h1.225v.79h-1.73v1.52h-.646v-2.3h.432c.5-.87.79-2.45.79-4.68zm5.69 0h.79v4.17l2.09-4.18h.79v5.47h-.72V52l-2.088 4.176h-.863m6.19-5.47h.72v4.68h2.09v-4.68h.79v4.68h.43v2.88h-.58v-2.09h-3.46m6.19-5.473h.79v4.18l2.09-4.174h.79v5.47h-.72V52l-2.09 4.177h-.87m6.12-5.47h.79v2.23h2.09v-2.23h.72v5.472h-.72v-2.44h-2.09v2.44h-.79m9-2.02l.72.14c-.07.65-.29 1.08-.65 1.44-.29.36-.72.5-1.23.5-.58 0-1.08-.22-1.44-.72-.36-.44-.58-1.16-.58-2.09s.21-1.66.57-2.16c.43-.43.86-.72 1.51-.72.43 0 .79.14 1.15.43.29.29.5.72.57 1.29l-.72.14c-.07-.36-.22-.65-.36-.79-.22-.22-.36-.29-.65-.29-.36 0-.65.14-.94.5-.22.29-.36.86-.36 1.51 0 .79.14 1.29.36 1.65.21.29.5.5.86.5.29 0 .58-.14.79-.36.21-.22.28-.57.36-1.01zm2.73-3.46h.72v2.37c.29 0 .43-.07.5-.21.14-.07.29-.43.43-.93.14-.43.28-.72.36-.87.07-.15.21-.22.36-.29.07-.07.28-.07.57-.07h.14v.79l-.22-.07c-.22 0-.29.07-.36.14s-.14.14-.22.28c-.15.57-.29.93-.36 1.08-.15.14-.29.28-.51.43.35.07.64.43 1 1.08l.79 1.72h-.79l-.87-1.73c-.144-.36-.29-.58-.43-.65-.07-.15-.21-.15-.43-.15v2.52h-.72V50.7zm7.92 4.75c-.22.28-.51.5-.72.64-.15 0-.29.07-.43.14v-.72c.14 0 .28-.08.5-.22.21-.15.36-.29.43-.51.14-.29.21-.58.21-1.08v-.29c-.29.07-.65.21-1.15.29V53c.5-.146.86-.22 1.15-.29v-.29c0-.36-.07-.576-.22-.792-.22-.215-.51-.287-.87-.287h-.07v-.79h.14c.5 0 .86.08 1.15.29.21.15.43.36.5.65.07.29.07.65.07 1.15v1.23c0 .87 0 1.37.07 1.59 0 .29.07.51.21.72h-.79c-.07-.21-.14-.43-.22-.72zm-1.15.79h-.44c-.51 0-.87-.15-1.15-.44-.29-.22-.44-.65-.44-1.08 0-.36.07-.65.21-.87.14-.22.29-.43.57-.58.22-.14.5-.22 1.01-.29h.21v.72h-.15c-.29.07-.5.14-.65.21-.15.07-.22.14-.29.29-.07.14-.07.29-.07.43 0 .29.07.5.21.65.15.14.36.22.65.22h.29v.72zm0-4.9c-.36 0-.58.07-.72.21s-.29.43-.36.79l-.8-.07c.14-.65.36-1.01.65-1.3.29-.22.72-.36 1.22-.43v.79zm7.92-.65v5.47h-.8V54h-.43c-.22 0-.43.07-.58.14v-.932c.07.074.14.074.21.074h.79v-1.8h-1.01v-.79h1.8zm-1.8 3.45c-.15.14-.36.36-.58.79l-.65 1.22h-.94l.79-1.51c.29-.44.5-.72.79-.72-.44-.08-.8-.29-1.01-.58-.22-.36-.29-.65-.29-1.08 0-.51.14-.87.43-1.16.29-.29.65-.44 1.15-.44h.28v.79H192c-.43 0-.72.08-.86.22-.07.22-.144.36-.144.58 0 .36.073.57.29.72.144.14.432.21.79.21v.94zm10.87 0l.71.14c-.07.65-.29 1.08-.65 1.44-.29.36-.72.5-1.23.5-.58 0-1.01-.22-1.44-.72-.36-.44-.58-1.16-.58-2.09s.21-1.66.57-2.16c.43-.43.86-.72 1.51-.72.43 0 .86.14 1.15.43.29.29.5.72.57 1.3l-.72.14c-.07-.36-.22-.65-.36-.79-.14-.22-.36-.29-.65-.29-.36 0-.65.14-.94.5-.22.29-.36.86-.36 1.51 0 .79.14 1.3.36 1.66.21.29.5.5.93.5.29 0 .5-.15.72-.36.21-.22.28-.58.36-1.01zm2.73-3.46h3.53v5.47h-.79V51.5h-2.02v4.68h-.72m7.85-5.617h.07c.36 0 .64.144.93.36.29.144.5.504.72.936.14.43.22.93.22 1.51 0 .93-.15 1.65-.58 2.16-.36.5-.79.72-1.37.72v-.72c.29 0 .57-.22.86-.51.21-.36.36-.94.36-1.66s-.15-1.23-.36-1.59c-.22-.29-.51-.51-.87-.51v-.72zm-1.88 7.704v-7.56h.64v.72c.21-.288.36-.504.57-.648.22-.15.43-.22.65-.22v.72c-.29 0-.57.22-.86.58-.22.36-.36.86-.36 1.58s.14 1.22.36 1.58c.22.28.5.5.86.5v.72c-.22 0-.43-.08-.65-.15-.15-.15-.36-.29-.51-.51v2.66h-.72zm9-2.808c-.29.28-.51.5-.8.64-.15 0-.29.07-.44.14v-.72c.14 0 .36-.08.5-.22.21-.15.36-.29.5-.51.07-.29.14-.58.14-1.08v-.29c-.29.07-.65.21-1.15.29V53c.5-.144.86-.216 1.15-.29v-.287c0-.36-.07-.578-.22-.794-.15-.22-.44-.29-.87-.29h-.08v-.8h.21c.43 0 .79.07 1.08.28.29.14.43.36.5.65.074.29.15.65.15 1.15v2.81c.072.29.15.5.22.72h-.79c-.07-.22-.148-.43-.148-.72zm-1.23.79H219c-.43 0-.863-.15-1.08-.44-.287-.22-.43-.65-.43-1.08 0-.36.07-.65.216-.87.073-.22.29-.43.506-.58.22-.15.58-.22 1.01-.29h.22v.72h-.07c-.36.07-.576.14-.65.21-.143.07-.286.14-.286.29-.07.14-.14.29-.14.43 0 .28.07.5.214.64.22.14.437.21.72.21h.22v.72zm0-4.9c-.29 0-.5.07-.72.21-.15.14-.29.43-.36.79l-.72-.07c.07-.65.29-1.01.65-1.3.29-.22.65-.36 1.15-.43v.79zm6.12-.65h.07c.36 0 .64 0 .86.14.22.07.43.21.58.43.14.21.29.5.29.86 0 .5-.22.93-.58 1.15.5.21.72.65.72 1.29 0 .43-.07.79-.36 1.08-.22.36-.65.5-1.3.5h-.29v-.79h.07c.43 0 .72-.07.87-.22.14-.15.29-.29.29-.58s-.15-.51-.29-.65c-.14-.15-.5-.22-.94-.22V53c.29 0 .43-.073.5-.073.14-.07.29-.143.36-.287.07-.072.14-.216.14-.432 0-.29-.07-.504-.29-.576-.15-.07-.36-.143-.72-.143v-.79zm-1.73 0h1.72v.79h-.94V53h.94v.72h-.94v1.656h.94v.79h-1.73V50.7zm5.9 0h.79v2.37c.21 0 .36-.07.5-.22.07-.07.21-.43.43-.94.14-.44.21-.72.36-.87.07-.15.14-.22.29-.29.14-.07.36-.07.64-.07h.07v.79l-.22-.07c-.14 0-.29.07-.36.14s-.07.14-.14.28c-.15.57-.29.93-.44 1.08-.07.14-.22.28-.43.43.29.07.65.43.94 1.08l.86 1.72h-.87l-.79-1.73c-.15-.36-.29-.58-.44-.65-.15-.15-.29-.15-.44-.15v2.52h-.79V50.7zm7.99 4.75c-.29.29-.51.5-.8.65-.14 0-.29.07-.43.14v-.72c.21 0 .36-.08.5-.22.22-.15.36-.29.5-.51.07-.29.14-.58.14-1.08v-.29c-.29.07-.65.21-1.15.29V53c.5-.144.93-.216 1.15-.29v-.287c0-.36-.07-.577-.22-.793-.15-.213-.44-.285-.87-.285h-.07v-.79h.22c.43 0 .86.072 1.08.29.29.142.43.36.503.646.07.29.142.65.142 1.15v2.81c.07.29.14.51.21.72h-.79c-.076-.21-.147-.43-.147-.72zm-1.23.79h-.43c-.43 0-.79-.15-1.08-.44-.29-.22-.43-.65-.43-1.08 0-.36.07-.65.21-.87.07-.22.29-.43.5-.58s.57-.22 1.01-.29h.21v.72h-.07c-.29.07-.58.14-.65.21-.15.07-.22.14-.29.29-.07.14-.15.29-.15.43 0 .29.07.5.28.65.15.14.36.22.65.22h.22v.72zm0-4.9c-.29 0-.51.07-.72.21-.15.14-.29.43-.36.79l-.72-.07c.07-.65.29-1.01.65-1.3.29-.22.64-.36 1.15-.43v.79zM75.58 41.21s6.436-3.28 13-4.55c8.787-1.702 20.563-.26 31.5 4.55-.287-2.95-.704-6.84-.992-9.646-.288-2.81-.576-5.544-.864-8.208-.288-2.736-.72-4.968-1.224-6.696s-1.224-3.312-2.088-4.608c-1.368-2.16-3.24-4.104-5.616-5.832-1.224-.864-2.52-1.656-3.96-2.376-1.44-.792-3.024-1.44-4.68-2.016l-.288-.072v6.84c.144 0 .288.072.432.072 4.176 1.152 7.056 2.88 8.856 5.112.864 1.152 1.512 2.52 2.088 4.176.504 1.728.864 3.672 1.08 6.048.288 2.952.576 5.977.792 9.072-13.703-.75-11.703-.75-26.424-.936m0 0v-8.137c.072-2.592.072-5.184.072-7.632.072-3.88 1.368-6.4 3.888-7.63 2.304-1.15 5.4-1.15 9.216-.14V1.76C97.488.747 94.752.17 92.232.027c-2.736-.145-5.184.29-7.344 1.223-2.232.94-4.032 2.526-5.328 4.68-1.296 2.31-2.088 5.19-2.232 8.717-.144 2.088-1.604 23.976-1.748 26.568M2.952 39.987H0v-20.81h1.44c2.016 1.655 4.104 3.31 6.192 4.895 2.016 1.656 4.104 3.312 6.192 4.968 2.088-1.655 4.104-3.31 6.192-4.967 2.088-1.584 4.176-3.24 6.192-4.896h2.952v20.806h-5.832v-12.74c-1.728 1.368-3.384 2.736-5.112 4.032-1.656 1.368-3.384 2.736-5.04 4.104-1.728-1.37-3.384-2.74-5.112-4.11-1.728-1.3-3.384-2.67-5.112-4.03v12.74zm43.848 0H32.184v-20.81H46.8v2.303h-8.784v6.912h5.832v2.376h-5.832v6.913H46.8v2.31zm20.952 1.583V30.7c0-1.873-.072-3.385-.288-4.61-.288-1.223-.648-2.23-1.152-3.023-.792-1.296-1.872-2.304-3.312-3.024-1.368-.72-2.952-1.08-4.68-1.08v4.464c2.088 0 3.6.648 4.536 1.872.936 1.22 1.368 3.38 1.368 6.33v5.61H58.32v3.09c3.816 0 7.2.86 9.432 1.22zM58.32 18.964c-2.952 0-5.256.937-6.84 2.736-1.656 1.87-2.448 4.463-2.448 7.92v11.95c2.808-.36 3.744-.72 6.552-1.08.936-.07 1.872-.143 2.736-.143V37.25h-5.904v-7.703c0-2.016.504-3.527 1.44-4.536 1.008-1.08 2.448-1.58 4.392-1.58h.072v-4.46zM.36 50.354h3.528v5.4h-.792v-4.68H1.08v4.68H.36M7.2 50.21c.576 0 1.08.217 1.44.72.432.505.648 1.153.648 2.09 0 .935-.216 1.727-.648 2.16-.36.503-.864.72-1.44.72v-.72c.36 0 .648-.217.936-.577.216-.29.36-.864.36-1.512 0-.72-.144-1.22-.36-1.58-.288-.36-.576-.5-.936-.5v-.79zm-2.088 2.88c0-.935.144-1.655.576-2.16.36-.503.864-.72 1.512-.72v.793h-.072c-.36 0-.648.144-.864.504-.288.36-.432.864-.432 1.584 0 .65.144 1.23.432 1.52.216.36.576.58.936.58v.72c-.648 0-1.152-.21-1.512-.72-.432-.43-.576-1.15-.576-2.09zm5.4-2.735h.792v4.176l2.088-4.17h.792v5.4h-.72v-4.11l-2.088 4.11h-.864m8.064-1.94l.792.07c-.072.65-.288 1.15-.648 1.51-.36.36-.792.51-1.224.51-.576 0-1.08-.21-1.44-.72-.432-.43-.576-1.15-.576-2.08 0-1.01.144-1.65.576-2.16.36-.5.864-.72 1.44-.72.504 0 .864.15 1.152.43.36.29.504.72.648 1.3l-.72.15c-.072-.36-.216-.65-.432-.79-.144-.22-.36-.29-.648-.29-.36 0-.648.15-.864.51-.288.29-.36.8-.36 1.52 0 .79.072 1.29.288 1.65.288.29.576.51.936.51.288 0 .504-.14.72-.36.216-.21.36-.58.36-1.01zm1.8-3.45h.72v2.38c.288 0 .432-.07.504-.21.144-.07.288-.43.432-.93.144-.5.288-.72.36-.86.144-.14.216-.29.36-.29.072-.07.288-.07.576-.07h.144v.72h-.216c-.216 0-.288.07-.36.15-.072 0-.144.14-.144.29-.216.58-.36.94-.432 1.08-.072.15-.288.29-.504.43.36.07.648.43 1.008 1.08l.792 1.66h-.792l-.864-1.66c-.144-.36-.288-.57-.432-.64-.072-.14-.216-.14-.432-.14v2.44h-.72v-5.4zm10.008 0h3.456v5.4h-.72v-4.68h-2.016v2.74c0 .65 0 1.08-.072 1.23 0 .22-.072.43-.216.58-.216.15-.432.22-.72.22-.144 0-.36 0-.576-.07v-.72c.36 0 .576 0 .648-.07.072 0 .072-.07.144-.14 0-.07.072-.36.072-.86v-3.6zm7.992 3.67l.792.15c-.144.58-.36 1.01-.72 1.3-.288.29-.72.43-1.224.43h-.072v-.72h.072c.576 0 .936-.43 1.152-1.15zm-1.224-3.81h.072c.576 0 1.008.29 1.44.72.36.51.576 1.23.576 2.16v.22h-2.088v-.79h1.296c-.072-.43-.144-.79-.36-1.01-.216-.36-.504-.5-.936-.5v-.79zm0 5.69c-.576 0-1.08-.21-1.44-.72-.432-.43-.648-1.15-.648-2.09s.216-1.65.648-2.16c.36-.43.864-.72 1.44-.72v.8c-.288 0-.576.15-.864.43-.216.22-.36.65-.36 1.08h1.224v.79h-1.296c.072.58.216 1.08.432 1.37.288.29.576.43.864.51v.72zm3.384-5.54h.72v2.38c.216 0 .432-.07.504-.21.144-.07.288-.43.432-.93.144-.51.288-.72.36-.87.072-.14.216-.29.36-.29.072-.07.288-.07.576-.07h.144v.72h-.216c-.216 0-.288.07-.36.14-.072 0-.144.15-.216.29-.144.58-.288.94-.36 1.08-.144.14-.288.29-.504.43.36.07.648.43 1.008 1.08l.792 1.66h-.792l-.864-1.66c-.144-.36-.288-.57-.432-.64-.072-.15-.288-.15-.432-.15v2.45h-.72v-5.4zm6.984 4.76c-.216.29-.504.51-.792.58l-.432.22v-.72c.216-.07.36-.07.504-.21.216-.14.432-.29.504-.58.144-.21.144-.57.144-1v-.29c-.216.07-.648.22-1.152.29v-.8c.504-.07.936-.14 1.152-.29v-.22c0-.36-.072-.64-.144-.79-.216-.21-.504-.29-.864-.29h-.144v-.79h.216c.504 0 .864.07 1.08.29.288.15.504.36.504.65.072.29.144.65.144 1.16v1.23c0 .87 0 1.37.072 1.59 0 .22.072.51.144.65h-.792c-.072-.14-.072-.36-.144-.65zm-1.224.79h-.432c-.432 0-.792-.14-1.08-.43s-.432-.65-.432-1.08c0-.36.072-.65.216-.86.144-.22.288-.43.504-.58.216-.14.576-.21 1.08-.29l.144-.07v.79h-.072c-.288.07-.504.14-.648.22s-.216.15-.288.29-.144.29-.144.44c0 .29.072.5.288.65.144.15.36.22.648.22h.216v.72zm0-4.89c-.288 0-.504.07-.648.22-.216.14-.36.43-.432.79l-.72-.14c.072-.57.288-1.01.648-1.22.288-.28.648-.36 1.152-.43V51zm5.4-.79h.072c.36 0 .648.15.936.29.288.22.504.58.648 1.01.216.43.288.93.288 1.51 0 .93-.216 1.65-.576 2.16s-.864.72-1.368.72v-.72c.288 0 .576-.22.792-.58.288-.29.36-.86.36-1.58s-.072-1.22-.36-1.58c-.216-.29-.504-.5-.792-.5v-.72zm-1.944 7.63v-7.49h.72v.72c.144-.28.36-.5.576-.64.144-.14.36-.21.648-.21v.72h-.072c-.288 0-.576.22-.792.58-.288.36-.36.87-.36 1.59s.072 1.23.36 1.59c.216.29.504.5.792.5h.072v.72c-.288 0-.432-.07-.648-.14-.216-.14-.36-.29-.504-.5v2.59h-.792zm8.064-4.03l.792.07c-.072.65-.288 1.16-.648 1.52-.36.36-.792.51-1.224.51-.648 0-1.08-.22-1.44-.72-.432-.43-.576-1.15-.576-2.09 0-1.01.144-1.65.576-2.16.36-.5.864-.72 1.44-.72.432 0 .864.15 1.152.43.36.29.504.72.648 1.3l-.792.15c-.072-.36-.144-.65-.36-.79-.144-.22-.36-.29-.648-.29-.36 0-.648.14-.936.5-.216.29-.36.79-.36 1.51 0 .79.144 1.29.36 1.66.288.29.576.5.936.5.288 0 .504-.14.72-.36s.36-.58.36-1.01zm1.368-3.46h3.6v.72h-1.368v4.68h-.792V51.1h-1.44m6.408-.72h.072c.36 0 .648 0 .864.074.216.07.432.287.576.5s.288.51.288.87c0 .505-.216.937-.576 1.15.504.218.72.65.72 1.298 0 .43-.072.79-.36 1.08-.216.29-.648.43-1.296.43h-.288v-.72h.072c.432 0 .72-.07.864-.212.144-.14.288-.29.288-.572s-.144-.505-.288-.65c-.144-.143-.504-.215-.936-.215v-.72c.288 0 .432-.07.504-.07.144-.07.288-.147.36-.29.072-.074.144-.22.144-.434 0-.29-.072-.51-.288-.58-.144-.14-.36-.14-.72-.14v-.79zm-1.728 0h1.728v.794c0-.073-.072-.073-.072-.073h-.864v1.59h.936v.72h-.936v1.65h.936v.72h-1.728v-5.4z"/><path fill="#485E88" fill-rule="evenodd" stroke="#485E88" stroke-width="7.087" d="M106.992 62.523c-3.744 1.224-5.328 1.296-8.136 1.44-2.952.144-5.832-.072-8.568-.576-2.736-.576-5.256-1.44-7.272-2.52-1.944-1.08-3.456-2.448-4.32-3.96-1.656-2.88-.504-5.76 2.232-8.064 2.52-2.088 6.408-3.6 11.016-4.248 4.32-.648 8.64-.36 12.384.432 3.744.864 7.056 2.304 9.216 4.32 2.232 2.16 2.88 4.536 2.016 6.84-1.008 2.52-4.896 5.184-8.568 6.336z" clip-rule="evenodd"/><path fill="#FFF" fill-rule="evenodd" d="M93.6 44.523c10.728-.216 19.368 4.32 19.296 10.224-.072 5.904-8.856 10.8-19.584 11.088-10.728.216-19.368-4.392-19.296-10.224.072-5.9 8.856-10.87 19.584-11.08z" clip-rule="evenodd"/><g fill="#485E88" fill-rule="evenodd" clip-rule="evenodd"><path d="M83.808 54.675c4.104-.864 7.92-1.584 11.52-2.304 3.456-.64 6.624-1.29 9.72-1.87.936.94 1.872 1.95 2.88 2.95-3.096.65-6.336 1.37-9.864 2.16-3.672.87-7.56 1.73-11.808 2.67-.792-1.22-1.656-2.45-2.448-3.6z"/><path d="M98.352 60.723c-1.728-2.088-3.312-4.176-4.896-6.048-1.512-1.872-2.88-3.6-4.248-5.328 2.088-.36 4.176-.648 6.12-1.008 1.368 1.58 2.88 3.24 4.392 4.96 1.656 1.8 3.312 3.74 5.112 5.69-2.088.57-4.248 1.15-6.48 1.73z"/></g><g fill="#EA1F4D" fill-rule="evenodd" clip-rule="evenodd"><path d="M83.808 53.883c4.104-.792 7.92-1.584 11.52-2.232 3.456-.72 6.624-1.29 9.72-1.87.936.94 1.872 1.87 2.88 2.88-3.096.72-6.336 1.44-9.864 2.23-3.672.8-7.56 1.73-11.808 2.67-.792-1.29-1.656-2.45-2.448-3.67z"/><path d="M98.352 60.003c-1.728-2.16-3.312-4.176-4.896-6.12-1.512-1.872-2.88-3.6-4.248-5.256 2.088-.36 4.176-.72 6.12-1.008 1.368 1.58 2.88 3.24 4.392 4.96 1.656 1.8 3.312 3.67 5.112 5.69-2.088.5-4.248 1.08-6.48 1.73z"/></g><path fill="#485E88" fill-rule="evenodd" d="M108.288 62.235l2.16-.864c.576-.21 1.296-.21 1.584.08.72.58 1.512 1.23 2.376 1.95.864.72 1.872 1.51 2.88 2.31 1.224 1.01 2.52 2.09 3.96 3.32.792.58 1.584 1.3 2.52 1.95.793.72 1.73 1.44 2.665 2.23.936.72 1.08 1.87.216 2.52-1.08.72-2.16 1.51-3.32 2.38-1.01.65-2.59.44-3.39-.57-.87-.93-1.59-1.87-2.31-2.73-.79-.86-1.51-1.73-2.16-2.45-1.3-1.51-2.45-2.81-3.46-4.03-.86-1.01-1.66-1.94-2.38-2.81-.72-.79-1.44-1.58-2.02-2.3-.22-.28.07-.64.64-.93z" clip-rule="evenodd"/><path fill="#E7E8E9" fill-rule="evenodd" stroke="#485E88" d="M125.137 77.5c-.648.575-1.44 1.007-2.09 1.223-.647.216-1.295.144-1.654-.144-.36-.29-.36-.87-.072-1.59s.94-1.51 1.73-2.16c.87-.72 1.73-1.15 2.45-1.23.65-.15 1.15 0 1.37.43.22.43.15 1-.21 1.58-.29.65-.79 1.29-1.51 1.87z" clip-rule="evenodd"/><path fill="#FFF" fill-rule="evenodd" d="M80.568 22.13c.288.65-1.656-28.727 29.88-12.96-9.072-7.63-35.424-17.783-29.88 12.96zM94.68 49.347c.144-.072.36 0 .648.216.36.216.648.576 1.008 1.008.36.51.792 1.08 1.152 1.52.432.51.792 1.01 1.152 1.44l1.08 1.3c.36.43.72.79 1.008 1.23.288.29.432.51.504.72 0 .15-.072.29-.216.29-.144-.07-.36-.14-.648-.36-.216-.14-.504-.43-.792-.72-.288-.36-.576-.72-.936-1.08-.36-.43-.72-.79-1.008-1.22l-1.08-1.29c-.36-.5-.792-.93-1.152-1.44-.288-.36-.576-.72-.648-1.01-.144-.28-.216-.5-.072-.57zm8.65-6.067c7.993 1.944 20.233 6.408 10.73 16.488 6.12-11.232-1.514-13.463-10.73-16.488z" clip-rule="evenodd"/></svg>