<svg xmlns="http://www.w3.org/2000/svg" id="Layer_1" width="481.1" height="468" viewBox="0 0 481.1 468"><style>.st1{fill:#232323}</style><path fill="#e8f62e" d="M234.3,4C106.7,4,3.3,107.4,3.3,235c0,75.3,36.1,142.2,91.9,184.4l369.3-203.9C454.5,97,355.3,4,234.3,4z"/><path d="M82,242.7l23.5-12.6l-0.8-1.4c-2.3-4.2-4.9-7.1-8-8.5c-3-1.4-6.4-1.2-10.3,0.9c-3.9,2.1-6.1,5-6.8,8.7 c-0.6,3.8,0.1,8,2,12.6L82,242.7z M88.8,255.9c3,4.8,6.6,7.9,10.9,9.5c4.3,1.6,9.1,1,14.3-1.8c4.3-2.3,7.7-4.7,10.3-7.2 c2.5-2.5,4.9-5.5,7.1-9.1l8.6,6.7L129,233.9l-40.2,21.5L88.8,255.9z M199,222.3l1.2,0.6l-31.7-57.7l-0.2,1.3l-0.7-1.3l-4.7,38.9 l36.3,18.8L199,222.3z M462.4,284.4L462.4,284.4L462.4,284.4L462.4,284.4z M236.5,195.9c2.4,0.6,4.9,0.1,7.7-1.3 c3.3-1.8,5.9-4.3,7.6-7.3c1.7-3.1,2.5-6,2.2-8.7l-5.5-10.1l-10.8,5.8c-4.1,2.2-6.6,4.8-7.6,8c-1,3.2-0.7,6.2,0.9,9.2 C232.4,193.8,234.2,195.3,236.5,195.9z M234,0C104.8,0,0,104.8,0,234c0,129.3,104.8,234,234,234c62.7,0,119.5-24.8,161.6-65 c-34-6-59.8-35.6-59.8-71.2c0-40,32.4-72.4,72.4-72.4c21.7,0,41,9.8,54.3,25c3.6-16.2,5.6-33.1,5.6-50.4C468,104.8,363.3,0,234,0z M16.7,241l17.8-9.6l6.6,10.1c-0.4-4.6,0.2-8.7,1.7-12.2c1.5-3.5,4-6.1,7.4-8c1-0.5,1.9-0.9,2.8-1.2c0.9-0.2,1.8-0.5,2.8-0.8 l4.1,10.1c0-0.1,0-0.1,0-0.1c2-10,8.2-17.7,18.4-23c9.6-5.1,18.5-6.1,26.8-3c3.9,1.4,7.4,3.8,10.7,6.8l-26.6-48.6l19.2-10.3 l31.9,58.2l4.3-2.3l2.3-35.9l19.2-10.3L149,129.4l19.2-10.3l42,76.7c-1-4.6-1.1-9.3,1.1-13.9c3.3-6.7,10.1-12.8,20.4-18.4l10.8-5.8 l-3.1-5.6c-1.9-3.5-4.2-5.6-7.1-6.6c-2.8-0.9-6-0.4-9.6,1.6c-3.1,1.6-5.1,3.6-6,6.1c-0.8,2.4-0.6,5,0.9,7.6l-18.5,9.9l-0.3-0.3 c-3.6-5.8-3.8-12.4-0.7-19.8c3.1-7.3,9.2-13.4,18.1-18.2c8.6-4.6,16.7-6.2,24.3-4.7c7.7,1.5,13.7,6.2,18.1,14.3l16.1,29.4 c1.8,3.3,3.8,6.4,5.9,9c2.1,2.6,4.5,5.2,7.2,7.4L268.8,198c-1.6-1.3-3.1-2.6-4.6-4.2c-1.5-1.5-2.9-3.2-4.1-4.9 c-0.1,4.5-1.1,8.8-3.1,12.9c-2,4-5.2,7.2-9.7,9.6c-7.5,4-14.3,5.2-20.4,3.5c-3.5-0.9-6.5-3-9.2-5.6l6.9,12.6l-19.2,10.3l-15.9,8.5 l-36.1-19.2l-4.9,2.6l16.3,29.8l-19.2,10.3l-3.3-6c-1.7,3.4-4,6.8-7.5,10.5c-4,4.2-8.9,7.8-14.7,10.9c-10.6,5.7-20.7,6.9-30.2,3.6 c-9.5-3.3-17.1-10.1-22.8-20.4l-1.4-2.6c-3.9-7.1-5.9-14-6.2-20.7l-3.4,1.7c-2.8,1.5-4.9,3.4-6.1,5.5c-1.2,2.2-1.7,4.6-1.5,7.3 L74.9,302l-19.2,10.3L16.7,241z M354.6,270.4c-1.7,1.3-3.6,2.5-5.7,3.6c-6.6,3.6-12.7,4.5-18.3,2.7c-5.6-1.7-10.5-6.5-14.8-14.4 L295.8,226l-5,2.7c2.3,1.9,4.3,4,5.8,6.9l0.1,0.4l-18.6,10c-1.6-2.8-3.8-4.7-6.6-5.5c-2.8-0.8-6-0.2-9.5,1.6 c-3.1,1.6-5.1,3.7-6,6.2c-0.9,2.5-0.8,4.9,0.4,7.1c1.2,2.2,3.1,3.5,5.7,3.8c2.6,0.4,7.1-0.3,13.4-2.3c9.7-2.9,17.6-3.8,23.8-2.7 c6.1,1.1,10.8,4.7,14.1,10.6c3.5,6.4,3.6,13.1,0.4,20.1c-3.3,7-9.4,13-18.4,17.8c-9.5,5.1-18.3,6.7-26.4,4.8 c-3.5-0.8-6.2-2.2-8.8-3.8c0.8,1.1,1.5,2.5,2.3,3.5c2.1,2.6,4.5,5.1,7.2,7.5L250.6,325c-1.6-1.3-3.1-2.6-4.6-4.1 c-1.5-1.5-2.9-3.2-4.1-5c-0.1,4.5-1.1,8.8-3.1,12.8c-2,4.1-5.2,7.3-9.7,9.7c-7.5,4-14.3,5.2-20.4,3.5c-2.5-0.7-4.6-2-6.7-3.5 l5.4,9.9l-19.2,10.4l-23.2-42.4c-3.1-5.7-6.2-9.2-9.2-10.5c-3-1.3-6.2-1-9.7,0.8c-2.7,1.5-4.8,3.3-6.1,5.6c-1.3,2.3-2,4.8-2,7.6 c0.5,0.8,0.9,1.5,1.3,2.1c0.4,0.6,0.7,1.2,1,1.8l25.6,46.8l-19.1,10.3l-23.2-42.4c-3-5.5-6.1-9-9.1-10.4c-3-1.3-6.3-1.1-9.8,0.7 c-2.6,1.4-4.6,3.2-6,5.1c-1.4,2.1-2.3,4.3-2.6,6.8l28.5,51.9l-19.2,10.3l-39-71.2l17.8-9.6l5.9,9c0.4-4.6,1.8-8.8,4.2-12.5 c2.4-3.7,5.9-6.8,10.4-9.2c4.6-2.4,9-3.5,13.4-3.3c4.3,0.3,8.5,2,12.4,5.2c0.1-4.9,1.3-9.5,3.7-13.5c2.3-4,5.9-7.3,10.6-9.9 c7-3.8,13.9-4.3,20.7-1.4c6.8,2.8,13,9.3,18.6,19.5l6.8,12.4c0-3.2,0.6-6.4,2.1-9.6c3.3-6.7,10.1-12.8,20.4-18.4l10.8-5.8l-3.1-5.7 c-1.9-3.4-4.2-5.6-7.1-6.5c-2.9-0.9-6-0.4-9.6,1.5c-3.1,1.7-5.1,3.8-6,6.2c-0.9,2.4-0.6,4.9,0.8,7.6l-18.5,9.9l-0.3-0.4 c-3.6-5.8-3.8-12.4-0.7-19.8c3.1-7.3,9.2-13.4,18.2-18.2c8.5-4.6,16.7-6.1,24.3-4.7c6.4,1.2,11.6,4.9,15.7,10.7 c-2.9-5.8-3.1-12.1-0.4-18.8c2.8-7.1,8.6-12.9,17.2-17.5c9-4.8,17.4-6.5,25.2-5.1c0.6,0.1,0.9,0.4,1.4,0.6l-3.4-6.2l10.4-5.6 l-9.6-17.4l19.2-10.3l9.6,17.5l12-6.4l7.4,13.5l-12,6.4l19.9,36.2c1.5,2.9,3.2,4.5,5,5c1.8,0.5,3.7,0.3,5.5-0.7 c1-0.5,1.9-1.1,2.6-1.6c0.7-0.5,1.4-1.2,2.3-2l9.2,13.1C357.8,267.6,356.2,269,354.6,270.4z M414.1,237.3l-3.3-6 c-1.6,3.3-4,6.8-7.5,10.5c-4,4.2-8.9,7.8-14.7,10.9c-10.6,5.7-20.7,6.9-30.3,3.6c-9.5-3.3-17.1-10.1-22.8-20.4l-1.4-2.6 c-5.8-10.7-7.7-21-5.7-30.9c2.1-9.9,8.2-17.6,18.4-23c9.6-5.1,18.5-6.1,26.8-3c3.9,1.5,7.4,3.8,10.7,6.7l-9.4-17.1l17.8-9.6 l6.6,10.1c-0.4-4.6,0.2-8.7,1.7-12.3c1.5-3.5,4-6.2,7.4-8c1-0.5,1.9-0.9,2.8-1.2c0.9-0.3,1.8-0.6,2.8-0.8l7.3,18.1l-7.2,3.6 c-2.9,1.5-4.9,3.3-6.1,5.5c-1.2,2.2-1.7,4.6-1.5,7.3l26.4,48.1L414.1,237.3z M373.3,201.9c-2.3-4.1-4.9-6.9-7.9-8.4 c-3-1.5-6.5-1.2-10.3,0.8c-3.9,2.1-6.1,5-6.8,8.8c-0.6,3.8,0,7.9,2,12.6l0.3,0.3l23.4-12.6L373.3,201.9z M269.7,285.5 c2.2,3.7,5,5.8,8.3,6.3c3.3,0.4,6.9-0.4,10.7-2.4c3.5-1.9,5.9-4.1,7-6.5c1.1-2.4,1-4.8-0.4-7.3c-1.1-2-3.1-3.4-6-3.7 c-2.9-0.5-7.4,0.2-13.5,2c-9.3,2.8-17,3.7-23.2,2.6c-4.6-0.8-8.3-2.9-11.2-6.3l12.9,23.6L269.7,285.5z M357.4,228.7l0,0.5 c3,4.7,6.6,7.8,10.9,9.5c4.3,1.6,9.1,1,14.3-1.8c4.3-2.3,7.7-4.7,10.2-7.2c2.5-2.5,4.9-5.5,7.1-9l8.6,6.6l-11-20.2L357.4,228.7z M241.3,270.2l-0.7-1.4c-0.7-1.3-1.6-2.4-2.4-3.6c0.1,0.3,0.2,0.6,0.4,0.9C239.3,267.6,240.3,269,241.3,270.2z M219.5,301.3 c-4.1,2.2-6.6,4.9-7.6,8c-1,3.1-0.7,6.2,0.9,9.1c1.3,2.4,3.1,3.9,5.5,4.5c2.3,0.5,4.9,0.1,7.6-1.4c3.4-1.8,5.9-4.2,7.6-7.3 c1.7-3.1,2.4-6,2.2-8.7l-5.5-10.1L219.5,301.3z" class="st1"/><circle cx="408.2" cy="331.8" r="72.4" fill="#e8f62e" stroke="#232323" stroke-miterlimit="10"/><path d="M389.3,349.6l-4.2,2.3c0.8,1.4,0.9,2.8,0.3,4.4c-0.5,1.5-1.6,2.7-3,3.5c-2.3,1.2-4.4,1.2-6.5,0 c-2-1.2-3.7-3.1-5.1-5.7l-0.5-1c-1.4-2.5-2-4.9-1.9-7.2c0-2.3,1.2-4.1,3.5-5.3c1.5-0.8,3.1-1,4.7-0.4c1.6,0.6,2.9,1.6,3.7,3.2 l4.2-2.3l0-0.2c-1.3-2.5-3.4-4.2-6.2-5c-2.8-0.8-5.6-0.5-8.4,1c-3.6,2-5.7,4.6-6.3,8.1c-0.6,3.5,0,7.1,2,10.7l0.5,0.9 c2,3.7,4.6,6.2,7.9,7.6c3.3,1.3,6.8,1.1,10.3-0.8c2.6-1.4,4.4-3.5,5.4-6.2c1-2.8,0.9-5.3-0.4-7.4L389.3,349.6z" class="st1"/><path d="M444.2,300.4c-2.5-1-5.1-0.8-7.6,0.6c-1.7,1-3.1,2.2-3.9,3.8c-0.9,1.5-1.3,3.3-1.3,5.2c-1.5-1.3-3-1.9-4.7-2.1 c-1.7-0.1-3.4,0.3-5.1,1.2c-1.7,0.9-3,2-3.9,3.4c-0.9,1.4-1.5,2.8-1.6,4.5l-2.2-3.1l-4.1,2.2l14,25.6l4.7-2.5L418,320.2 c-0.1-1.3,0.1-2.5,0.8-3.5c0.6-1.1,1.6-2,3-2.8c1.7-0.9,3.3-1,4.8-0.4c1.5,0.6,2.9,2.1,4.2,4.5l8.4,15.3l4.7-2.4l-8.9-16.3 l-0.1-0.2c-0.7-1.7-0.9-3.5-0.5-5.1c0.4-1.6,1.3-2.9,2.9-3.7c1.7-0.9,3.3-1.1,4.7-0.6c1.4,0.7,2.8,2.2,4.2,4.7l8.4,15.3l4.7-2.5 l-8.4-15.3C448.9,303.7,446.6,301.4,444.2,300.4z" class="st1"/><path d="M412.7,331.3l-0.3-0.5c-2-3.8-4.8-6.4-8.2-7.7c-3.4-1.3-6.8-1-10.3,0.8c-3.5,1.9-5.6,4.6-6.3,8.1 c-0.8,3.6,0,7.2,2.1,11l0.3,0.5c2,3.8,4.8,6.4,8.2,7.7c3.4,1.3,6.8,1.1,10.4-0.9c3.5-1.8,5.6-4.5,6.4-8.1 C415.5,338.8,414.8,335.1,412.7,331.3z M406.4,346.8c-2.3,1.2-4.4,1.3-6.5,0.1c-2.1-1.2-3.9-3.1-5.4-5.8l-0.3-0.5 c-1.4-2.7-2.1-5.3-2-7.6c0.2-2.4,1.4-4.2,3.6-5.4c2.2-1.2,4.4-1.2,6.5,0c2.1,1.1,4,3.1,5.4,5.7l0.3,0.5c1.5,2.7,2.1,5.2,2,7.6 C409.9,343.8,408.7,345.6,406.4,346.8z" class="st1"/></svg>