<svg xmlns="http://www.w3.org/2000/svg" width="373.667" height="391.333" viewBox="0 0 373.667 391.333"><g fill="#0071bc"><path d="M83.387 141.992c1.188-2.445 51.111-98.857 51.111-98.857l-7.062 3.166L95.964 60.41c0 0-32.476 69.783-40.891 87.865 0-17.83 0-69.47 0-69.47l-28.411 12.83v182.59l28.411-13.646c0 0 0-58.483 0-59.725.461-.955 5.499-12.219 9.292-20.081 4.234 9.233 35.741 58.252 35.741 58.252l34.586-16.484C134.692 222.542 84.632 144.386 83.387 141.992zM139.419 220.292L167.83 206.8 167.83 62.8 139.419 76.292zM139.419 40.939L139.419 66.292 167.83 52.8 167.83 28.255 163.849 30.032zM213.85 361.1L242.262 347.773 242.262 203.773 213.85 217.1zM213.85 180.811L213.85 207.6 242.262 194.273 242.262 168.298 238.285 170.049zM330.75 205.657c-5.704-2.033-14.087-2.546-25.624-1.567-13.859 1.167-17.726-.697-18.743-1.553-1.584-1.334-2.354-3.55-2.354-6.771 0-3.945 1.023-7.457 3.131-10.735 3.391-5.284 8.154-9.306 14.161-11.956 5.298-2.339 9.141-2.637 11.421-.885 1.729 1.329 4.016 4.865 5.109 14.131 7.169-2.678 19.753-7.452 28.426-10.748l-.02-.82c-.377-16.287-4.471-28.001-12.17-34.819-7.989-7.09-19.704-7.343-34.818-.749l-.001 0c-8.945 3.907-16.696 9.401-23.039 16.332-6.324 6.923-11.23 15.202-14.586 24.606-3.335 9.362-5.026 18.717-5.026 27.808 0 14.44 3.778 25.272 11.229 32.194 5.557 5.146 14.608 7.192 27.678 6.258 9.273-.652 15.233-.887 17.71-.695 2.971.266 5.023 1.131 6.067 2.566 1.19 1.637 1.793 4.197 1.793 7.61 0 5.768-1.746 11.712-5.191 17.668-3.399 5.878-8.546 10.438-15.297 13.55-5.883 2.714-10.288 2.725-13.469.032-3.342-2.826-5.679-8.956-6.956-18.216l-27.552 15.497c1.781 18.083 6.493 30.204 14.386 36.979 8.505 7.276 20.552 7.355 35.812.239 10.06-4.687 18.599-10.847 25.376-18.307 6.774-7.45 12.081-16.561 15.771-27.076 3.672-10.449 5.534-20.847 5.534-30.903 0-11.181-1.605-20.078-4.772-26.444C341.426 212.228 336.721 207.777 330.75 205.657z"/><path d="M373.147,87.48c-0.267-0.737-0.812-1.357-1.547-1.7l-183.5-85.5c-0.803-0.375-1.73-0.374-2.533,0 l-183.5,85.5c-1.063,0.496-1.74,1.565-1.733,2.738c0,0.058,0.01,0.114,0.014,0.172c-0.002,0.046-0.014,0.09-0.014,0.137L0,298.661 c-0.001,1.167,0.67,2.169,1.642,2.666c0.127,0.087,0.26,0.166,0.401,0.233l187.833,89.48c0.834,0.397,1.804,0.389,2.631-0.024 l179.167-89.48c0.824-0.411,1.396-1.174,1.585-2.052c0.252-0.439,0.407-0.941,0.407-1.484V89.166 C373.667,88.541,373.474,87.961,373.147,87.48z M183.667,7.785v158.694C151.354,151.917,20.339,92.874,10.534,88.455 C20.734,83.702,160.667,18.502,183.667,7.785z M6.326,93.139l177.34,79.921v32.665L6.007,294.17L6.326,93.139z M188.333,383.66 c-22.244-10.597-168.473-80.257-178.149-84.867c10.297-5.126,174.093-86.67,176.649-87.941c0.125,0.063,0.641,0.318,1.5,0.747 V383.66z M190.806,169.697c-0.101-0.045-0.492-0.222-1.14-0.514V7.629c21.979,10.241,163.55,76.205,173.594,80.885 C352.484,93.587,193.192,168.574,190.806,169.697z M194.333,383.397V214.585c32.604,16.23,160.426,79.866,169.277,84.271 C354.328,303.493,217.207,371.975,194.333,383.397z M367.667,294.174l-173.333-86.291v-33.215l173.333-81.597V294.174z"/></g></svg>