<svg xmlns="http://www.w3.org/2000/svg" width="437.698" height="150.311" version="1" viewBox="0 0 437.698 150.311"><path fill="#9FA2A3" fill-rule="evenodd" d="M195.85 149.95c0 .06-.016.11-.05.155-.032.045-.093.08-.18.11-.084.03-.198.055-.335.07-.137.02-.308.025-.514.025-.21 0-.39-.007-.53-.024s-.25-.04-.34-.07c-.08-.032-.14-.066-.17-.11-.03-.045-.05-.097-.05-.158v-4.49c0-.203.04-.34.1-.408.07-.072.2-.106.39-.106h.49c.21-.28.42-.6.6-.953.19-.35.37-.79.53-1.31.17-.53.32-1.15.45-1.89s.27-1.61.39-2.63c.02-.12.04-.22.07-.32.03-.09.07-.17.13-.24.06-.06.12-.12.21-.15s.19-.05.31-.05h5.55c.24 0 .42.07.53.21.12.14.17.34.17.61v6.76h1.03c.18 0 .31.04.38.11.08.07.12.21.12.41v4.49c0 .07-.01.12-.05.16-.03.05-.09.08-.18.11s-.2.06-.34.07c-.14.02-.32.03-.53.03-.21 0-.38 0-.52-.02s-.25-.04-.33-.07c-.08-.03-.14-.06-.18-.11-.03-.04-.05-.09-.05-.15v-2.93h-7.04V150zm5.163-10.56h-2.14c-.112.843-.235 1.566-.37 2.173-.132.606-.273 1.128-.42 1.563-.147.435-.305.792-.47 1.072-.16.28-.326.528-.487.744h3.887v-5.552zm122.323-.905c0 .22-.007.404-.024.552-.017.145-.045.264-.075.35-.034.086-.075.147-.127.18-.05.033-.106.05-.165.05h-2.262v7.065c0 .065-.02.123-.062.175-.03.05-.1.093-.19.127-.09.03-.22.058-.38.075-.16.01-.37.02-.61.02s-.44-.01-.6-.03c-.15-.02-.29-.05-.38-.08-.1-.04-.16-.08-.2-.13-.04-.05-.05-.11-.05-.18v-7.06h-2.25c-.06 0-.12-.02-.17-.06-.05-.04-.09-.1-.12-.19s-.06-.21-.07-.36c-.02-.15-.02-.34-.02-.56 0-.2.01-.37.03-.51.02-.14.05-.25.08-.34.04-.09.08-.15.12-.19.05-.04.11-.06.17-.06H323c.06 0 .11.02.162.05.05.03.097.1.13.18.036.08.06.2.077.35.02.14.02.32.02.52zm9 8.225c0 .094-.033.166-.1.22-.067.056-.174.094-.317.117-.15.024-.36.035-.65.035-.3 0-.52-.01-.66-.035-.14-.023-.24-.062-.3-.116-.06-.05-.09-.12-.09-.22V146c-.37.395-.79.7-1.27.92-.47.22-1 .328-1.57.328-.48 0-.91-.062-1.31-.186-.4-.123-.74-.308-1.03-.552-.29-.246-.52-.548-.68-.908-.16-.363-.24-.785-.24-1.265 0-.524.1-.978.3-1.36.2-.388.51-.703.91-.957.4-.25.9-.436 1.51-.556.6-.12 1.3-.182 2.09-.182h.87v-.54c0-.282-.03-.53-.09-.74-.06-.21-.15-.39-.28-.53-.13-.14-.31-.242-.52-.31-.22-.066-.49-.1-.81-.1-.42 0-.8.047-1.13.14-.33.092-.62.198-.88.312-.25.113-.47.22-.64.312-.17.093-.31.14-.42.14-.08 0-.14-.022-.2-.067-.06-.05-.11-.12-.14-.21-.04-.09-.07-.2-.09-.32s-.03-.27-.03-.42c0-.21.02-.38.05-.5.03-.12.1-.23.19-.33.1-.1.26-.2.49-.32.23-.12.51-.23.82-.33.32-.11.66-.19 1.03-.25.38-.07.76-.1 1.15-.1.71 0 1.31.07 1.81.2.49.13.91.35 1.23.63.32.28.56.65.7 1.1.15.44.22.98.22 1.59v6.03zm-2.487-3.844h-.97c-.41 0-.76.03-1.04.09-.29.062-.52.15-.71.273-.18.12-.31.26-.4.43-.09.17-.13.36-.13.58 0 .37.12.67.35.88.23.21.56.32.98.32.35 0 .68-.09.97-.27s.6-.45.9-.8v-1.53zm18.07 3.914c0 .056-.02.1-.06.138-.04.034-.11.065-.2.09-.1.023-.23.04-.39.054-.17.014-.37.02-.62.02-.29 0-.52-.007-.7-.02s-.32-.03-.43-.055c-.11-.023-.19-.058-.23-.105-.05-.045-.09-.104-.11-.172l-.84-2.14c-.11-.287-.22-.53-.33-.723-.12-.195-.25-.35-.39-.47-.14-.116-.3-.198-.48-.25-.18-.052-.39-.075-.62-.075H342v3.657c0 .04-.025.09-.07.13-.047.04-.12.08-.22.11s-.23.06-.39.07c-.16.01-.357.02-.58.02-.236 0-.436-.01-.596-.03-.16-.02-.29-.05-.39-.08-.1-.04-.176-.07-.22-.12-.046-.04-.067-.09-.067-.14v-9.08c0-.05.02-.09.07-.14.04-.05.112-.08.212-.11.1-.03.23-.06.39-.07.16-.02.36-.03.59-.03.22 0 .42 0 .58.02.16.02.29.04.39.07.1.03.18.06.22.11.04.04.07.09.07.14v3.48h.51c.21 0 .39-.03.56-.08.16-.06.32-.14.45-.25.14-.12.26-.28.38-.47.11-.2.23-.44.33-.73l.75-1.93c.02-.07.05-.13.1-.18.05-.05.12-.09.21-.12.1-.03.23-.05.4-.07s.39-.02.67-.02c.25 0 .45 0 .61.02.16.01.28.03.37.06.09.03.15.06.19.1.03.04.05.08.05.14 0 .07-.02.15-.04.24-.03.1-.08.22-.14.38l-.72 1.71c-.14.34-.29.63-.44.87-.16.24-.32.43-.48.59-.17.15-.33.28-.5.37-.17.09-.32.17-.48.22v.02c.21.08.4.18.58.28.18.1.36.23.52.39s.33.36.48.6c.15.24.3.52.45.86l.87 2.01c.04.08.07.16.1.22.02.06.04.12.05.17l.03.12v.09zm10.46-4.672c0 .762-.1 1.457-.31 2.088-.21.627-.51 1.17-.92 1.625-.41.46-.92.81-1.54 1.06s-1.34.37-2.16.37c-.8 0-1.49-.11-2.08-.33-.59-.22-1.08-.54-1.47-.96-.39-.42-.68-.94-.87-1.55-.19-.61-.28-1.31-.28-2.1 0-.76.1-1.46.3-2.09.2-.63.51-1.17.92-1.63.41-.45.92-.8 1.53-1.05.61-.24 1.33-.37 2.15-.37.8 0 1.5.11 2.09.33.59.22 1.08.54 1.46.96.38.42.67.94.86 1.56.18.62.28 1.32.28 2.12zm-2.6.1c0-.442-.04-.85-.11-1.22-.07-.374-.19-.696-.36-.97-.17-.275-.39-.49-.67-.646-.28-.154-.63-.23-1.06-.23-.38 0-.71.07-.99.207-.28.13-.52.33-.7.6-.18.26-.32.58-.41.95-.1.37-.14.79-.14 1.27 0 .44.04.85.11 1.22s.19.69.36.97c.16.27.38.48.67.64.28.15.63.22 1.05.22.38 0 .71-.07 1-.21.28-.14.51-.34.69-.6.18-.27.31-.58.4-.95.08-.38.13-.8.13-1.28zm13.28 4.472c0 .066-.02.124-.07.176-.04.05-.11.093-.2.127-.1.03-.23.058-.39.075-.17.017-.37.024-.61.024-.25 0-.46-.008-.62-.024-.17-.018-.3-.045-.39-.075-.1-.034-.16-.076-.2-.127-.04-.052-.06-.11-.06-.175v-3.52h-3.62v3.53c0 .07-.02.13-.07.18-.04.05-.11.1-.21.13-.1.03-.23.06-.39.08-.16.02-.37.03-.62.03s-.45 0-.62-.02c-.16-.01-.29-.04-.39-.07-.1-.03-.17-.08-.21-.13-.04-.05-.07-.11-.07-.17v-8.96c0-.06.02-.12.06-.17.04-.05.1-.09.2-.13.09-.03.23-.06.38-.07.16-.02.36-.02.61-.02s.45.01.61.02c.15.02.28.05.38.08.1.04.17.08.2.13.04.06.06.11.06.18v3.37h3.62v-3.36c0-.06.02-.12.06-.17.04-.05.11-.09.2-.12.1-.03.23-.06.39-.08.17-.01.37-.02.62-.02.24 0 .44 0 .6.02.17.02.3.05.39.08.1.03.16.08.2.13.04.05.06.11.06.17v8.97zm9.3-1.43c0 .176-.01.32-.02.44-.01.116-.03.215-.04.298-.02.078-.04.144-.07.195-.03.052-.08.113-.16.192-.08.075-.22.17-.41.28-.2.11-.42.21-.67.3-.25.084-.51.156-.81.208-.29.055-.6.082-.9.082-.69 0-1.3-.106-1.84-.322-.53-.213-.98-.53-1.34-.95-.36-.418-.64-.932-.82-1.535-.19-.604-.28-1.292-.28-2.07 0-.898.11-1.676.33-2.327.23-.65.54-1.19.94-1.62.4-.43.87-.74 1.42-.95.54-.21 1.15-.31 1.81-.31.26 0 .52.03.78.08.25.05.49.11.72.19.22.08.43.17.6.27.18.11.31.19.38.27.07.07.12.14.16.19.02.06.05.12.06.2.02.08.03.18.04.3.01.12.02.26.02.43 0 .39-.03.67-.1.83-.07.16-.16.24-.26.24-.11 0-.24-.05-.36-.14s-.28-.2-.45-.31c-.17-.11-.38-.22-.62-.31s-.53-.14-.86-.14c-.66 0-1.16.25-1.51.76-.35.51-.52 1.25-.52 2.23 0 .48.04.91.13 1.28.09.36.21.67.38.92s.38.43.64.56c.26.12.56.18.9.18s.64-.06.89-.16c.25-.11.47-.22.66-.35.19-.12.35-.24.48-.34.12-.11.23-.16.32-.16.06 0 .11.02.15.05s.07.1.09.19c.03.09.04.21.06.35s.02.32.02.55zm9.47 1.46c0 .094-.04.166-.1.22-.07.056-.18.094-.32.117-.15.024-.36.035-.65.035-.3 0-.52-.01-.66-.035-.14-.023-.24-.062-.29-.116-.06-.05-.09-.12-.09-.22V146c-.37.395-.79.7-1.26.92-.47.22-1 .328-1.57.328-.48 0-.92-.062-1.31-.186-.4-.123-.74-.308-1.03-.552-.29-.246-.52-.548-.68-.908-.16-.363-.24-.785-.24-1.265 0-.524.1-.978.3-1.36.2-.388.51-.703.91-.957.4-.25.9-.436 1.51-.556.6-.12 1.3-.182 2.09-.182h.87v-.54c0-.282-.03-.53-.09-.74-.05-.21-.15-.39-.28-.53s-.3-.242-.52-.31c-.22-.066-.49-.1-.81-.1-.42 0-.8.047-1.13.14-.33.092-.63.198-.88.312-.25.113-.47.22-.64.312-.17.093-.31.14-.42.14-.08 0-.14-.022-.2-.067-.06-.05-.11-.12-.14-.21-.04-.09-.07-.2-.09-.32s-.03-.27-.03-.42c0-.21.02-.38.05-.5.03-.12.1-.23.19-.33.1-.1.26-.2.49-.32.23-.12.5-.23.82-.33.31-.11.66-.19 1.03-.25.37-.07.75-.1 1.15-.1.7 0 1.3.07 1.8.2.49.13.9.35 1.22.63.32.28.56.65.7 1.1.15.44.22.98.22 1.59v6.03zm-2.49-3.844h-.96c-.41 0-.76.03-1.05.09-.29.062-.52.15-.7.273-.19.12-.32.26-.4.43-.09.17-.13.36-.13.58 0 .37.12.67.35.88.23.21.56.32.99.32.35 0 .68-.09.97-.27.3-.19.6-.45.91-.8v-1.53zm13.3 3.814c0 .066-.02.124-.06.176-.04.05-.11.093-.2.127-.1.03-.23.058-.39.075-.17.017-.37.024-.61.024-.25 0-.46-.008-.62-.024-.17-.018-.3-.045-.4-.075-.1-.034-.17-.076-.21-.127-.04-.052-.06-.11-.06-.175v-7.25h-1.81c-.11 1.06-.24 1.98-.4 2.77-.16.8-.34 1.48-.55 2.06-.21.58-.44 1.06-.69 1.44-.25.38-.53.68-.83.9-.3.23-.63.38-.98.48-.35.1-.72.14-1.11.14-.09 0-.17-.01-.23-.04-.06-.02-.11-.08-.14-.15-.03-.08-.06-.19-.07-.33-.01-.15-.02-.34-.02-.59 0-.24 0-.45.01-.6.01-.15.03-.27.06-.35.02-.08.06-.13.11-.16s.1-.04.17-.04c.19 0 .37-.04.54-.11.17-.07.33-.21.48-.41.15-.2.29-.46.43-.78.13-.32.26-.73.37-1.23.11-.49.22-1.09.32-1.77.1-.69.2-1.49.29-2.4.01-.27.07-.47.17-.61.1-.13.27-.2.51-.2h5.18c.23 0 .41.07.52.2s.17.34.17.61v8.47zm9.17-8.195c0 .22-.01.404-.03.552-.02.145-.05.264-.08.35-.04.086-.08.147-.13.18s-.11.05-.17.05h-2.26v7.065c0 .065-.02.123-.07.175-.04.05-.11.093-.2.127-.1.03-.23.058-.39.075-.17.01-.37.02-.62.02-.24 0-.44-.01-.61-.03-.16-.02-.29-.05-.39-.08-.1-.04-.17-.08-.2-.13-.04-.05-.06-.11-.06-.18v-7.06h-2.25c-.07 0-.13-.02-.17-.06-.05-.04-.09-.1-.13-.19s-.06-.21-.07-.36c-.02-.15-.03-.34-.03-.56 0-.2.01-.37.03-.51.02-.14.04-.25.08-.34.03-.09.07-.15.12-.19.04-.04.1-.06.17-.06h7.02c.05 0 .11.02.16.05s.09.1.12.18c.03.08.06.2.07.35.02.14.02.32.02.52zm10.3 8.225c0 .066-.02.125-.06.17-.04.047-.11.085-.2.116-.1.03-.23.05-.38.064-.16.014-.36.02-.6.02s-.45-.007-.61-.02c-.17-.014-.3-.034-.4-.064-.11-.03-.18-.07-.23-.117-.05-.05-.07-.11-.07-.17v-4c0-.29 0-.58.02-.88.02-.3.04-.6.07-.89-.16.28-.34.56-.52.83-.19.27-.38.54-.58.81l-3.03 4.11c-.06.07-.12.13-.17.18-.05.05-.12.09-.21.12-.08.03-.19.05-.32.06-.13.01-.29.01-.49.01-.24 0-.43-.01-.58-.02-.15-.02-.27-.04-.36-.07-.09-.03-.15-.07-.19-.12-.04-.05-.06-.11-.06-.18v-9c0-.06.01-.11.05-.16.03-.05.1-.1.2-.13s.22-.06.38-.08c.15-.02.35-.03.59-.03.48 0 .81.03 1 .1.19.07.29.16.29.29v3.98c0 .28-.01.56-.03.86-.02.29-.05.58-.08.85.16-.27.32-.54.49-.8.17-.26.35-.52.53-.77l3.05-4.13c.06-.07.11-.13.17-.18.07-.05.14-.09.23-.12s.2-.05.33-.06c.13-.02.3-.02.51-.02.24 0 .43 0 .59.02.15.01.27.04.36.07.09.03.15.08.19.13.03.05.05.11.05.18v8.99zm11.2-.03c0 .066-.02.124-.06.176-.04.05-.11.093-.2.127-.1.03-.23.058-.39.075-.17.017-.37.024-.61.024-.25 0-.46-.008-.62-.024-.17-.018-.3-.045-.4-.075-.09-.034-.16-.076-.2-.127-.04-.052-.06-.11-.06-.175v-3.52h-3.62v3.53c0 .07-.02.13-.06.18-.04.05-.11.1-.21.13-.1.03-.23.06-.39.08-.16.02-.37.03-.61.03s-.45 0-.62-.02c-.16-.01-.29-.04-.39-.07-.1-.03-.17-.08-.21-.13-.04-.05-.06-.11-.06-.17v-8.96c0-.06.02-.12.06-.17.03-.05.1-.09.2-.13.09-.03.22-.06.38-.07.16-.02.37-.02.61-.02s.45.01.61.02c.15.02.28.05.38.08.1.04.17.08.2.13.04.06.06.11.06.18v3.37h3.62v-3.36c0-.06.02-.12.06-.17.04-.05.1-.09.2-.12.09-.03.22-.06.39-.08.16-.01.37-.02.62-.02.24 0 .44 0 .61.02.16.02.3.05.39.08.09.03.16.08.2.13.04.05.06.11.06.17v8.97zm8.37-8.195c0 .206-.01.38-.03.524s-.05.26-.08.34c-.04.08-.08.14-.12.18-.05.04-.11.05-.17.05h-2.91v7.08c0 .06-.02.12-.07.17-.04.05-.11.09-.21.12-.1.03-.23.05-.39.07-.16.01-.37.02-.61.02-.25 0-.46-.01-.62-.03-.16-.02-.29-.05-.39-.08-.1-.03-.17-.08-.21-.13-.04-.06-.06-.11-.06-.18v-8.5c0-.27.06-.47.17-.61.11-.14.29-.21.53-.21h4.73c.06 0 .12.02.17.05.04.04.08.1.12.19.03.08.06.2.08.34.02.14.03.32.03.52zm-221.98 3.623c0 .762-.1 1.457-.3 2.088-.21.627-.51 1.17-.92 1.625-.41.46-.92.81-1.54 1.06s-1.34.37-2.16.37c-.8 0-1.49-.11-2.08-.33-.59-.22-1.08-.54-1.47-.96-.39-.42-.68-.94-.87-1.55-.19-.61-.28-1.31-.28-2.1 0-.76.1-1.46.3-2.09.2-.63.51-1.17.92-1.63.41-.45.92-.8 1.53-1.05.61-.24 1.33-.37 2.15-.37.8 0 1.5.11 2.09.33.59.22 1.07.54 1.46.96.39.42.67.94.86 1.56.19.62.28 1.32.28 2.12zm-2.59.1c0-.442-.04-.85-.11-1.22-.07-.374-.19-.696-.36-.97-.17-.275-.39-.49-.67-.646-.28-.154-.63-.23-1.06-.23-.38 0-.71.07-.99.207-.28.13-.52.33-.7.6-.18.26-.32.58-.41.95-.09.37-.14.79-.14 1.27 0 .44.04.85.11 1.22.08.37.2.69.36.97.16.27.39.48.67.64.28.15.63.22 1.05.22.38 0 .72-.07 1-.21.28-.14.51-.34.7-.6.18-.27.31-.58.4-.95.08-.38.13-.8.13-1.28zm11.36 3.042c0 .176-.01.32-.02.44-.01.116-.03.215-.04.298-.02.078-.04.144-.07.195-.02.052-.08.113-.16.192-.08.075-.22.17-.41.28-.2.11-.42.21-.67.3-.25.084-.51.156-.8.208-.29.055-.6.082-.9.082-.69 0-1.3-.106-1.83-.322-.54-.213-.98-.53-1.35-.95-.36-.418-.64-.932-.82-1.535-.19-.604-.28-1.292-.28-2.07 0-.898.11-1.676.33-2.327.23-.65.54-1.19.94-1.62.4-.43.88-.74 1.42-.95.55-.21 1.15-.31 1.81-.31.27 0 .53.03.79.08.25.05.49.11.72.19.22.08.42.17.6.27.18.11.3.19.38.27.07.07.13.14.16.19.02.06.05.12.06.2.02.08.03.18.04.3.01.12.01.26.01.43 0 .39-.03.67-.1.83-.07.16-.15.24-.26.24-.11 0-.23-.05-.36-.14s-.28-.2-.45-.31c-.17-.11-.38-.22-.62-.31s-.53-.14-.87-.14c-.65 0-1.16.25-1.51.76-.34.51-.52 1.25-.52 2.23 0 .48.05.91.13 1.28.09.36.22.67.39.92s.38.43.64.56c.26.12.56.18.9.18.35 0 .65-.06.9-.16.25-.11.47-.22.66-.35.19-.12.34-.24.47-.34.13-.11.23-.16.32-.16.06 0 .11.02.15.05s.07.1.1.19c.02.09.04.21.05.35s.02.32.02.55zm10.13 1.43c0 .066-.02.124-.07.176-.04.05-.11.093-.2.127-.1.03-.23.058-.39.075-.17.017-.37.024-.61.024-.25 0-.46-.008-.62-.024-.17-.018-.3-.045-.4-.075-.1-.034-.17-.076-.2-.127-.04-.052-.06-.11-.06-.175v-7.25h-1.81c-.11 1.06-.24 1.98-.4 2.77-.16.8-.34 1.48-.55 2.06-.21.58-.44 1.06-.69 1.44-.25.38-.53.68-.83.9-.3.23-.63.38-.98.48-.35.1-.73.14-1.11.14-.09 0-.17-.01-.23-.04-.06-.02-.11-.08-.15-.15-.03-.08-.06-.19-.07-.33-.01-.15-.02-.34-.02-.59 0-.24 0-.45.01-.6.01-.15.03-.27.06-.35.02-.08.06-.13.11-.16.04-.02.1-.04.17-.04.19 0 .37-.04.54-.11.17-.07.33-.21.48-.41.15-.2.29-.46.43-.78s.26-.73.37-1.23c.11-.49.22-1.09.32-1.77.1-.69.2-1.49.29-2.4.01-.27.07-.47.17-.61.1-.13.27-.2.5-.2h5.19c.23 0 .41.07.52.2.11.14.17.34.17.61v8.47zm8.74 3.27c0 .06-.02.11-.05.155-.03.045-.1.08-.18.11-.09.03-.2.055-.34.07-.14.02-.31.025-.52.025-.22 0-.39-.007-.53-.024-.15-.017-.26-.04-.34-.07-.09-.032-.15-.066-.18-.11-.04-.045-.05-.097-.05-.158v-4.49c0-.203.03-.34.1-.408.06-.072.19-.106.39-.106h.49c.21-.28.41-.6.6-.953.18-.35.36-.79.52-1.31.16-.53.31-1.15.45-1.89.13-.73.26-1.61.38-2.63.01-.12.03-.22.06-.32.03-.09.07-.17.12-.24.05-.06.12-.12.2-.15.08-.03.18-.05.3-.05h5.55c.24 0 .42.07.53.21.11.14.17.34.17.61v6.76h1.02c.18 0 .3.04.38.11.08.07.11.21.11.41v4.49c0 .07-.02.12-.06.16-.03.05-.09.08-.18.11s-.21.06-.35.07c-.14.02-.32.03-.53.03-.21 0-.39 0-.53-.02-.14-.01-.26-.04-.34-.07-.09-.03-.15-.06-.18-.11-.04-.04-.05-.09-.05-.15v-2.93h-7.04V150zm5.16-10.56h-2.14c-.12.843-.24 1.566-.37 2.173-.14.606-.28 1.128-.42 1.563-.15.435-.31.792-.47 1.072-.17.28-.33.528-.49.744h3.89v-5.552zm19.06 7.39c0 .056-.02.1-.06.138-.04.034-.1.065-.2.09-.1.023-.23.04-.39.054s-.37.02-.63.02c-.28 0-.51-.007-.7-.02-.18-.014-.32-.034-.42-.058-.11-.027-.18-.065-.23-.113-.05-.04-.08-.1-.11-.16l-.83-2.11c-.11-.29-.23-.54-.34-.74-.11-.2-.24-.35-.38-.47-.14-.11-.29-.2-.46-.25-.17-.05-.38-.07-.61-.07h-.51v3.7c0 .06-.02.1-.07.15-.04.04-.11.07-.21.1-.1.03-.23.04-.39.06-.16.01-.36.02-.58.02-.23 0-.43-.01-.59-.02s-.29-.03-.4-.05c-.1-.02-.18-.05-.22-.09-.05-.04-.07-.09-.07-.14v-3.7h-.5c-.24 0-.45.02-.62.07-.17.05-.33.14-.47.25-.14.12-.27.28-.39.48-.12.2-.23.45-.35.74l-.82 2.12c-.03.06-.07.12-.11.16-.05.05-.12.09-.22.11-.1.03-.24.05-.42.06-.18.02-.4.02-.69.02-.24 0-.45 0-.61-.02-.16-.01-.29-.03-.39-.05-.1-.02-.16-.05-.2-.09-.04-.03-.06-.08-.06-.13s.01-.12.04-.21c.02-.09.07-.22.15-.4l.86-1.97c.142-.34.3-.63.45-.86.15-.23.31-.43.47-.6.163-.16.34-.29.52-.4.18-.11.375-.21.585-.29v-.02c-.16-.05-.32-.12-.48-.21-.16-.1-.32-.22-.48-.37-.16-.15-.32-.35-.47-.58-.15-.23-.3-.52-.44-.87l-.71-1.74c-.07-.16-.11-.29-.14-.38-.03-.09-.04-.17-.04-.24 0-.05.02-.1.05-.13.03-.03.09-.07.19-.1.09-.02.21-.04.37-.05s.36-.02.6-.02c.28 0 .51.01.68.02.18.02.31.04.42.07.1.03.17.07.21.12.04.05.08.11.11.18l.71 1.96c.1.28.21.52.32.71.11.19.22.34.35.46.13.117.28.2.44.25.16.05.34.077.55.077h.5v-3.52c0-.05.02-.1.065-.134.05-.04.12-.07.22-.09.1-.03.23-.04.39-.06s.36-.02.59-.02c.23 0 .42 0 .58.02.16.01.28.03.39.05.1.03.17.06.21.09.047.04.067.08.067.14v3.524h.513c.2 0 .383-.03.55-.08.17-.058.32-.14.45-.26s.26-.27.37-.455c.11-.19.22-.42.33-.69l.75-1.955c.03-.06.06-.12.1-.173.04-.05.11-.09.2-.12.093-.03.23-.05.4-.06.17-.02.39-.02.663-.02.25 0 .45 0 .6.02.15.01.27.03.37.06.09.03.15.06.19.1.03.03.05.08.05.13 0 .07-.017.15-.04.24-.03.1-.07.22-.14.384l-.74 1.74c-.14.34-.29.63-.44.86-.15.24-.3.43-.45.58-.15.15-.307.27-.46.36-.15.09-.31.16-.47.22v.02c.21.09.4.18.58.29.18.11.35.247.506.41.16.16.31.365.46.6.15.24.292.53.44.87l.85 1.97c.04.086.072.16.1.23.024.07.05.12.06.17.013.05.022.09.03.13.003.03.003.06.003.09zm9.69-4.84c0 .31-.07.535-.21.683s-.33.223-.57.223h-5.46c0 .38.04.724.14 1.035.09.31.23.58.43.79.19.22.45.38.76.5s.68.17 1.11.17c.44 0 .83-.03 1.16-.09.33-.06.62-.13.86-.21.24-.08.44-.14.6-.21.16-.06.29-.09.39-.09.06 0 .11.01.15.04.04.03.08.07.1.13.02.06.05.15.06.26.01.11.01.25.01.42 0 .15 0 .28-.01.38s-.02.19-.03.27c-.01.07-.03.14-.06.18-.03.05-.06.1-.1.15-.04.05-.16.11-.36.19-.2.09-.44.17-.75.24s-.64.15-1.03.21-.8.09-1.24.09c-.8 0-1.49-.1-2.09-.3-.6-.19-1.1-.5-1.5-.91-.4-.41-.7-.92-.9-1.54-.19-.63-.29-1.36-.29-2.19 0-.8.1-1.51.31-2.15.2-.64.5-1.18.9-1.62.39-.45.87-.79 1.44-1.02.56-.24 1.2-.35 1.91-.35.75 0 1.39.11 1.93.34.53.22.97.53 1.31.92.34.39.59.86.75 1.39.16.54.24 1.12.24 1.75v.4h-.01zm-2.45-.72c.02-.71-.13-1.27-.43-1.673-.31-.407-.78-.61-1.41-.61-.33 0-.61.063-.84.182-.24.12-.44.28-.6.48-.16.2-.28.44-.36.72-.09.28-.14.57-.15.89h3.78zm13.21 5.46c0 .066-.02.124-.06.176-.04.05-.11.093-.2.127-.1.03-.23.058-.4.075-.16.017-.37.024-.61.024-.25 0-.46-.008-.62-.024-.17-.018-.3-.045-.39-.075-.1-.034-.16-.076-.2-.127-.04-.052-.06-.11-.06-.175v-3.52h-3.62v3.53c0 .07-.02.13-.07.18-.04.05-.11.1-.21.13-.1.03-.23.06-.39.08-.16.02-.37.03-.62.03s-.46 0-.62-.02c-.16-.01-.29-.04-.39-.07-.1-.03-.17-.08-.21-.13-.04-.05-.06-.11-.06-.17v-8.96c0-.06.02-.12.06-.17.04-.05.11-.09.21-.13.09-.03.22-.06.38-.07.16-.02.37-.02.61-.02.25 0 .45.01.61.02.16.02.29.05.38.08.1.04.17.08.2.13.04.06.06.11.06.18v3.37h3.62v-3.36c0-.06.02-.12.06-.17.04-.05.1-.09.2-.12.09-.03.22-.06.39-.08.16-.01.37-.02.62-.02.24 0 .44 0 .6.02.16.02.3.05.39.08.09.03.16.08.2.13.04.05.06.11.06.17v8.97zm11.22 0c0 .066-.02.124-.06.176-.04.05-.11.093-.2.127-.1.03-.23.058-.39.075-.17.017-.37.024-.61.024-.25 0-.46-.008-.62-.024-.17-.018-.3-.045-.39-.075-.1-.034-.17-.076-.2-.127-.04-.052-.07-.11-.07-.175v-3.52h-3.62v3.53c0 .07-.02.13-.07.18-.04.05-.11.1-.21.13-.1.03-.23.06-.39.08-.16.02-.37.03-.62.03s-.45 0-.61-.02c-.16-.01-.29-.04-.39-.07-.1-.03-.17-.08-.2-.13-.04-.05-.06-.11-.06-.17v-8.96c0-.06.02-.12.06-.17.04-.05.1-.09.2-.13.09-.03.23-.06.38-.07.16-.02.37-.02.61-.02s.45.01.61.02c.15.02.28.05.38.08.1.04.17.08.2.13.04.06.06.11.06.18v3.37h3.62v-3.36c0-.06.02-.12.06-.17.04-.05.1-.09.2-.12.09-.03.22-.06.39-.08.16-.01.37-.02.62-.02.24 0 .44 0 .61.02.16.02.29.05.39.08.09.03.16.08.2.13.04.05.06.11.06.17v8.97zm10.23 0c0 .073-.02.135-.05.186-.03.052-.09.093-.18.127-.09.03-.22.055-.39.068-.17.02-.38.03-.65.03-.25 0-.45-.01-.61-.02s-.3-.04-.39-.07c-.1-.03-.17-.07-.21-.12-.04-.05-.06-.11-.06-.18v-3.39h-.66c-.31 0-.55.03-.73.09-.18.06-.35.16-.5.29-.15.14-.29.32-.42.54s-.26.51-.38.85l-.59 1.54c-.04.11-.09.19-.15.25-.06.07-.14.12-.25.15-.11.03-.26.06-.43.07-.17.02-.4.02-.66.02-.24 0-.44 0-.6-.01s-.29-.02-.4-.04c-.1-.02-.17-.05-.22-.09-.05-.04-.07-.09-.07-.17 0-.07.02-.18.07-.31s.14-.36.28-.67l.61-1.41c.18-.41.4-.76.66-1.05.26-.28.56-.49.89-.62-.63-.15-1.13-.42-1.49-.82-.37-.4-.55-.92-.55-1.56 0-.47.1-.9.28-1.28.19-.37.47-.7.85-.96s.85-.46 1.41-.6c.56-.14 1.21-.21 1.95-.21.21 0 .44.01.69.01l.76.03.77.05c.25.01.47.03.67.05.22.01.38.09.49.23.1.14.16.32.16.54v8.53zm-2.51-7.61c-.19-.033-.38-.057-.58-.07-.2-.014-.38-.02-.56-.02-.36 0-.65.033-.88.098-.24.07-.43.165-.58.285-.15.12-.25.264-.31.432-.07.168-.1.35-.1.545 0 .21.03.397.11.563.07.164.18.302.33.41.14.114.34.196.56.255.22.058.53.085.92.085h1.07v-2.582zm-67.41 7.95h-2.35v-9.59h2.35v9.59zm0-10.787h-2.35v-2.468h2.35v2.468z" clip-rule="evenodd"/><g fill-rule="evenodd" clip-rule="evenodd"><path fill="#FFC742" d="M0 147.79c73.806-11.996 105.68-13.69 177.8 0-7.138-6.038-12.998-13.38-19.686-22.28-48.96 9.542-77.606 5.078-125.43-.9 8.326-22.65 46.464-64.285 65.646-70.88-5.61-7.858-13.41-16.93-22.116-21.47C62.236 75.897 9.77 137.23 0 147.79z"/><path fill="#ABABAC" d="M88.52 0l-10.6 29.324c28.015 16.342 51.738 68.724 60.193 88.096-21.957 5.57-43.662 9.91-71.044 8.19 18.04 4.383 71.8 1.885 88.96-3.562C142.27 100.055 131.93 93.133 88.52 0z"/></g><path fill="#FFE09E" fill-rule="evenodd" d="M80.33 121.573l-3.814 1.65 3.813-1.65z" clip-rule="evenodd"/><path fill-rule="evenodd" d="M193.538 44.913h10.79v53.47h-10.79zm34.112 17.05c2.992-2.13 6.253-3.195 9.77-3.195 9.964 0 14.938 4.922 14.938 14.782v24.834h-10.49V73.84c0-2.406-.42-4.12-1.247-5.144-.84-1.037-2.22-1.55-4.16-1.55-2.82 0-5.75 1.564-8.8 4.703v26.53h-10.34V59.69h10.34v2.268zm92.815 36.42h-10.52V64.107l-12.55 34.278h-9.12l-12.415-34.28v34.28h-10.518v-53.47h14.082l13.48 38.12 13.51-38.122h14.05m23.28 53.47H333.45v-38.69h10.293v38.69zm0-43.514H333.45v-9.96h10.293v9.95zm22.24 7.09c2.99-2.13 6.25-3.2 9.77-3.2 9.963 0 14.937 4.92 14.937 14.78v24.84H380.2V73.84c0-2.406-.42-4.12-1.246-5.144-.842-1.037-2.224-1.55-4.163-1.55-2.82 0-5.75 1.564-8.8 4.703v26.53h-10.34V59.69h10.34v2.268zm61.286 8.35c-2.675-2.3-5.516-3.45-8.536-3.45-2.404 0-4.328 1.02-5.77 3.07-1.444 2.07-2.164 5.17-2.164 9.33 0 3.94.672 6.91 2.025 8.89 1.352 1.99 3.23 2.98 5.635 2.98 3.08 0 6.027-1.71 8.808-5.08V70.31zm0 26.04c-1.413.95-2.886 1.68-4.418 2.2-1.548.51-3.187.76-4.915.76-2.87 0-5.425-.47-7.634-1.44-2.225-.96-4.072-2.31-5.575-4.07-1.503-1.76-2.63-3.88-3.41-6.35-.782-2.46-1.174-5.2-1.174-8.2 0-3.18.466-6.04 1.397-8.56.92-2.53 2.2-4.68 3.84-6.45 1.63-1.77 3.55-3.13 5.76-4.08 2.23-.94 4.6-1.41 7.16-1.41 1.69 0 3.26.16 4.77.52 1.49.34 2.9.86 4.23 1.53V44.9h10.31v53.47H427.3v-2.03z" clip-rule="evenodd"/></svg>