<svg xmlns="http://www.w3.org/2000/svg" xmlns:xlink="http://www.w3.org/1999/xlink" width="649.887" height="100.701" viewBox="0 0 649.887 100.701"><defs><path id="a" d="M0 0h649.887v100.7H0z"/></defs><clipPath id="b"><use overflow="visible" xlink:href="#a"/></clipPath><path fill="#0076A1" d="M0 5.992v3.082h11.766V94.66H0v3.08h46.224c12.887 0 19.33-1.962 22.972-3.642 11.906-5.463 13.587-17.09 13.587-21.712 0-8.824-4.903-17.37-13.587-22.132-7.144-3.92-18.63-5.603-25.774-5.603H33.337V9.08h14.288c8.964 0 14.147.98 18.35 7.144 2.94 4.34 5.042 11.206 5.882 17.51h3.922L74.66 5.99H0zM33.337 94.66V47.732h7.144c3.09 0 10.93.28 14.85 5.604 1.96 2.66 2.94 7.424 2.94 11.486V76.73c0 2.8-.42 8.123-2.38 11.484-3.64 6.164-10.92 6.444-14.71 6.444h-7.84zm66.38-89.088c5.462 0 9.805 4.342 9.805 9.805s-4.343 9.805-9.806 9.805c-5.462 0-9.805-4.342-9.805-9.805s4.35-9.805 9.81-9.805m10.37 89.366h6.87v2.802H83.61v-2.802h6.864V39.33H83.47v-2.803h14.847c5.042 0 8.404-.56 11.766-1.96v60.37zm25.63-32.216c6.59 0 8.83-1.54 9.53-1.96 2.52-1.962 2.66-4.904 2.66-6.585v-4.622c0-6.163-.98-8.404-1.82-9.524-1.82-2.52-4.76-2.66-6.16-2.66-3.36 0-6.3.84-9.66 4.9-4.06 4.77-6.02 11.49-7.14 16.95h-1.96V34.85h3.08c.42.98 1.27 2.24 3.23 2.24 1.4 0 2.94-.56 5.47-1.26 3.64-.98 6.31-1.26 10.51-1.26 3.92 0 8.54.28 13.59 1.96 9.95 3.362 11.07 9.386 11.07 12.187 0 2.662-1.12 7.705-7.98 11.067-3.92 1.963-9.8 3.223-13.45 3.924v.7c6.31.7 13.45 2.94 17.65 6.162 4.62 3.643 5.89 7.984 5.89 11.066 0 4.343-2.38 8.405-5.6 11.207-6.3 5.463-17.65 6.863-23.67 6.863-3.08 0-10.92-.28-16.95-4.202-5.46-3.642-7.14-8.403-7.14-11.905 0-2.24.7-4.91 1.96-6.73 1.54-2.24 4.21-3.64 7.15-3.64 3.64 0 9.11 2.24 9.11 8.4 0 4.06-2.52 5.74-4.34 7.28-.84.7-1.82 1.54-1.82 2.8 0 2.1 1.96 3.36 2.8 3.78 2.1 1.12 4.2 1.4 6.3 1.4 2.804 0 6.026-.42 8.407-3.36 1.96-2.25 2.1-4.63 2.1-6.45v-7.43c0-4.21-.28-9.25-3.08-11.77-2.24-1.96-7.705-2.38-10.226-2.38h-2.1v-2.8h2.66z" clip-path="url(#b)"/><path fill="#0076A1" d="M204.77 36.528v2.8h-5.883v24.514h19.47V39.33h-5.883v-2.802h32.357v2.8h-6.86v55.61h6.87v2.802h-32.36v-2.8h5.88V66.503h-19.47V94.94h5.89v2.8h-32.36v-2.8h6.87V39.33h-6.86v-2.802"/><defs><path id="c" d="M0 0h649.887v100.7H0z"/></defs><clipPath id="d"><use overflow="visible" xlink:href="#c"/></clipPath><path fill="#0076A1" d="M303.1 81.91c-2.24 3.644-5.182 6.865-7.983 9.388-3.502 3.08-7.984 5.602-14.007 5.602-5.743 0-9.105-3.08-10.786-6.583-1.68-3.222-1.96-7.284-1.96-12.747V64.822h38.1c-.14-6.863-2.382-14.146-6.724-19.61-5.183-6.583-13.167-10.645-21.572-10.645-6.443 0-14.287 1.96-21.15 8.684-6.024 5.89-10.226 14.15-10.226 23.68 0 12.61 7.003 20.45 10.225 23.53 6.023 5.75 14.568 9.25 23.673 9.25 7.423 0 12.186-2.52 16.528-6.44 2.942-2.66 5.883-6.16 8.125-9.8l-2.242-1.54zm-34.737-19.75v-9.103c0-7.845.28-15.688 8.685-15.688 2.94 0 7.143 1.12 8.964 7.56.84 2.94.98 8.82.98 10.64v6.58h-18.63zm98.362 17.79c-.98 2.802-4.063 9.945-9.105 14.43-4.903 4.34-9.945 5.32-15.408 5.32-7.004 0-15.408-1.4-23.252-8.543-6.024-5.464-10.506-13.447-10.506-23.533 0-8.964 3.782-17.65 9.665-23.393 9.66-9.66 21.85-9.66 22.97-9.66 8.12 0 13.59 3.5 16.67 6.31 3.78 3.36 6.16 7.43 6.16 12.19 0 6.59-4.2 10.79-9.95 10.79-4.9 0-8.83-3.64-8.83-8.82 0-3.5 1.4-5.46 2.8-7.14.84-.98 2.1-2.38 2.1-4.76 0-3.36-2.66-6.44-8.55-6.44-7.01 0-9.53 4.91-10.23 6.73-.56 1.54-1.27 4.2-1.27 10.79V76.2c0 7.42.7 10.923 1.96 13.444 1.12 2.52 4.62 7.426 12.05 7.426 5.88 0 10.64-3.223 13.73-6.724.7-.84 3.36-4.06 6.44-11.343l2.52.98z" clip-path="url(#d)"/><path fill="#0076A1" d="M363.74 5.992v2.802h10.786V94.94H363.74v2.8h37.262v-2.8h-10.787V61.32h13.728c11.206 0 21.992-2.24 28.575-8.544 2.66-2.52 7.424-8.545 7.424-18.91 0-3.922-.7-12.466-8.264-19.47-7.425-6.864-17.93-8.404-27.596-8.404h-40.34zm26.475 52.528V8.794h9.666c5.19 0 11.35.42 16.25 4.342 6.17 4.902 6.17 12.047 6.17 15.97V39.33c0 5.184-1.96 12.327-7.98 15.97-4.48 2.66-12.04 3.22-14.42 3.22h-9.66zm99.57 22.55c-1.26 1.822-4.343 6.024-7.705 9.106-4.763 4.342-10.226 6.583-14.708 6.583-4.762 0-8.684-2.25-11.205-5.61-2.94-4.06-3.783-9.95-3.783-16.95v-9.52h39.222c-.14-6.59-2.24-13.59-6.163-18.63-4.623-6.02-11.907-9.53-19.892-9.53-7 0-14.84 2.66-21.15 10.08-4.76 5.74-7.7 13.58-7.7 21.85 0 7.28 2.66 15.68 7.57 21.29 5.33 6.02 13.87 9.52 21.99 9.52 5.47 0 11.63-1.54 17.23-6.31 2.81-2.38 6.45-6.72 8.69-10.37l-2.38-1.54zm-37.4-18.768v-8.824c0-2.242.14-5.043 1.68-8.125 2.103-4.063 5.744-6.443 11.066-6.443 5.47 0 8.97 2.38 10.65 7.564 1.26 3.922 1.4 11.766 1.26 15.828h-24.65zm63.03 2.66V40.45h7.425c2.102 0 5.463.28 7.564 1.4 3.642 1.96 4.202 5.184 4.202 9.525v4.622c0 2.242-.7 8.965-10.365 8.965h-8.82zm-22.55-26.893v2.38h8.824v54.9h-8.83v2.38h39.78c4.34 0 9.24-1.54 12.74-3.65 6.58-4.07 7.7-9.25 7.7-12.61 0-6.87-4.48-9.95-8.55-11.91-5.47-2.52-10.65-3.22-13.03-3.36v-.56c3.92-.42 8.12-1.54 11.34-3.37 5.6-3.22 7-7.28 7-10.65 0-4.48-2.24-9.11-9.53-11.63-2.24-.7-6.73-1.96-14.71-1.96h-32.78zm22.55 57.28V67.2h10.787c4.342 0 6.723 1.68 7.704 2.52 3.08 2.66 3.5 6.864 3.5 11.907 0 4.905-.28 8.407-3.08 11.07-2.38 2.38-5.462 2.66-8.404 2.66h-10.506zm39.222-57.29v2.38h8.825v54.91h-8.825v2.38h31.377v-2.38h-8.824V67.9h12.467c.14 8.264 1.68 14.847 7.563 21.29 6.584 7.285 15.128 10.086 22.413 10.086 8.685 0 16.948-3.92 22.41-10.09 4.343-4.902 7.845-12.187 7.845-21.29 0-10.646-4.622-17.65-7.983-21.433-5.323-6.02-13.448-9.944-22.27-9.944-7.426 0-15.69 2.8-22.273 9.94-5.183 5.74-7.144 11.07-7.703 19.05h-12.47V40.45h8.82v-2.38h-31.38zm50.707 19.61c.28-3.79.84-8.69 3.5-12.61 2.384-3.5 6.445-6.03 11.068-6.03 5.743 0 9.104 3.36 10.925 6.02 4.202 6.16 3.502 14.43 3.502 22.69 0 10.36.28 17.93-3.37 23.25-3.36 4.9-7.85 5.74-11.07 5.74-4.07 0-8.27-.98-11.35-5.74-2.66-4.06-3.5-10.37-3.5-23.4 0-3.36 0-6.59.28-9.95M130.88 5.74v.778h-2.694l6.66 13.358 3.58-9.07c.248-.603.425-1.382.425-1.95 0-.708-.24-1.274-.63-1.665-.64-.63-1.41-.67-1.98-.67h-.46v-.78h7.87v.78c-.46.04-1.17.07-1.66.25-1.28.46-1.59 1.38-1.95 2.3l-3.15 7.94c-.64 1.56-2.09 5-2.55 5.95-.57 1.21-2.16 4.08-2.9 4.89-.95 1.06-2.16 1.6-3.72 1.6-1.66 0-3.08-.64-4-1.56-.74-.78-1.27-1.84-1.27-2.97 0-1.88 1.31-3.12 2.98-3.12 1.63 0 2.66 1.31 2.66 2.59 0 .39-.1 1.81-1.98 2.41-.39.14-1.1.32-1.1.67 0 .21.22.53.68.78.71.39 1.42.43 2.06.43.74 0 1.45-.03 2.338-.71.64-.49 1.31-1.38 1.74-2.23l-9.66-19.22h-2.24v-.78h10.98z" clip-path="url(#d)"/><path fill="#0076A1" d="M154.547 5.74v.778h-2.976v9.887h2.17c1.07 0 2.34-.107 3.16-1.56.71-1.31.25-2.48.75-5.386.64-3.69 2.55-4.22 4.22-4.22.96 0 2.2.14 3.12 1.13.5.53.89 1.34.89 2.19 0 1.06-.46 1.7-.81 2.05-.53.53-1.17.74-1.95.74-1.06 0-1.66-.39-2.02-.78-.56-.6-.6-1.28-.6-1.84 0-.82.14-.68.14-1.03 0-.39-.42-.75-.71-.75-.24 0-.74.25-1.09 1.24-.35 1.06-.46 2.34-.57 4.07-.07 1.1-.14 2.05-.49 2.8-.35.74-.85 1.13-1.34 1.34v.14c.85 0 2.62.14 4.11.85 2.09.99 2.87 2.65 3.15 3.93.14.64.22 1.52.29 3.19.07 1.52 0 3.33 1.6 3.33.32 0 .75-.18.99-.32l.39.6c-.56.39-1.2.71-1.8.92-.71.25-1.48.35-2.12.35-1.07 0-2.24-.25-2.94-.71-1.78-1.13-1.92-3.61-2.24-7.19-.1-1.28-.14-2.45-1.31-3.44-.95-.81-1.88-.89-2.73-.89h-2.2v10.95h2.98v.78H143.2v-.78h2.974V6.52h-2.97v-.78h11.41zm13.235 0v.78h2.976v21.648h-2.976v.78h11.408v-.78h-2.976v-9.142h3.26c2.622 0 5.81-.39 7.617-1.56 2.24-1.417 2.63-3.507 2.63-4.89 0-1.664-.39-3.437-2.23-4.853-1.73-1.346-4.43-1.983-8.5-1.983h-11.2zm8.432 12.507V6.52h2.126c1.56 0 3.26 0 4.287 1.063.85.886.886 2.126.886 3.012v2.516c0 1.21 0 2.59-.673 3.58-1.028 1.45-2.94 1.56-4.855 1.56h-1.77zm24.226 3.898l2.232 6.023h-2.834v.778h10.735v-.778h-2.16l-8.257-22.924h-1.913l-6.91 18.955c-.495 1.38-.743 2.05-1.133 2.62-.673.99-1.665 1.31-2.763 1.34v.78h7.794v-.78c-1.45 0-2.09-.29-2.23-.36-.78-.36-1.02-.85-1.02-1.56 0-.89.43-2.23.53-2.55l.54-1.56h7.41zm-.142-.78h-7.05l3.507-9.603 3.543 9.602zM220.955 0c1.948 0 2.62 1.063 2.62 1.807 0 .815-.672 1.808-2.62 1.808-1.95 0-2.622-1.063-2.622-1.808S219.006 0 220.955 0m-8.362 0c1.736 0 2.622.886 2.622 1.807 0 .815-.673 1.808-2.622 1.808-1.95 0-2.622-1.063-2.622-1.808 0-.92.96-1.807 2.63-1.807m9.89 5.74v.778h-2.97v21.65h2.98v.778h-11.41v-.78h2.98V6.52h-2.97v-.78h11.4z" clip-path="url(#d)"/><path fill="#0076A1" d="M235.375 5.74v.78h-2.48v9.778h8.22v-9.78h-2.48V5.74h10.91v.78h-2.975v21.648h2.976v.78h-10.912v-.78h2.48v-11.09h-8.22v11.09h2.48v.78H224.46v-.78h2.98V6.518h-2.978V5.74"/><defs><path id="e" d="M0 0h649.887v100.7H0z"/></defs><clipPath id="f"><use overflow="visible" xlink:href="#e"/></clipPath><path fill="#0076A1" d="M263.046 22.145l2.232 6.023h-2.835v.778h10.736v-.778h-2.17l-8.25-22.924h-1.92l-6.9 18.956c-.5 1.38-.75 2.055-1.14 2.62-.68.993-1.67 1.312-2.77 1.348v.778h7.79v-.778c-1.45 0-2.09-.284-2.23-.354-.78-.354-1.03-.85-1.03-1.56 0-.885.42-2.232.53-2.55l.53-1.56h7.41zm-.142-.78h-7.05l3.507-9.603 3.55 9.602z" clip-path="url(#f)"/><path fill="#0F0D0C" d="M460.166 25.025v.635c1.432.063 2.864.975 2.864 3.22s-1.433 3.103-2.874 3.188v.667h-.848v-.667c-1.422-.096-2.864-.89-2.864-3.146 0-2.34 1.573-3.177 2.885-3.262v-.635h.83zm-.848 1.302c-.888.054-1.967.7-1.967 2.553 0 1.704.97 2.425 1.97 2.53v-5.083zm.838 5.083c.978-.084 1.967-.772 1.967-2.54 0-1.833-.99-2.49-1.967-2.543v5.083zm5.08-6.1v7.14h-.877v-7.14h.87zm2.612 0v2.987h3.288V25.31h.888v7.14h-.888V29.1h-3.288v3.347h-.877v-7.14h.88zm6.998 4.893l-.706 2.245h-.908l2.31-7.138h1.06l2.32 7.138h-.94l-.726-2.245h-2.41zm2.228-.72l-.665-2.055c-.16-.466-.26-.89-.36-1.303h-.02c-.1.424-.21.858-.35 1.292l-.67 2.065h2.05zm3.91-4.173v2.987h3.29V25.31h.887v7.14h-.88V29.1h-3.29v3.347h-.87v-7.14h.88zm10.66 6.905c-.32.17-.967.34-1.794.34-1.916 0-3.358-1.272-3.358-3.61 0-2.235 1.442-3.75 3.55-3.75.848 0 1.382.19 1.614.317l-.212.752c-.333-.17-.807-.296-1.372-.296-1.594 0-2.652 1.07-2.652 2.943 0 1.75.958 2.87 2.612 2.87.534 0 1.08-.11 1.433-.29l.18.73zm6.908-3.41c0 2.457-1.422 3.76-3.157 3.76-1.795 0-3.056-1.46-3.056-3.62 0-2.268 1.34-3.75 3.15-3.75 1.85 0 3.05 1.493 3.05 3.61zm-5.276.117c0 1.525.787 2.89 2.17 2.89 1.39 0 2.178-1.344 2.178-2.964 0-1.42-.706-2.9-2.17-2.9-1.45-.002-2.178 1.406-2.178 2.974zm6.616-3.516c.383-.085.988-.148 1.604-.148.878 0 1.442.16 1.866.52.353.275.564.698.564 1.26 0 .688-.434 1.292-1.15 1.567v.02c.647.17 1.402.73 1.402 1.79 0 .614-.23 1.08-.574 1.43-.475.455-1.24.667-2.35.667-.605 0-1.07-.042-1.362-.085v-7.02zm.878 2.923h.796c.93 0 1.473-.51 1.473-1.2 0-.84-.61-1.17-1.5-1.17-.41 0-.64.03-.78.06v2.3zm0 3.42c.17.03.423.04.736.04.907 0 1.744-.35 1.744-1.39 0-.98-.797-1.38-1.755-1.38h-.726v2.72zm10.517-2.95c0 2.45-1.422 3.76-3.157 3.76-1.795 0-3.056-1.46-3.056-3.62 0-2.27 1.342-3.75 3.157-3.75 1.86 0 3.06 1.49 3.06 3.61zm-5.275.11c0 1.52.787 2.89 2.17 2.89 1.39 0 2.178-1.35 2.178-2.97 0-1.42-.706-2.9-2.17-2.9-1.452 0-2.178 1.4-2.178 2.97zm8.64-.48v.69h-2.49v-.69h2.49zm4.79.66H516.8v2.57h2.945v.77h-3.822V25.3h3.67v.773H516.8v2.255h2.643v.76zm2.51-3.79v3.16h.273l2.33-3.17h1.06l-2.572 3.27c1.12.16 1.553.88 1.906 1.84.25.73.44 1.38.74 2.02h-.95c-.24-.49-.44-1.13-.62-1.69-.32-.94-.75-1.59-1.9-1.59h-.28v3.27h-.87V25.3h.86zm10.418 3.5c0 2.45-1.422 3.76-3.157 3.76-1.795 0-3.056-1.46-3.056-3.62 0-2.27 1.34-3.75 3.157-3.75 1.856 0 3.056 1.49 3.056 3.61zm-5.275.11c0 1.52.787 2.89 2.17 2.89 1.39 0 2.178-1.35 2.178-2.97 0-1.42-.706-2.9-2.17-2.9-1.452 0-2.178 1.4-2.178 2.97zm7.492-3.61v2.98h3.288V25.3h.888v7.14h-.888V29.1h-3.288v3.347h-.877v-7.14h.877zm11.708 3.49c0 2.46-1.422 3.76-3.157 3.76-1.795 0-3.056-1.46-3.056-3.62 0-2.26 1.34-3.75 3.157-3.75 1.85 0 3.05 1.5 3.05 3.61zm-5.275.12c0 1.53.787 2.89 2.17 2.89 1.39 0 2.178-1.34 2.178-2.96 0-1.42-.706-2.9-2.17-2.9-1.452 0-2.178 1.41-2.178 2.97zm12.312.39c-.05-.99-.11-2.19-.1-3.08h-.03c-.233.84-.516 1.73-.858 2.71l-1.2 3.47h-.666l-1.1-3.4c-.322-1.01-.595-1.93-.786-2.78h-.02c-.02.89-.07 2.08-.132 3.15l-.182 3.06h-.837l.48-7.14h1.12l1.16 3.45c.28.88.52 1.66.69 2.4h.03c.17-.72.42-1.51.72-2.41l1.21-3.46h1.12l.43 7.14h-.85l-.17-3.14zm3.458-4v7.14h-.878V25.3h.877zm2.49 0v2.27c0 .97.483 1.52 1.44 1.52.475 0 .99-.17 1.342-.4V25.3h.888v7.14h-.888v-3.03h-.02c-.475.286-1.04.445-1.634.445-.898 0-2.008-.4-2.008-2.15V25.3h.88zm6.28 0v2.99h3.29V25.3h.887v7.14h-.888V29.1h-3.29v3.347h-.88v-7.14h.87zm6.726 0v3.01c0 1.13-.02 2.06-.08 3.02l.02.01c.343-.74.767-1.51 1.26-2.36l2.2-3.68h.877v7.14h-.827V29.4c0-1.152.01-2 .08-2.9l-.03-.01c-.332.78-.796 1.61-1.26 2.4l-2.13 3.55h-.937V25.3h.82zm6.836 0v3.01c0 1.13-.02 2.06-.08 3.02l.02.01c.343-.74.767-1.51 1.26-2.36l2.2-3.68h.877v7.14h-.83V29.4c0-1.152.01-2 .08-2.9l-.03-.01c-.33.78-.8 1.61-1.26 2.4l-2.13 3.55h-.94V25.3h.82zm1.11-1.49c.04.33.14.66.614.66.464 0 .575-.31.615-.66h.68c-.05.7-.45 1.13-1.31 1.13-.82 0-1.22-.43-1.27-1.13h.68zm8.53 2.28h-2.067v-.79h5.032v.79h-2.077v6.35h-.888V26.1zm4.748-.79v3.01c0 1.13-.02 2.06-.08 3.02l.02.01c.344-.74.768-1.52 1.262-2.36l2.198-3.68h.878v7.14h-.827V29.4c0-1.153.01-2 .09-2.9l-.03-.01c-.33.78-.79 1.61-1.26 2.4l-2.13 3.55h-.94V25.3h.83zm6.483 0l2.108 3.17h.27V25.3h.86v3.17h.28l2.1-3.167h1.03l-2.41 3.29c1.07.115 1.5.814 1.84 1.83.23.68.4 1.366.68 2.02h-.89c-.23-.476-.4-1.164-.57-1.67-.31-.977-.65-1.6-1.74-1.6h-.29v3.27h-.85v-3.27h-.3c-1.09 0-1.43.624-1.75 1.6-.16.507-.32 1.195-.54 1.672h-.9c.3-.66.46-1.35.68-2.02.35-1.006.78-1.705 1.84-1.843l-2.41-3.28h1zm8.694 0v2.99h3.288V25.3h.888v7.14h-.888V29.1h-3.288v3.347h-.877v-7.14h.877zm9.417 3.79h-2.643v2.57h2.95v.77h-3.82V25.3h3.67v.77h-2.79v2.257h2.65v.76zm1.643-3.7c.383-.09.988-.15 1.604-.15.88 0 1.45.16 1.87.52.36.27.57.69.57 1.26 0 .68-.43 1.29-1.15 1.56v.02c.65.17 1.4.73 1.4 1.79 0 .61-.23 1.08-.57 1.43-.47.45-1.24.66-2.35.66-.6 0-1.07-.04-1.36-.09v-7zm.877 2.92h.797c.93 0 1.48-.51 1.48-1.2 0-.84-.6-1.17-1.49-1.17-.4 0-.63.03-.77.06v2.3zm0 3.42c.172.03.424.04.736.04.908 0 1.745-.35 1.745-1.39 0-.97-.797-1.38-1.755-1.38h-.727v2.72zm5.616-6.44v3.01c0 1.13-.02 2.06-.08 3.01l.02.01c.343-.74.767-1.51 1.26-2.36l2.2-3.68h.877v7.14h-.827V29.4c0-1.16.01-2 .08-2.9l-.03-.01c-.332.78-.796 1.6-1.26 2.4l-2.13 3.55h-.937V25.3h.827zm6.877 0v3.17h.272l2.33-3.17h1.05l-2.57 3.27c1.12.16 1.55.88 1.9 1.84.25.73.44 1.39.74 2.02h-.95c-.24-.49-.44-1.13-.62-1.69-.32-.94-.75-1.59-1.9-1.59h-.28v3.27h-.87V25.3h.86z"/></svg>