<svg xmlns="http://www.w3.org/2000/svg" width="427.507" height="186.15" viewBox="0 0 427.507 186.15"><g fill="#010101"><path d="M102.1 130.823c3.114 0 5.998.925 8.565 2.786 2.536 1.831 6.07 6.058 10.476 12.551 4.035 6.063 7.525 10.709 10.365 13.845h13.503v-.932c-2.135-.233-4.22-1.195-6.181-2.844-2.08-1.748-4.983-5.411-8.594-10.906-3.146-4.87-5.763-8.422-7.781-10.564-1.972-2.102-3.987-3.777-6.006-4.94l-.967-.573 1.065-.29c9.394-2.528 13.961-7.447 13.961-15.023 0-4.613-2.08-8.511-6.119-11.496-4.074-3.014-9.634-4.539-16.516-4.539h-27.92v.889c3.018.072 5.089.848 6.175 2.317 1.146 1.505 1.682 4.123 1.682 7.988v39.549c0 .739-.044 1.441-.081 2.134 3.688 2.491 6.868 4.327 9.954 5.704-1.132-1.586-1.671-4.17-1.671-7.847v-17.808H102.1zM96.011 99.363h7.739c5.347 0 9.734 1.366 13.01 4.08 3.307 2.708 4.977 6.313 4.977 10.692 0 4.506-1.503 8.156-4.49 10.877-2.962 2.719-7.073 4.09-12.25 4.09h-8.985V99.363zM256.853 149.483c.033.463.049.906.049 1.335 0 2.596-.564 4.464-1.74 5.77-1.109 1.218-2.928 2.026-5.486 2.469v.948h23.963v-.932c-2.945-.3-4.965-1.146-6.17-2.537-1.221-1.474-2.023-4.267-2.432-8.545l-3.469-38.877c-.047-.506-.047-.995-.047-1.49 0-5.584 2.59-8.567 7.777-8.839v-.889h-15.602l-22.738 50.283-.427-.95-22.037-49.333h-16.761v.947c3.489.603 6.486 2.102 8.867 4.493l.172.146-.026.229-4.161 43.371c-.505 4.559-1.421 7.538-2.748 9.107-1.288 1.478-3.347 2.45-6.131 2.867v.948h20.626v-.957c-5.989-1.129-9.036-4.529-9.036-10.075 0-.541.032-1.129.078-1.743l4.056-40.521 24.009 53.297h1.225l24.314-53.437L256.853 149.483zM178.041 97.896h-23.966v.889c2.991.075 4.997.837 6.129 2.308 1.166 1.515 1.719 4.205 1.719 8.226v39.321c0 3.936-.576 6.608-1.75 8.132-1.14 1.515-3.151 2.276-6.098 2.349v.885h23.966v-.885c-2.858-.09-4.868-.889-6.026-2.359-1.222-1.551-1.799-4.194-1.799-8.121v-39.321c0-3.937.577-6.589 1.799-8.155 1.158-1.482 3.168-2.303 6.026-2.378V97.896zM58.153 158.339c3.694 2.659 8.647 5.886 14.396 7.541 4.484 1.403 8.272 2.029 11.946 2.029 2.117 0 4.18-.195 6.241-.651-2.747-.347-5.193-1.007-7.408-2.043-8.202-3.649-15.239-9.23-22.94-15.638-2.628-2.213-5.118-4.486-8.067-7.231l-.437-.379.064-.05L28.33 120.111l.388-.338 24.885-22.408c2.619-2.416 5.531-4.414 8.678-5.894 3.188-1.494 6.049-2.242 8.511-2.242h3.463v-1.204H44.978v1.279c3.35.687 5.067 2.197 5.067 4.484 0 1.673-1.407 3.779-4.327 6.443l-26.531 23.783 16.043 14.766C41.332 144.633 49.457 152.13 58.153 158.339z"/><path d="M20.813 92.011c1.356-1.769 3.669-2.696 6.918-2.782v-1.204H0v1.204c3.488.075 5.824.959 7.116 2.709 1.3 1.741 1.973 4.806 1.973 9.355v45.491c0 4.428-.684 7.468-2.026 9.272-1.29 1.748-3.666 2.709-7.063 2.752v1.195h27.73v-1.195c-3.363-.043-5.703-1.004-6.964-2.752-1.319-1.805-1.961-4.845-1.961-9.272v-45.491C18.806 96.889 19.462 93.852 20.813 92.011zM102.532 21.355H82.725v.764c2.451.045 4.16.673 5.084 1.893.955 1.238 1.415 3.441 1.415 6.771v32.448c0 3.233-.49 5.441-1.459 6.729-.93 1.192-2.607 1.841-5.04 1.895v.762h19.808v-.762c-2.384-.054-4.007-.689-4.991-1.922-.998-1.274-1.498-3.491-1.498-6.702V30.784c0-3.221.5-5.434 1.498-6.724.984-1.245 2.607-1.895 4.991-1.94V21.355zM151.933 62.033c-1.232 3.648-2.556 5.938-3.983 7.066-1.471 1.166-4.008 1.762-7.594 1.762h-8.315c-2.651 0-4.411-.383-5.376-1.159-1.017-.798-1.488-2.176-1.488-4.253V30.687c0-3.034.51-5.178 1.556-6.543 1.026-1.288 2.631-1.979 4.824-2.024v-.764h-19.688v.764c2.405.045 4.045.624 5.008 1.78.991 1.206 1.489 3.196 1.489 6.123v32.771c0 3.183-.523 5.518-1.571 6.919-1.02 1.355-2.666 2.09-4.926 2.145v.762h37.706l3.279-10.585H151.933zM81.129 13.471V13.14H69.59L49.828 61.387l-.35-.857L33.321 21.723c-.013-.083-.043-.167-.051-.245l-3.445-8.338H12.227v1.011c2.448.095 7.235.664 8.731 1.945 1.459 1.213 3.118 4.056 5.062 8.665l20.357 48.556h1.345l19.4-47.168C70.791 17.567 75.126 13.634 81.129 13.471zM195.146 62.033c-1.227 3.573-2.571 5.938-3.966 7.066-1.479 1.166-3.997 1.762-7.595 1.762h-7.65c-2.652 0-4.422-.383-5.375-1.159-1.004-.812-1.489-2.176-1.489-4.253V30.687c0-3.034.504-5.162 1.576-6.543.996-1.288 2.602-1.979 4.815-2.024v-.764h-19.698v.764c2.4.045 4.055.624 5.027 1.78.974 1.206 1.455 3.246 1.455 6.123v32.771c0 3.183-.538 5.518-1.552 6.919-1.025 1.355-2.669 2.081-4.931 2.145v.762h37.053l3.264-10.585H195.146zM231.72 51.802l5.318 14.423c.29.782.449 1.51.449 2.149 0 2.235-1.67 3.409-4.943 3.482v.762h19.379v-.762c-2.271-.027-3.871-.431-4.941-1.233-1.132-.789-2.154-2.516-3.197-5.262L227.33 20.789h-5.375L206.258 63.43c-1.212 3.233-2.432 5.375-3.654 6.434-1.165 1.006-2.748 1.66-4.796 1.965v.789h13.996v-.762c-3.742-.2-4.528-2.117-4.528-3.741 0-1.267.48-3.196 1.488-5.876l3.988-10.701h18.87L231.72 51.802zM213.551 49.123l8.548-23.552.361 1.006 8.255 22.546H213.551z"/></g><path fill="#010101" d="M397.919,22.494c2.254-3.858,4.604-7.187,7.07-10.027c1.396-1.607,2.844-3.061,4.314-4.355 c5.443-4.756,11.438-7.409,18.203-8.111h-30.883l-4.713,12.466l-3.787,10.027l-6.557,17.368l-33.648,89.084l-4.098,10.824 l-0.195,0.54l-3.299,8.721l-1.023-2.708L292.911,25.491c-0.109-0.286-0.145-0.503-0.174-0.739L283.323,0h-40.26 c2.471,0.018,7.02,0.431,14.318,7.941c4.611,4.731,8.939,12.639,14.551,27.007l58.453,151.201h3.881l15.93-42.026l0.953-2.515 l4.654-12.28l34.137-90.068C392.476,32.843,395.12,27.272,397.919,22.494z"/><g fill="#010101"><path d="M331.651 42.471c.686 0 1.326.213 1.904.625.563.403 1.352 1.347 2.326 2.789.904 1.369 1.697 2.403 2.309 3.106h3.023v-.218c-.48-.059-.939-.263-1.381-.639-.463-.39-1.102-1.204-1.92-2.424-.701-1.081-1.279-1.884-1.727-2.362-.453-.474-.904-.841-1.348-1.09l-.223-.138.25-.052c2.096-.592 3.109-1.666 3.109-3.364 0-1.034-.465-1.902-1.352-2.562-.916-.667-2.158-1.022-3.697-1.022h-6.229v.209c.672.007 1.143.184 1.379.523.248.327.371.902.371 1.769v8.837c0 .156 0 .322-.02.46.824.564 1.537.982 2.227 1.281-.262-.356-.373-.932-.373-1.764v-3.962H331.651zM330.282 35.452h1.717c1.203 0 2.168.311 2.908.909.738.594 1.115 1.408 1.115 2.383 0 1.016-.352 1.832-1.014 2.432-.643.615-1.568.918-2.729.918h-1.998V35.452zM366.169 46.642c.014.095.014.2.014.288 0 .589-.127 1.007-.389 1.292-.256.279-.65.456-1.221.551v.218h5.342v-.218c-.648-.059-1.111-.247-1.373-.56-.277-.342-.469-.959-.555-1.929l-.762-8.665c-.018-.109-.018-.222-.018-.322 0-1.245.578-1.911 1.73-1.97v-.209h-3.473l-5.078 11.233-.098-.218-4.912-11.016h-3.754v.216c.793.14 1.471.467 1.986 1.006l.049.021v.072l-.943 9.678c-.125 1.004-.322 1.673-.611 2.022-.285.313-.75.544-1.369.639v.218h4.604v-.218c-1.344-.263-2.02-1.014-2.02-2.245 0-.129.01-.268.01-.395l.918-9.043 5.352 11.9h.277l5.432-11.923L366.169 46.642zM348.579 35.119h-5.342v.209c.672.007 1.123.184 1.355.501.268.349.402.936.402 1.841v8.787c0 .864-.135 1.464-.402 1.813-.252.329-.705.503-1.355.521v.2h5.342v-.2c-.631-.027-1.086-.204-1.35-.521-.275-.349-.393-.95-.393-1.813v-8.787c0-.868.117-1.467.393-1.807.264-.333.719-.528 1.35-.535V35.119zM321.833 48.61c.824.594 1.926 1.31 3.211 1.682 1.006.317 1.852.456 2.67.456.477 0 .938-.048 1.402-.152-.627-.063-1.182-.213-1.668-.44-1.814-.816-3.396-2.059-5.115-3.505-.588-.49-1.156-.993-1.799-1.603l-.105-.093.027-.007-5.268-4.865.076-.079 5.568-4.997c.572-.537 1.225-.988 1.918-1.315.725-.326 1.355-.503 1.898-.503h.771v-.267h-6.52v.29c.738.154 1.125.487 1.125.993 0 .379-.313.841-.967 1.428l-5.912 5.323 3.57 3.298C318.071 45.554 319.905 47.218 321.833 48.61z"/><path d="M313.511 33.817c.303-.399.801-.605 1.545-.628v-.267h-6.195v.267c.785.023 1.305.229 1.59.61.289.381.439 1.072.439 2.093v10.147c0 .975-.162 1.66-.449 2.07-.295.393-.83.592-1.58.605v.277h6.195v-.277c-.758-.014-1.271-.213-1.57-.617-.281-.399-.426-1.083-.426-2.059V35.892C313.06 34.913 313.204 34.224 313.511 33.817zM331.745 18.055h-4.426v.175c.545 0 .918.143 1.129.415.219.281.314.762.314 1.51v7.241c0 .708-.096 1.21-.314 1.501-.221.276-.6.413-1.129.413v.174h4.426v-.174c-.539 0-.896-.136-1.123-.413-.229-.291-.34-.793-.34-1.501v-7.241c0-.732.111-1.222.34-1.497.227-.286.584-.428 1.123-.428V18.055zM342.765 27.123c-.273.814-.582 1.329-.9 1.583-.316.249-.887.392-1.693.392h-1.846c-.602 0-.986-.093-1.199-.265-.238-.177-.34-.481-.34-.945v-7.749c0-.678.129-1.154.352-1.464.234-.292.586-.444 1.064-.444v-.175h-4.371v.175c.535 0 .885.12 1.111.388.221.254.332.705.332 1.36V27.3c0 .701-.111 1.229-.354 1.546-.232.286-.602.462-1.09.462v.174h8.393l.744-2.36H342.765zM326.964 16.295v-.086h-2.588l-4.41 10.759-.061-.186-3.615-8.642c0-.037-.008-.045-.008-.063l-.766-1.868h-3.938v.236c.553.014 1.625.141 1.953.426.326.276.693.907 1.131 1.936l4.539 10.841h.299l4.336-10.537C324.649 17.198 325.634 16.318 326.964 16.295zM352.394 27.123c-.275.793-.566 1.329-.885 1.583-.33.249-.896.392-1.686.392h-1.707c-.592 0-.988-.093-1.201-.265-.225-.177-.334-.481-.334-.945v-7.749c0-.678.121-1.154.352-1.464.234-.292.57-.444 1.074-.444v-.175h-4.381v.175c.535 0 .893.12 1.113.388.205.254.324.716.324 1.36V27.3c0 .701-.127 1.229-.346 1.546-.236.286-.598.449-1.092.462v.174h8.252l.713-2.36H352.394zM360.554 24.852l1.189 3.212c.076.174.096.338.096.478 0 .485-.357.753-1.098.767v.174h4.322v-.174c-.498 0-.865-.088-1.107-.263-.244-.19-.482-.567-.705-1.179l-3.666-9.948h-1.201l-3.496 9.517c-.281.716-.555 1.206-.83 1.444-.262.218-.596.352-1.064.429v.174h3.123v-.174c-.846-.027-1.02-.462-1.02-.83 0-.276.115-.7.344-1.319l.885-2.376h4.213L360.554 24.852zM356.507 24.235l1.904-5.237.072.21 1.855 5.026H356.507z"/></g></svg>