<svg xmlns="http://www.w3.org/2000/svg" width="139.097" height="30.929" viewBox="0 0 139.097 30.929"><path d="M8.545 7.008c-2.04-.744-3.72-1.152-3.72-2.256 0-.672.695-1.272 1.895-1.272s2.496.696 2.904 2.185l3.89-1.056C12.72 1.96 10.176 0 6.96 0 3.314 0 .673 2.376.673 4.992.673 7.944 3 9.05 5.017 9.817c2.4.912 4.368 1.248 4.368 2.592 0 .81-.672 1.48-2.112 1.48-1.775 0-2.976-1.27-3.408-2.55L0 12.38c1.104 3.148 3.6 5.09 7.104 5.09 3.913 0 6.553-2.183 6.553-5.255 0-2.88-2.616-4.297-5.112-5.21zM27.843.336H13.657v3.768h5.04v13.033h4.033V4.104h5.113zm3.095 0l-6.72 16.8h4.344l.96-2.64h6.648l.96 2.64h4.345l-6.72-16.8h-3.817zm-.12 10.633l1.2-3.27c.36-.96.792-2.47.815-2.47h.024c.024 0 .456 1.51.816 2.47l1.2 3.26h-4.055zm24.206-4.88c0-3.46-2.545-5.76-6.77-5.76H41.99v16.8h4.032v-5.47h2.064l3.12 5.47h4.513L52 10.94c1.944-.91 3.024-2.59 3.024-4.85zm-6.216 1.99h-2.784V4.1h2.784c1.44 0 2.017 1.08 2.017 1.99s-.577 1.994-2.017 1.994zm17.8 0v-.02c1.01-.36 2.09-1.71 2.09-3.29 0-2.45-2.09-4.44-5.09-4.44H56.31v16.8h7.25c4.15 0 6-2.28 6-5.09 0-1.71-1.368-3.53-2.953-3.97zm-6.266-4.36h2.425c1.08 0 1.872.67 1.872 1.58s-.8 1.58-1.88 1.58h-2.42V3.72zm2.808 10.03h-2.807V9.96h2.81c1.27 0 2.184.72 2.184 1.897 0 1.104-.84 1.896-2.185 1.896zM78.273 0C73.45 0 69.56 3.672 69.56 8.737s3.887 8.736 8.71 8.736c4.826 0 8.738-3.672 8.738-8.736S83.098 0 78.27 0zm0 13.49c-2.712 0-4.512-1.945-4.512-4.753 0-2.833 1.8-4.752 4.52-4.752 2.74 0 4.54 1.92 4.54 4.752 0 2.808-1.8 4.752-4.54 4.752zM100.513.336L97.37 5.424c-1.226 1.992-1.417 2.424-1.44 2.424h-.024c-.024 0-.217-.432-1.44-2.424L91.32.336h-3.792v16.8h3.96v-4.103c0-3.984-.144-5.953-.12-5.953h.024c.024 0 1.368 2.304 1.512 2.544l1.97 3.36h2.087l1.97-3.36c.15-.24 1.49-2.544 1.52-2.544h.03c.03 0-.12 1.968-.12 5.953v4.104h3.96V.337h-3.79zm8.31 15.537c-.397 0-.708.312-.708.696 0 .39.312.71.707.71.396 0 .708-.31.708-.72 0-.39-.31-.7-.708-.7zm6.36.107c-1.69 0-2.985-1.21-2.985-3.045 0-1.81 1.247-3.058 2.986-3.058 1.007 0 1.954.48 2.458 1.26l1.355-.36c-.756-1.333-2.17-2.208-3.813-2.208-2.41 0-4.354 1.83-4.354 4.36s1.942 4.36 4.354 4.36c1.75 0 3.238-.96 3.945-2.45l-1.34-.36c-.48.88-1.49 1.48-2.62 1.48zm9.107-7.41c-2.41 0-4.353 1.834-4.353 4.365s1.942 4.366 4.354 4.366c2.41 0 4.37-1.83 4.37-4.36s-1.96-4.37-4.37-4.37zm0 7.423c-1.727 0-2.985-1.248-2.985-3.06 0-1.834 1.26-3.057 2.986-3.057 1.72 0 2.99 1.223 2.99 3.058 0 1.812-1.27 3.06-2.98 3.06zm12.18-7.256l-1.905 3.214c-.684 1.16-.803 1.44-.816 1.44h-.02c-.01 0-.13-.28-.83-1.44L131 8.74h-1.246v8.395h1.307V13.93c0-1.523-.06-2.962-.05-2.962h.02c.01 0 .52.887.73 1.27l1.63 2.82h.7l1.64-2.82c.22-.383.73-1.27.74-1.27h.01c.02 0-.06 1.44-.06 2.962v3.202h1.31V8.737h-1.25z"/><path fill="#939598" d="M31.572 25.278c.05-.34.075-.648.075-.924 0-.394-.052-.742-.155-1.045-.104-.31-.26-.56-.465-.77-.206-.21-.462-.36-.77-.47-.305-.11-.66-.16-1.064-.16-.502 0-.945.07-1.332.22-.38.15-.72.35-1.01.6-.29.25-.53.54-.73.86-.2.32-.36.66-.48 1.01s-.21.7-.26 1.06c-.05.35-.08.68-.08.99 0 .39.05.73.16 1.03.11.29.26.54.47.75.21.2.47.35.77.45.31.1.67.15 1.08.15.51 0 .96-.08 1.35-.24.4-.16.74-.37 1.02-.62.29-.26.53-.55.73-.88.2-.33.35-.68.47-1.03s.2-.7.25-1.04zm-.964-.15c-.034.27-.093.545-.175.83-.082.284-.19.565-.328.843-.136.28-.306.53-.51.75s-.445.4-.725.53c-.28.14-.604.2-.973.2-.297 0-.55-.04-.755-.12-.206-.08-.373-.19-.502-.34s-.222-.32-.276-.53c-.056-.2-.084-.43-.084-.69 0-.19.018-.43.052-.69s.09-.54.172-.83c.08-.28.188-.57.322-.85s.304-.53.51-.75.45-.4.73-.54c.28-.14.608-.2.98-.2.294 0 .544.04.752.13.208.09.374.2.5.35.125.15.216.33.273.54.06.21.09.44.09.69 0 .21-.01.44-.05.71zm3.706 1.246L36.2 24.09c.046-.05.072-.09.078-.125.005-.034-.01-.06-.04-.078-.033-.018-.083-.03-.15-.038-.068-.01-.156-.02-.264-.02-.097 0-.175 0-.233.01-.06 0-.1.01-.14.02-.04.01-.07.02-.09.04l-.06.06-1.45 1.8-.77-1.81c-.01-.03-.02-.05-.03-.07s-.03-.03-.06-.04-.07-.02-.13-.03c-.05-.01-.13-.01-.23-.01-.11 0-.2 0-.27.01s-.12.02-.15.04-.05.05-.05.08.01.07.03.12l1 2.25-2.01 2.39c-.03.05-.05.09-.06.12 0 .03.01.06.04.08.03.02.08.04.15.05.06.01.15.01.25.01.11 0 .2 0 .26-.01.07 0 .12-.01.17-.02s.08-.03.1-.05c.02-.02.05-.04.07-.06l1.52-1.91.8 1.91c.01.02.02.05.04.07.01.02.03.04.06.05.03.01.08.02.14.02h.24c.11 0 .2 0 .27-.01s.13-.02.17-.04c.04-.02.06-.05.07-.08 0-.03 0-.08-.03-.13l-1.05-2.37zm5.846-2.122c-.16-.158-.363-.278-.608-.363-.245-.09-.54-.13-.884-.13-.332 0-.635.05-.904.14-.27.1-.512.23-.726.4-.213.16-.397.36-.553.59-.156.22-.286.47-.39.72s-.18.52-.23.79c-.047.27-.07.54-.07.81 0 .29.036.55.112.78.074.22.19.42.35.58s.357.27.603.36c.245.08.54.12.883.12.334 0 .635-.05.905-.15.27-.1.513-.23.726-.4s.398-.37.556-.59.287-.47.39-.72c.102-.26.178-.52.23-.8.05-.28.073-.55.073-.81 0-.29-.037-.55-.112-.78s-.19-.43-.35-.58zm-.52 2.02c-.03.208-.08.412-.146.612-.066.2-.15.39-.253.564-.1.175-.22.33-.35.462-.14.132-.29.237-.47.314-.17.077-.37.115-.59.115-.2 0-.37-.03-.51-.09s-.25-.13-.34-.23c-.08-.1-.15-.23-.19-.37s-.06-.31-.06-.49c0-.2.02-.41.05-.62.03-.21.08-.42.15-.61.07-.2.15-.39.26-.56.1-.18.22-.33.36-.46.14-.13.3-.24.47-.32.18-.08.37-.12.59-.12.2 0 .37.02.52.08s.26.13.35.23c.09.1.15.22.19.36.04.14.06.3.06.48 0 .2-.02.4-.05.61zm8.668-2.127c-.1-.118-.23-.21-.392-.28-.162-.067-.362-.1-.602-.1-.2 0-.398.037-.592.112s-.372.17-.537.282c-.164.11-.31.23-.435.37s-.224.26-.296.39c-.01-.17-.04-.33-.086-.47-.046-.14-.12-.27-.217-.37-.09-.1-.22-.19-.37-.24-.15-.06-.34-.09-.55-.09-.2 0-.4.04-.6.11s-.37.17-.54.28c-.16.11-.31.24-.43.37s-.21.26-.26.38l.19-.93c.01-.02.01-.05 0-.07s-.02-.04-.05-.05c-.02-.02-.06-.03-.11-.03-.04-.01-.11-.01-.18-.01-.07 0-.13 0-.18.01-.05.01-.09.02-.13.03s-.06.03-.07.05c-.01.02-.02.04-.03.07l-.97 4.84c-.01.02-.01.05 0 .07.01.02.03.03.06.05s.07.02.13.03.13.01.22.01.16 0 .22-.01.11-.02.15-.03c.03-.02.06-.03.08-.05.02-.02.03-.05.04-.08l.43-2.16c.06-.31.15-.59.29-.86.14-.26.29-.49.46-.68.17-.19.36-.34.55-.45.19-.11.37-.16.56-.16.21 0 .36.06.45.19.09.13.14.3.14.52 0 .09 0 .18-.01.29s-.02.21-.05.32L44 28.78c-.01.03 0 .05.01.07.01.02.03.034.06.05.03.012.07.023.122.03s.125.01.21.01.16 0 .22-.01c.06-.008.105-.02.14-.03.037-.016.06-.03.08-.05.02-.02.03-.047.038-.076l.43-2.16c.06-.31.155-.596.29-.86.13-.264.28-.49.455-.68.17-.195.35-.345.543-.45.19-.11.38-.168.558-.168.22 0 .37.07.46.202.09.133.13.32.13.545 0 .1-.01.19-.02.28s-.03.19-.047.3l-.59 2.986c-.01.03 0 .05.01.07.01.02.03.03.06.05.03.01.07.02.13.03.05 0 .13.01.21.01s.16 0 .22-.01.11-.02.14-.03c.04-.02.06-.03.08-.05.02-.02.03-.05.03-.08l.61-3.02c.03-.13.05-.26.06-.38s.02-.25.02-.37c0-.19-.02-.36-.06-.52s-.12-.29-.22-.41zm5.582-.27c-.027-.013-.065-.023-.114-.03-.048-.004-.107-.007-.18-.007-.143 0-.25.013-.316.038-.068.025-.11.066-.124.124l-.103.49c-.18-.227-.382-.404-.61-.533-.226-.13-.5-.193-.817-.193-.32 0-.604.06-.854.18s-.47.28-.66.48c-.19.197-.353.422-.486.673-.135.25-.243.508-.328.773-.084.265-.145.524-.183.78-.037.253-.057.48-.057.68 0 .22.02.433.063.64s.12.394.23.56c.11.164.26.296.45.396.19.1.43.15.71.15.21 0 .42-.038.63-.113.21-.075.39-.17.56-.285.17-.115.31-.24.44-.376.12-.136.21-.26.25-.376l-.18.913c-.01.03-.01.05 0 .07.01.02.03.03.06.05.03.01.07.02.11.03.05 0 .11.01.18.01.15 0 .26-.01.32-.04s.11-.07.12-.13l.96-4.83c.01-.03.01-.05 0-.07 0-.02-.02-.04-.05-.06zm-1.255 2.28c-.064.314-.164.603-.296.864s-.29.48-.46.68-.36.34-.56.45c-.2.11-.4.16-.6.16-.16 0-.28-.03-.38-.1-.1-.07-.18-.15-.23-.25-.06-.11-.1-.22-.11-.34-.02-.12-.03-.25-.03-.37 0-.16.01-.34.04-.53.03-.2.07-.4.12-.6.05-.21.12-.41.21-.6.09-.2.19-.37.31-.52s.26-.27.41-.37c.15-.09.33-.14.52-.14.24 0 .46.06.65.18s.38.31.54.55l-.18.89zm8.43-2.275c-.03-.017-.073-.027-.13-.033-.055-.005-.125-.008-.21-.008h-.22c-.058 0-.106.01-.144.03-.03.01-.06.03-.08.05-.02.02-.03.04-.03.07l-.39 1.96h-2.39l.4-1.96c.01-.03 0-.06-.01-.08-.01-.02-.03-.04-.06-.05-.03-.02-.07-.03-.13-.04-.05-.01-.12-.01-.21-.01h-.21c-.06.01-.11.02-.14.04-.03.01-.06.03-.08.05-.01.02-.03.04-.03.07l-.96 4.83c0 .03 0 .05.01.07.01.02.03.03.06.05.03.01.07.02.13.03.05.01.13.01.22.01s.16 0 .22-.01.11-.02.15-.03.06-.03.08-.05c.02-.02.03-.05.04-.08l.43-2.12h2.38l-.42 2.12c0 .03 0 .05.01.07.01.02.03.04.06.05s.08.03.13.03.13.01.21.01c.09 0 .17 0 .22-.01s.11-.02.15-.03c.04-.02.06-.03.08-.05.02-.02.03-.05.04-.08l.91-4.8c.01-.03.01-.06 0-.08-.01-.02-.03-.04-.06-.06zm5.115-.004c-.03-.014-.067-.024-.116-.03-.048-.005-.108-.008-.18-.008-.144 0-.25.013-.317.038s-.11.066-.123.124l-.102.49c-.18-.227-.383-.404-.61-.533s-.5-.193-.82-.193c-.317 0-.603.06-.853.18s-.48.28-.66.48c-.19.197-.36.422-.49.673-.14.25-.25.508-.33.773s-.15.524-.19.78c-.04.253-.06.48-.06.68 0 .22.02.433.06.64.04.208.11.394.22.56.11.164.26.296.45.396.19.1.42.15.71.15.21 0 .42-.038.62-.113.2-.075.39-.17.55-.285.17-.115.31-.24.43-.376s.2-.26.25-.376l-.18.913c-.02.03-.02.05 0 .07.01.02.03.03.06.05.02.01.06.02.11.03.04 0 .1.01.17.01.15 0 .26-.01.32-.04s.1-.07.11-.13L66.2 24c0-.03 0-.05-.01-.07-.01-.02-.026-.04-.05-.06zm-1.258 2.278c-.064.315-.162.604-.295.865s-.285.48-.457.68-.356.34-.556.45c-.198.11-.396.16-.593.16-.15 0-.27-.03-.37-.1-.09-.07-.17-.15-.23-.25-.05-.11-.09-.22-.11-.34-.02-.12-.03-.25-.03-.37 0-.16.02-.34.04-.53.03-.2.07-.4.13-.6s.13-.41.22-.6.19-.37.31-.52c.12-.15.26-.27.42-.37.16-.09.33-.14.53-.14.25 0 .47.06.66.18.2.12.38.31.55.55l-.18.89zm6.892-2.084c-.137-.1-.307-.176-.51-.228-.205-.052-.438-.078-.7-.078-.178 0-.354.017-.527.05-.174.035-.335.075-.483.12-.148.044-.277.093-.387.147s-.182.1-.218.14c-.03.03-.06.07-.08.12-.02.05-.05.1-.06.15s-.04.11-.04.16c-.01.05-.02.1-.02.15 0 .1.03.15.09.15.03 0 .1-.02.19-.07.09-.04.2-.1.33-.16s.28-.11.45-.16c.17-.05.36-.07.56-.07.27 0 .48.05.64.15s.23.25.23.45c0 .15-.04.28-.1.4-.07.12-.17.22-.31.3-.14.08-.3.15-.48.19-.19.05-.41.07-.65.07h-.47c-.06 0-.1.02-.14.07s-.07.1-.09.16c-.02.07-.04.13-.04.18-.01.06-.02.1-.02.12 0 .05.01.08.03.11.02.02.06.04.11.04h.58c.23 0 .42.02.58.06.15.04.28.09.38.15.09.06.16.13.2.21s.06.16.06.24c0 .16-.03.3-.1.43s-.16.24-.29.34c-.13.09-.28.17-.46.22-.19.05-.39.08-.63.08-.22 0-.4-.02-.55-.07-.15-.04-.28-.09-.38-.15-.1-.05-.18-.1-.25-.15-.07-.04-.12-.06-.16-.06-.04 0-.07.02-.1.06-.03.04-.05.08-.07.14-.02.06-.03.11-.04.17-.01.06-.02.11-.02.15 0 .08.02.14.063.17.05.05.12.1.22.16.096.05.21.1.34.14.13.04.275.08.43.1.16.03.32.04.49.04.386 0 .73-.04 1.03-.14s.55-.23.76-.39c.2-.17.36-.36.465-.58s.16-.46.16-.71c0-.14-.027-.27-.08-.38s-.12-.21-.21-.29-.18-.15-.29-.2c-.11-.05-.22-.08-.33-.09l.015-.02c.17-.04.33-.11.48-.21s.27-.2.38-.32c.1-.12.19-.25.25-.39s.09-.29.09-.43c0-.18-.04-.34-.11-.49-.07-.15-.17-.27-.31-.37zm4.74.054c-.136-.107-.307-.194-.515-.26-.21-.066-.46-.1-.74-.1-.41 0-.76.07-1.06.207-.3.14-.55.32-.77.54-.21.22-.39.47-.52.74-.14.28-.24.55-.32.82s-.13.53-.16.77-.05.44-.05.6c0 .22.03.44.09.64s.16.38.3.53.33.27.56.36.53.14.88.14c.27 0 .52-.02.75-.07.22-.05.42-.11.6-.2s.33-.19.46-.31.24-.24.32-.38c.08-.14.14-.28.19-.43.04-.15.06-.31.06-.46 0-.1-.01-.19-.04-.3-.02-.1-.07-.19-.13-.29-.06-.09-.15-.17-.26-.24-.11-.07-.25-.13-.41-.17.16-.04.3-.11.44-.18.13-.08.25-.17.35-.28.09-.1.17-.23.23-.36.05-.14.08-.29.08-.45 0-.15-.03-.29-.1-.44-.06-.14-.16-.26-.3-.37zm-.86 3.544c-.05.136-.13.258-.24.365s-.255.194-.43.26-.387.1-.634.1c-.36 0-.623-.087-.784-.26-.16-.174-.24-.437-.24-.788 0-.118.006-.242.02-.37.014-.13.035-.266.064-.41h1.144c.233 0 .425.02.577.06s.28.09.37.153c.09.063.15.137.19.223s.05.18.05.27c0 .14-.02.27-.07.41zm.284-2.264c-.052.113-.132.21-.24.293s-.242.147-.407.193c-.16.046-.35.07-.58.07h-1.17c.08-.265.17-.492.29-.682.12-.19.24-.347.38-.473s.3-.218.46-.276c.17-.06.34-.09.52-.09.15 0 .27.01.38.04s.19.07.26.12c.07.05.12.11.16.19.03.07.05.15.05.23 0 .13-.03.26-.08.37zm5.764-.41c0-.143-.03-.288-.092-.432-.06-.146-.158-.277-.293-.395-.134-.118-.306-.215-.516-.29-.2-.075-.46-.113-.76-.113-.35 0-.66.056-.94.167s-.52.26-.73.44-.39.4-.55.64c-.15.24-.28.49-.37.75-.1.26-.17.53-.21.79-.04.27-.06.52-.06.75 0 .3.04.56.12.79.08.22.2.41.36.56.16.15.36.26.6.33s.52.11.84.11c.18 0 .36-.01.54-.03.18-.02.35-.05.5-.08.15-.03.28-.07.39-.11.11-.04.18-.08.23-.12.03-.03.06-.07.08-.11s.04-.09.06-.15c.02-.05.03-.1.03-.15.01-.05.02-.09.02-.13 0-.04-.01-.07-.02-.09-.01-.02-.04-.03-.07-.03-.03 0-.09.02-.17.06s-.19.07-.33.11c-.13.04-.29.07-.47.11s-.39.05-.61.05c-.4 0-.68-.1-.86-.29-.18-.19-.27-.46-.27-.82 0-.1.01-.2.02-.31.01-.11.02-.22.05-.34h.57c.53 0 .98-.04 1.36-.11.38-.07.69-.18.94-.32.24-.14.42-.3.54-.5.12-.19.17-.42.17-.66zm-1.002.42c-.063.106-.17.2-.322.28-.152.082-.354.146-.607.192-.25.046-.56.07-.94.07h-.55c.06-.2.14-.39.24-.572.1-.18.22-.34.36-.475.14-.14.3-.25.48-.33.18-.08.39-.12.62-.12.27 0 .47.05.62.17.14.11.22.26.22.44 0 .11-.03.23-.09.34zm4.598-1.344c-.137-.1-.307-.176-.51-.228-.205-.052-.438-.078-.7-.078-.178 0-.354.017-.527.05-.17.035-.33.075-.48.12-.15.044-.27.093-.38.147s-.18.1-.21.14c-.03.03-.05.07-.08.12l-.06.15s-.03.11-.04.16c-.01.05-.01.1-.01.15 0 .1.03.15.09.15.04 0 .1-.02.19-.07.09-.04.2-.1.33-.16.14-.06.29-.11.46-.16.17-.05.36-.07.56-.07.28 0 .49.05.65.15s.24.25.24.45c0 .15-.03.28-.1.4s-.17.22-.3.3c-.13.08-.29.15-.48.19-.19.05-.4.07-.64.07h-.47c-.05 0-.1.02-.13.07s-.06.1-.08.16c-.02.07-.03.13-.04.18 0 .06-.01.1-.01.12 0 .05.01.08.04.11.03.02.06.04.11.04h.59c.23 0 .42.02.58.06.16.04.28.09.38.15.1.06.17.13.21.21s.07.16.07.24c0 .16-.03.3-.1.43s-.16.24-.28.34c-.12.09-.28.17-.46.22-.18.05-.39.08-.62.08-.21 0-.4-.02-.55-.07-.15-.04-.27-.09-.37-.15-.1-.05-.18-.1-.25-.15-.06-.04-.11-.06-.16-.06-.03 0-.06.02-.09.06-.03.04-.05.08-.07.14-.02.06-.03.11-.04.17-.01.06-.01.11-.01.15 0 .08.02.14.07.17.05.05.12.1.22.16.1.05.21.1.34.14.13.04.28.08.44.1.16.03.32.04.49.04.39 0 .73-.04 1.03-.14s.56-.23.76-.39c.21-.17.36-.36.47-.58s.16-.46.16-.71c0-.14-.02-.27-.08-.38s-.12-.21-.2-.29-.18-.15-.29-.2c-.1-.05-.22-.08-.33-.09l.01-.01c.18-.04.34-.11.48-.21s.28-.2.38-.32c.11-.12.19-.25.25-.39s.09-.29.09-.43c0-.18-.03-.34-.1-.48-.07-.15-.17-.27-.31-.37zm4.907-1.918c-.222-.23-.49-.396-.81-.502-.315-.106-.67-.16-1.06-.16-.08 0-.14.005-.18.014-.042.01-.07.024-.09.046-.013.014-.028.036-.042.064s-.027.06-.037.097c-.012.04-.02.08-.03.12s-.017.08-.024.12l-.016.1s-.006.05-.006.07c0 .06.017.1.05.13s.1.04.208.04c.358 0 .656.06.895.17.238.11.43.27.572.46.143.2.245.42.307.68.06.26.09.53.09.82v.19c0 .04-.002.09-.01.12-.043-.13-.105-.25-.188-.36-.083-.11-.184-.2-.3-.28-.12-.08-.256-.14-.41-.18-.153-.04-.323-.07-.51-.07-.32 0-.604.06-.86.17-.254.11-.478.26-.676.44s-.365.4-.505.63c-.14.24-.255.49-.344.75s-.16.52-.2.77c-.05.26-.07.5-.07.73 0 .27.03.51.09.73.06.22.16.41.3.57.14.16.31.29.54.38.22.09.49.13.81.13.36 0 .68-.05.96-.16.28-.11.53-.25.75-.44.21-.18.4-.39.56-.63.15-.24.29-.49.4-.76.11-.26.19-.53.26-.81.06-.27.11-.53.15-.78.04-.24.06-.47.07-.67s.01-.36.01-.49c0-.5-.06-.94-.18-1.3-.12-.36-.29-.65-.51-.88zm-.563 4.346c-.033.168-.082.337-.148.507-.066.17-.15.334-.25.492-.1.158-.22.297-.36.42s-.296.22-.472.294-.37.12-.586.12c-.318 0-.553-.1-.703-.3s-.226-.48-.226-.85c0-.12.012-.28.035-.46.022-.18.062-.37.115-.56.054-.19.124-.39.21-.58.086-.19.193-.36.322-.52s.27-.27.45-.37c.17-.09.37-.14.6-.14.34 0 .6.14.78.4.18.27.27.63.27 1.1 0 .14-.02.3-.05.47zm7.85-2.246c-.16-.158-.362-.278-.607-.363-.245-.09-.54-.13-.884-.13-.33 0-.63.05-.9.14-.27.1-.51.23-.72.4-.21.16-.39.36-.55.59-.15.22-.28.47-.39.72s-.18.52-.23.79c-.04.27-.07.54-.07.81 0 .29.04.55.12.78.08.22.19.42.35.58s.36.27.61.36c.25.08.54.12.89.12.34 0 .64-.05.91-.15.28-.1.52-.23.73-.4s.4-.37.56-.59.29-.47.39-.72c.1-.26.18-.52.23-.8.05-.28.08-.55.08-.81 0-.29-.04-.55-.11-.78s-.19-.43-.35-.58zm-.518 2.02c-.032.208-.082.412-.147.612-.066.2-.15.39-.253.564-.102.175-.222.33-.36.462-.138.132-.293.237-.467.314-.173.077-.37.115-.588.115-.2 0-.37-.03-.52-.09-.14-.06-.26-.13-.34-.23-.09-.1-.15-.23-.19-.37s-.06-.31-.06-.49c0-.2.01-.41.05-.62.03-.21.08-.42.14-.61.06-.2.15-.39.25-.56.1-.18.22-.33.36-.46.14-.13.29-.24.47-.32.17-.08.37-.12.58-.12.2 0 .37.02.51.08s.25.13.34.23c.09.1.15.22.19.36.03.14.05.3.05.48 0 .2-.02.4-.05.61zm8.666-2.127c-.1-.118-.23-.21-.39-.28-.163-.067-.363-.1-.603-.1-.2 0-.398.037-.592.112s-.372.17-.537.282c-.164.11-.31.23-.435.37s-.224.26-.296.39c-.01-.17-.04-.33-.086-.47-.04-.14-.11-.27-.21-.37-.1-.1-.22-.19-.38-.24-.15-.06-.33-.09-.55-.09-.2 0-.4.04-.6.11s-.37.17-.54.28c-.16.11-.31.24-.43.37s-.21.26-.26.38l.19-.92c.01-.03 0-.05 0-.07s-.02-.04-.05-.06c-.03-.02-.06-.03-.11-.03-.05-.01-.11-.01-.19-.01-.07 0-.13 0-.18.01-.05 0-.09.01-.13.03s-.06.03-.07.05c-.01.02-.02.04-.03.07l-.97 4.84c-.01.02 0 .05.01.07.01.02.03.03.06.05s.07.02.13.03.13.01.22.01.16 0 .22-.01.1-.02.14-.03c.04-.02.06-.03.08-.05.02-.02.03-.05.04-.08l.43-2.16c.06-.31.16-.6.29-.86.13-.26.28-.49.45-.68.17-.19.35-.34.54-.45.19-.11.38-.17.56-.17.22 0 .37.06.46.19.09.13.14.3.14.52 0 .09 0 .18-.01.29s-.02.21-.05.31l-.59 2.99c0 .03 0 .05.01.07.01.02.03.04.06.05.03.01.07.02.13.03s.13.01.21.01.16 0 .22-.01.11-.02.15-.03c.04-.02.07-.03.09-.05.02-.02.03-.05.04-.08l.43-2.16c.07-.31.16-.6.29-.86.14-.27.29-.49.46-.68.17-.19.36-.34.55-.45.19-.11.38-.17.56-.17.22 0 .37.07.46.2.09.13.13.32.13.55 0 .09 0 .18-.02.28s-.03.19-.05.29l-.59 2.99c0 .03 0 .05.01.07.01.02.03.04.07.05.03.02.08.03.13.04.06.01.13.01.21.01s.16 0 .22-.01.11-.02.15-.03c.04-.01.06-.03.08-.05.02-.02.03-.04.04-.07l.61-3.02c.03-.13.05-.25.06-.37s.02-.24.02-.37c0-.18-.02-.36-.06-.51s-.12-.29-.22-.41zm3.683 2.068c.1-.05.2-.116.303-.2.103-.082.205-.18.31-.294.103-.12.204-.25.3-.41l.715-1.13c.04-.06.07-.11.08-.14.02-.04.03-.07.03-.1 0-.02 0-.04-.01-.05-.01-.02-.03-.03-.05-.04-.03-.01-.07-.02-.12-.02-.05-.01-.12-.01-.2-.01-.1 0-.18 0-.24.01-.06 0-.12.01-.16.03s-.08.03-.1.05-.04.04-.06.07l-.64 1.08c-.09.16-.19.3-.29.41-.1.11-.2.2-.31.28-.11.07-.22.12-.34.15-.12.03-.24.05-.37.05h-.36l.41-2.03c.01-.02 0-.04-.02-.05-.01-.02-.04-.03-.07-.04s-.07-.02-.13-.03c-.05-.01-.12-.01-.19-.01s-.14 0-.2.01c-.05 0-.1.01-.14.02-.04.01-.07.02-.09.04-.02.01-.03.03-.03.05l-.98 4.91c0 .01 0 .03.02.05s.04.03.07.04c.04.01.08.02.14.02s.12.01.2.01c.08 0 .15 0 .2-.01s.11-.02.15-.03c.04-.02.07-.03.09-.05.02-.02.04-.04.04-.06l.43-2.18h.38c.16 0 .29.01.41.04s.22.07.3.14.15.16.21.27c.05.11.1.25.13.41l.27 1.27c0 .03.01.05.03.07.01.02.04.03.07.05.03.01.08.02.14.03.06 0 .14.01.24.01.09 0 .16-.01.22-.01.06-.01.11-.02.15-.04.038-.01.06-.03.07-.05s.02-.05.02-.08c0-.02 0-.04-.01-.07-.002-.03-.01-.06-.02-.09l-.3-1.25c-.04-.15-.082-.29-.14-.41-.06-.12-.122-.22-.2-.31-.07-.09-.15-.16-.24-.22s-.18-.1-.282-.14v-.01c.09-.03.18-.07.28-.12zm6.105-1.937c-.114-.155-.265-.28-.448-.373-.185-.093-.413-.14-.686-.14-.21 0-.418.038-.623.113-.2.075-.38.17-.55.288-.16.116-.31.24-.43.376-.12.134-.2.26-.25.378l.19-.918c.01-.03 0-.054 0-.075-.01-.02-.02-.04-.05-.05-.03-.014-.07-.022-.11-.028-.04-.005-.1-.008-.18-.008-.15 0-.25.01-.32.03s-.1.06-.1.12l-1.36 6.75c0 .03 0 .05.01.07s.03.04.06.05.08.02.13.03.13.01.21.01c.09 0 .17-.01.23-.01.06-.01.1-.02.14-.04.03-.02.06-.03.08-.06.01-.02.02-.05.03-.08l.46-2.32c.08.09.17.18.26.25s.19.14.31.2.23.1.36.13.28.05.44.05c.31 0 .6-.06.85-.18s.47-.27.66-.47.35-.42.49-.67c.13-.25.24-.51.33-.77s.14-.53.18-.79c.04-.26.06-.49.06-.7 0-.24-.02-.47-.07-.69-.05-.21-.13-.4-.25-.55zm-.648 1.84c-.026.2-.07.403-.13.607-.058.204-.132.4-.22.59-.087.19-.19.36-.31.51-.12.15-.26.272-.415.36-.155.09-.328.135-.518.135-.244 0-.463-.062-.656-.186-.19-.123-.37-.31-.54-.56l.18-.887c.06-.312.16-.6.3-.862.14-.263.29-.49.46-.685s.36-.344.56-.45c.2-.108.4-.162.59-.162.14 0 .26.025.35.075.1.05.18.13.23.22.06.1.11.21.13.34.03.13.04.27.04.43 0 .16-.01.35-.04.55zm4.94-.146c-.148-.117-.332-.21-.55-.276-.22-.066-.47-.1-.753-.1-.18 0-.354.013-.523.036-.17.023-.327.057-.47.1l.338-1.724c.003-.03 0-.053-.008-.073-.01-.02-.028-.037-.06-.054-.03-.02-.073-.03-.13-.04-.054-.01-.125-.01-.21-.01h-.22c-.058 0-.106.01-.144.03-.038.01-.065.03-.084.05-.018.02-.028.04-.03.07l-.636 3.17c-.057.28-.07.54-.037.77.032.23.11.43.24.59.126.16.305.29.533.38s.512.14.85.14c.324 0 .63-.05.915-.14.29-.09.54-.23.75-.4.22-.18.38-.39.51-.66.13-.26.19-.57.19-.92 0-.21-.04-.4-.12-.57s-.19-.32-.34-.43zm-.55 1.642c-.07.16-.163.295-.283.408-.12.112-.263.198-.427.258-.164.06-.344.088-.537.088-.33 0-.564-.098-.706-.292-.142-.195-.173-.49-.095-.884l.156-.74c.146-.047.302-.084.465-.11.162-.027.338-.04.523-.04.158 0 .3.016.424.05.126.034.23.084.317.15.086.066.15.147.196.242.045.095.066.205.066.33 0 .2-.04.38-.1.54zm3.37-3.732c-.03-.017-.074-.027-.13-.033-.056-.005-.126-.008-.212-.008h-.218s-.106.01-.142.03c-.036.01-.064.03-.084.05-.02.02-.03.04-.035.07l-.97 4.83c-.01.03-.01.05 0 .07.01.02.03.04.06.05s.07.03.13.03.12.01.21.01.16-.01.22-.01c.06-.01.1-.02.14-.04.03-.01.06-.03.08-.05.01-.02.02-.05.03-.07l.97-4.84c0-.03 0-.05-.02-.07-.01-.02-.03-.04-.06-.06zm7.686.265c-.1-.118-.23-.21-.392-.28s-.362-.1-.602-.1c-.2 0-.397.037-.59.112s-.374.17-.538.282c-.164.11-.31.23-.436.37-.125.13-.223.26-.295.39-.01-.17-.04-.33-.086-.47-.047-.14-.12-.27-.218-.37-.1-.1-.23-.19-.38-.24-.16-.06-.34-.09-.56-.09-.21 0-.41.04-.6.11s-.38.17-.54.28-.31.24-.43.37c-.13.13-.21.26-.27.38l.18-.93c0-.02 0-.05-.01-.07-.01-.02-.03-.04-.06-.05-.03-.02-.07-.03-.11-.03-.05-.01-.11-.01-.19-.01s-.14 0-.19.01c-.06.01-.1.02-.13.03-.04.01-.06.03-.08.05-.02.02-.03.04-.03.07l-.97 4.84c-.01.02-.01.05 0 .07.01.02.03.03.06.05s.07.02.13.03.13.01.22.01c.08 0 .16 0 .21-.01.06-.01.11-.02.14-.03s.06-.03.08-.05c.02-.02.03-.05.04-.08l.43-2.16c.06-.31.16-.59.29-.86.13-.26.29-.49.46-.68.17-.19.35-.34.54-.45.19-.11.37-.16.56-.16.21 0 .36.06.45.19.09.13.13.3.13.52 0 .09-.01.18-.02.29-.01.1-.03.21-.05.32l-.6 2.98c-.01.03 0 .05.01.07.01.02.03.03.06.05s.07.02.12.03c.05.01.12.01.21.01s.16 0 .21-.01c.06-.01.1-.02.14-.03.03-.02.06-.03.08-.05.02-.02.03-.05.03-.08l.43-2.16c.06-.31.15-.6.29-.86.13-.27.28-.49.45-.68.17-.2.35-.35.54-.45.19-.11.37-.17.55-.17.22 0 .37.07.46.2.08.13.13.32.13.54 0 .1-.01.19-.02.28-.01.09-.03.19-.05.3l-.59 2.99c0 .03 0 .05.01.07.02.02.03.03.07.05.03.01.07.02.13.03.05 0 .12.01.21.01s.16 0 .22-.01.11-.02.14-.03c.04-.02.07-.03.09-.05.017-.02.027-.05.03-.08l.607-3.02c.022-.13.042-.26.06-.38.01-.12.02-.25.02-.37 0-.19-.02-.36-.067-.52s-.12-.29-.22-.41zm5.584-.27c-.028-.013-.066-.023-.115-.03-.048-.004-.107-.007-.18-.007-.143 0-.25.013-.316.038-.07.025-.11.066-.13.124l-.11.49c-.18-.227-.38-.404-.61-.533-.23-.13-.5-.193-.82-.193-.32 0-.61.06-.86.18s-.47.28-.66.48c-.19.197-.36.422-.49.673-.14.25-.24.508-.33.773-.09.265-.15.524-.19.78-.04.253-.06.48-.06.68 0 .22.02.433.06.64s.11.394.23.56c.11.164.26.296.44.396.19.1.42.15.71.15.21 0 .41-.038.62-.113.2-.075.39-.17.55-.285.16-.115.31-.24.43-.376s.2-.26.25-.376l-.18.913c-.01.03-.01.05 0 .07.01.02.03.03.06.05.03.01.06.02.11.03s.1.01.17.01c.15 0 .26-.01.32-.04s.1-.07.12-.13l.97-4.84c0-.03 0-.05-.01-.07-.01-.02-.03-.04-.06-.06zm-1.256 2.28c-.064.314-.164.603-.296.864s-.284.48-.456.68-.357.34-.557.45c-.198.11-.396.16-.594.16-.15 0-.27-.03-.37-.1-.1-.07-.17-.15-.23-.25-.05-.11-.09-.22-.11-.34-.02-.12-.03-.25-.03-.37 0-.16.02-.34.04-.53.03-.2.07-.4.13-.6.06-.21.13-.41.22-.6s.19-.37.31-.52.26-.27.42-.37c.16-.09.33-.14.52-.14.25 0 .47.06.66.18.2.12.38.31.55.55l-.18.89zm4.436-4.502c-.034-.02-.08-.037-.143-.045-.062-.01-.14-.014-.236-.014-.09 0-.17.004-.23.014s-.12.023-.16.043c-.04.02-.07.05-.1.08s-.04.07-.05.12l-.92 5.13c-.01.03-.01.06 0 .08.01.02.03.04.05.06.03.02.07.03.11.03.05.01.11.01.19.01s.14 0 .19-.01c.06 0 .1-.02.13-.03s.07-.03.08-.05c.02-.02.03-.05.03-.07l1.12-5.12c.01-.04.02-.08.01-.11s-.02-.06-.06-.08zm-1.23 6.24c-.034-.03-.083-.05-.147-.066-.064-.017-.148-.024-.252-.024-.11 0-.21.01-.29.03-.07.02-.14.058-.19.115-.03.04-.06.092-.09.16-.03.065-.05.134-.07.206-.02.072-.03.142-.04.21s-.01.124-.01.17c0 .055.01.103.02.146s.04.078.07.105c.04.026.09.047.15.062.07.014.14.02.24.02.13 0 .23-.012.31-.037.08-.025.15-.064.2-.118.04-.036.07-.085.1-.148.03-.063.05-.13.07-.198.02-.07.04-.14.05-.21.01-.07.02-.13.02-.18 0-.046 0-.09-.02-.134s-.03-.08-.07-.108z"/></svg>