<svg xmlns="http://www.w3.org/2000/svg" width="437.214" height="143.441" viewBox="0 0 437.214 143.441"><path fill-rule="evenodd" d="M123.732 0h115.26v98.54H184.34V16.67h-5.954v81.87h-54.653V6.026h3.013v89.5h45.616v-81.87h14.992v81.87h45.617V6.024H123.73" clip-rule="evenodd"/><path d="M243.837 86.424c0-4.322 1.648-7.69 4.925-10.096 3.285-2.41 7.856-3.61 13.713-3.61 6.013 0 10.644 1.182 13.896 3.55 3.24 2.36 4.88 5.68 4.88 9.94 0 3.095-.71 5.636-2.13 7.615-1.42 1.98-3.47 3.52-6.15 4.625-2.69 1.102-6.02 1.65-10.03 1.65-4.07 0-7.44-.474-10.11-1.423-2.66-.955-4.82-2.46-6.49-4.52-1.65-2.06-2.48-4.636-2.48-7.73zm11.16.037c0 2.68.673 4.6 2.03 5.77 1.35 1.17 3.198 1.75 5.525 1.75 2.394 0 4.253-.57 5.563-1.71 1.312-1.14 1.978-3.2 1.978-6.16 0-2.5-.69-4.32-2.063-5.47-1.37-1.14-3.227-1.72-5.578-1.72-2.247 0-4.05.58-5.414 1.76-1.358 1.17-2.04 3.1-2.04 5.8zm32.633-13.29h18.538c4.036 0 7.06.71 9.068 2.12 2.01 1.41 3.02 3.42 3.02 6.01 0 2.68-1.094 4.77-3.285 6.27-2.19 1.51-5.53 2.26-10.03 2.26h-6.1v9.83h-11.21V73.17zm11.203 11.29h2.73c2.15 0 3.657-.27 4.53-.82.865-.55 1.305-1.25 1.305-2.1 0-.83-.38-1.54-1.135-2.11-.75-.58-2.17-.87-4.256-.87h-3.175v5.91zm23.155-11.29h33.903v6.55h-11.38v19.94h-11.14V79.71h-11.38v-6.543zm61.59 22.11h-12.706l-1.75 4.38H357.73l13.562-26.48h12.157l13.57 26.48h-11.67l-1.78-4.37zm-2.335-5.72l-3.994-9.52-3.97 9.52h7.96zm55.97 10.1h-11.15V79.67h-8.727v8.146c0 3.347-.233 5.808-.723 7.38-.487 1.573-1.61 2.727-3.395 3.46-1.78.732-4.654 1.102-8.63 1.102-1.22 0-2.613-.096-4.187-.29V94.11h1.68c1.51 0 2.58-.246 3.2-.732.62-.49.94-1.384.94-2.684V73.167h31V99.65zm-293.783 31.6h-10.17l-1.4 4.06h-9.124l10.86-24.58h9.734l10.866 24.58h-9.346l-1.417-4.05zm-1.87-5.32l-3.195-8.83-3.175 8.84h6.37zm15.803-15.2h14.84c3.23 0 5.65.65 7.26 1.96 1.608 1.31 2.416 3.17 2.416 5.58 0 2.49-.88 4.43-2.64 5.82-1.76 1.4-4.44 2.1-8.04 2.1h-4.89v9.12h-8.97v-24.58zm8.966 10.48h2.18c1.72 0 2.92-.25 3.62-.76.69-.51 1.04-1.16 1.04-1.95 0-.77-.31-1.43-.91-1.96-.6-.54-1.74-.8-3.41-.8h-2.55v5.48zm29.51-1h4.77c4.37 0 7.62.66 9.73 1.98 2.11 1.31 3.16 3.36 3.16 6.13 0 2.27-.97 4.01-2.91 5.21-1.94 1.2-4.72 1.8-8.35 1.8H186.9v-24.58h8.915v9.47zm0 9.83h4.57c2.79 0 4.2-.85 4.2-2.58 0-1.51-1.41-2.26-4.2-2.26h-4.57v4.85zm48.92 5.29h-10.05l-3.48-6.35c-.83-1.5-1.48-2.44-1.93-2.81-.47-.38-1.1-.56-1.91-.56v9.73h-8.92v-24.58h8.91v9.44c.77-.03 1.38-.26 1.81-.7.43-.44 1.11-1.68 2.03-3.76.67-1.52 1.35-2.62 2.03-3.29.68-.67 1.79-1.14 3.33-1.43 1.53-.29 3.95-.43 7.23-.43v5.2h-.45c-1.53 0-2.66.25-3.4.74-.74.49-1.34 1.29-1.82 2.39-.47 1.11-.99 1.93-1.53 2.47-.55.547-1.3.98-2.24 1.3 1.28.36 2.41.98 3.37 1.85.95.88 1.98 2.248 3.06 4.1l3.92 6.73zm2.41-12.27c0-4.01 1.32-7.13 3.94-9.37 2.63-2.23 6.29-3.35 10.98-3.35 4.81 0 8.52 1.1 11.12 3.3 2.59 2.19 3.9 5.27 3.9 9.23 0 2.88-.58 5.23-1.72 7.07-1.14 1.84-2.78 3.27-4.93 4.3-2.15 1.02-4.83 1.53-8.03 1.53-3.26 0-5.96-.44-8.1-1.32-2.14-.89-3.86-2.29-5.2-4.2-1.32-1.91-1.99-4.3-1.99-7.18zm8.93.04c0 2.48.53 4.27 1.62 5.35 1.08 1.08 2.56 1.63 4.42 1.63 1.91 0 3.4-.53 4.45-1.59 1.05-1.06 1.58-2.97 1.58-5.72 0-2.32-.56-4-1.65-5.07-1.1-1.06-2.59-1.6-4.47-1.6-1.8 0-3.25.54-4.34 1.62-1.09 1.09-1.64 2.88-1.64 5.38zm26.18-12.34H299c2.784 0 4.924.59 6.41 1.76 1.494 1.17 2.243 2.63 2.243 4.36 0 1.46-.533 2.7-1.596 3.74-.71.7-1.75 1.24-3.114 1.65 2.075.43 3.6 1.16 4.584 2.19.976 1.03 1.468 2.33 1.468 3.9 0 1.28-.35 2.42-1.04 3.44-.704 1.02-1.648 1.82-2.86 2.42-.748.37-1.878.64-3.39.8-2.01.225-3.345.34-4.006.34h-15.41v-24.58zm9 9.65h3.88c1.39 0 2.36-.2 2.91-.61.54-.41.81-1 .81-1.77 0-.71-.27-1.27-.82-1.67-.55-.41-1.5-.61-2.86-.61h-3.93v4.67zm0 9.66h4.56c1.54 0 2.62-.23 3.24-.69.63-.46.95-1.08.95-1.87 0-.73-.31-1.31-.94-1.75-.63-.44-1.72-.66-3.29-.66h-4.53v4.98zm41.96-4.76l7.82 2.02c-.52 1.87-1.35 3.42-2.48 4.67-1.13 1.26-2.54 2.2-4.21 2.84-1.68.64-3.81.96-6.4.96-3.14 0-5.71-.39-7.7-1.16-2-.77-3.72-2.14-5.16-4.1-1.44-1.95-2.17-4.46-2.17-7.51 0-4.07 1.27-7.2 3.81-9.38 2.54-2.19 6.14-3.28 10.79-3.28 3.64 0 6.5.62 8.59 1.88 2.08 1.257 3.63 3.18 4.64 5.77l-7.89 1.495c-.28-.75-.57-1.3-.87-1.65-.5-.58-1.11-1.027-1.83-1.34-.73-.32-1.54-.47-2.43-.47-2.02 0-3.57.69-4.65 2.075-.82 1.03-1.23 2.646-1.23 4.85 0 2.73.49 4.597 1.46 5.61.98 1.01 2.34 1.517 4.1 1.517 1.71 0 3-.41 3.88-1.23.87-.81 1.5-1.995 1.9-3.55zm38.78 10.05h-10.05L358.5 129c-.83-1.5-1.48-2.44-1.94-2.81-.47-.38-1.1-.56-1.91-.56v9.72h-8.92v-24.58h8.91v9.44c.777-.03 1.38-.265 1.81-.703.44-.44 1.11-1.68 2.036-3.76.67-1.53 1.344-2.63 2.03-3.29.68-.67 1.79-1.146 3.33-1.44 1.534-.29 3.95-.435 7.23-.435v5.196h-.45c-1.525 0-2.656.248-3.39.74-.74.49-1.34 1.286-1.816 2.386-.47 1.103-.98 1.922-1.523 2.47-.54.55-1.29.98-2.23 1.3 1.28.36 2.41.98 3.364 1.853.96.88 1.98 2.248 3.06 4.1l3.92 6.73zm31.2-24.58v24.58h-8.4v-13.5L384 135.33h-8.41v-24.58h8.416v13.595l10.887-13.6h8.335zm33.97 0v24.58h-8.39v-13.5l-10.82 13.49h-8.42v-24.58h8.41v13.6l10.88-13.59h8.33zm-6.55-6.06c-.28 1.41-1.08 2.55-2.4 3.42-1.32.86-2.9 1.3-4.72 1.3s-3.39-.436-4.72-1.313c-1.33-.87-2.12-2-2.39-3.402h3.43c.55 1.4 1.74 2.1 3.58 2.1 1.97 0 3.22-.69 3.76-2.1h3.43z"/><path fill-rule="evenodd" d="M110.69 140.43L63.555 48.754H6.09l46.86 91.675h57.74zm-56.197 3.01H51.48L3.08 48.755h-.07v-.13L0 42.73h66.482l51.78 100.71h-63.77zm40.18-57.747h-3.01L69.7 42.73h47.222L94.674 85.693zm16.118-36.94L93.18 82.77 75.79 48.754h35zM8.56 140.43l15.582-30.326 15.58 30.326H8.554zm32.71 3.01H3.994l19.42-37.794h4.458L47.29 143.44h-6.025z" clip-rule="evenodd"/></svg>