<svg xmlns="http://www.w3.org/2000/svg" width="1539.069" height="299.49" viewBox="0 0 1539.069 299.49"><path fill="#033b6a" d="M81.371 242.825H0V120.254h16.205v108.455h65.166v14.116zM111.198 120.254v77.295c0 23.585 9.481 34.43 33.1 34.43 24.824 0 33.099-11.878 33.099-34.43v-77.295h16.378v72.992c0 34.43-12.241 52.161-49.477 52.161-35.514 0-49.477-16.526-49.477-50.439v-74.713h16.377zM271.009 245.751c-34.996 0-56.889-24.79-56.889-64.04 0-35.119 20.342-64.212 58.097-64.212 24.135 0 48.442 13.428 50.855 39.595h-16.205c-3.62-16.01-16.722-25.651-34.996-25.651-29.134 0-41.375 24.274-41.375 50.096 0 31.159 15.688 50.268 41.203 50.268 20.859 0 33.617-12.395 36.202-35.291h16.205c-2.757 31.159-22.756 49.235-53.097 49.235zM392.549 169.489l53.787 73.336h-20.688l-44.478-62.318-20.342 19.281v43.037h-16.205V120.254h16.205v60.769l62.233-60.769h21.205l-51.717 49.235zM510.297 192.729v50.096h-16.032v-50.096l-47.753-72.475h19.48l36.721 58.359 36.375-58.359h18.618l-47.409 72.475z"/><path fill="#033b6a" d="M830.344 117.663v77.295c0 23.585 9.481 34.43 33.1 34.43 24.824 0 33.1-11.878 33.1-34.43v-77.295h16.377v72.991c0 34.43-12.24 52.161-49.477 52.161-35.514 0-49.478-16.526-49.478-50.439v-74.713h16.378zM987.224 166.897l53.787 73.336h-20.688l-44.478-62.318-20.342 19.281v43.037h-16.205v-122.57h16.205v60.769l62.233-60.769h21.205l-51.717 49.234zM1108.247 117.663c23.102 0 41.202 7.574 41.202 33.913 0 14.289-8.447 26.167-21.031 29.782 17.239 3.615 17.929 15.321 18.618 30.126.518 9.813.518 22.207 7.068 28.749h-18.619c-3.965-6.197-3.792-19.97-4.137-27.027-1.035-20.658-6.379-25.995-28.618-25.995h-32.237v53.022h-16.205v-122.57h53.959zm-37.754 56.636h30.514c15.86 0 32.238-1.549 32.238-21.69 0-18.248-13.447-21.175-27.929-21.175h-34.823v42.865zM1271.854 240.233h-18.102l-13.619-37.528h-51.545l-13.964 37.528h-17.24l48.271-122.57h18.274l47.925 122.57zm-57.408-107.077l-21.204 56.638h42.064l-20.86-56.638zM1300.992 240.233h-16.205v-122.57h16.205v122.57zM1345.813 117.663l64.82 99.502v-99.502h15.688v122.57h-18.273l-64.476-98.297v98.297h-15.515v-122.57h17.756zM1538.208 131.779h-68.785v38.39h64.303v13.6h-64.303v42.349h69.646v14.116h-85.852v-122.57h84.99v14.115z"/><path fill="none" d="M738.493 194.254zM746.018 175.018a18.952 18.952 0 0 0 0 0zM743.677 186.01zM745.256 181.457zM744.564 183.773zM740.711 191.285zM689.239 216.75c0-16.12-.015-32.24-.018-48.359.004 16.118.018 32.238.018 48.359zM616.595 162.222zM615.51 165.581zM601.025 191.515a87.522 87.522 0 0 1 0 0z"/><path fill="#d7f703" d="M813.942 294.526c-1.032-1.262-2.063-2.524-3.106-3.777-2.087-2.504-4.221-4.966-6.503-7.29a67.332 67.332 0 0 0-3.547-3.372c-2.229-1.965-4.587-3.714-7.108-5.178a38.303 38.303 0 0 0-1.923-1.043 35.132 35.132 0 0 0-6.169-2.421 45.525 45.525 0 0 0-2.31-.595c-3.86-.892-7.77-1.287-11.712-1.351a78.336 78.336 0 0 0-4.745.073c-8.306.369-16.464 1.832-24.642 3.167-1.168.19-2.337.379-3.507.561-3.02.47-6.042.946-9.067 1.392-5.043.743-10.098 1.399-15.168 1.793-5.879.456-11.794.447-17.706.471-1.971.008-3.941.02-5.91.053-.197.003-.37.005-.521.004-.302-.003-.517-.02-.672-.075-.386-.14-.387-.518-.387-1.497-.001-11.619-.001-23.237.002-34.856h-.001v-22.008h-.001v-1.826c0-16.12-.015-32.24-.018-48.359-.003-16.12.004-32.24.049-48.359.031-11.354.3-22.71.69-34.058.337-9.806 1.787-19.488 3.961-29.065 1.679-7.396 3.843-14.699 4.329-22.335.422-6.636-.959-12.67-5.237-17.951-2.588-3.195-5.582-5.939-8.706-8.564-1.554-1.306-3.167-2.541-4.998-4.002-3.661 3.499-7.398 6.818-10.838 10.421-4.896 5.129-7.069 11.382-6.92 18.478.118 5.602 1.332 11.019 2.603 16.429 2.314 9.849 4.576 19.72 5.246 29.842.557 8.415 1.072 16.852 1.099 25.28.062 18.8.077 37.599.078 56.398 0 18.8-.014 37.6-.012 56.399 0 .046-.005.093-.006.14v21.795l.009.002V293.618c0 .389 0 .682.025.9.025.219.075.365.174.463.199.195.595.196 1.387.196h141.311l.85.001c-.162-.286-.235-.443-.303-.554a.85.85 0 0 0-.07-.098z"/><path fill="#0387f7" d="M669.808 218.586c-5.282-.423-10.407-1.361-15.367-2.852-.024-.007-.047-.016-.07-.022a70.149 70.149 0 0 1-3.616-1.196c-.193-.07-.382-.154-.574-.227a68.918 68.918 0 0 1-3.051-1.202c-.392-.167-.775-.361-1.164-.536-.802-.36-1.607-.713-2.4-1.105-.836-.414-1.661-.869-2.487-1.319-.336-.184-.679-.348-1.013-.538a85.76 85.76 0 0 1-5.917-3.66c-2.861-1.942-5.564-4.065-8.053-6.435a51.263 51.263 0 0 1-4.678-5.084 48.396 48.396 0 0 1-2.095-2.822 37.587 37.587 0 0 1-2.196-3.599 31.793 31.793 0 0 1-1.184-2.467 27.138 27.138 0 0 1-1.312-3.816c-.905-3.456-1.09-7.092-.374-10.962.325-1.753.753-3.47 1.253-5.164a74.169 74.169 0 0 1 1.084-3.358c.58-1.666 1.208-3.316 1.851-4.961 4.176-10.678 7.542-21.568 9.17-32.951 1.226-8.572 1.723-17.17 1.121-25.824-.592-8.5-2.202-16.78-5.061-24.816-2.766-7.775-6.816-14.822-12.185-21.062-5.207-6.052-11.25-11.246-17.452-16.25-.26-.21-.564-.366-1.026-.662v1.755c0 31.759.002 63.519-.002 95.278 0 5.16-.049 10.32-.043 15.479.002 1.72.011 3.439.029 5.159.043 4.029.125 8.076.54 12.078a76.442 76.442 0 0 0 3.18 15.24 82.2 82.2 0 0 0 4.308 10.828 87.522 87.522 0 0 0 1.777 3.494 85.527 85.527 0 0 0 5.765 9.287 81.93 81.93 0 0 0 8.674 10.259 81.448 81.448 0 0 0 5.986 5.431 84.135 84.135 0 0 0 4.316 3.317 84.383 84.383 0 0 0 4.575 3.074c2.13 1.337 4.298 2.578 6.507 3.717s4.458 2.176 6.751 3.104a77.079 77.079 0 0 0 7.007 2.459 75.377 75.377 0 0 0 7.279 1.776l.009.001c1.562.3 3.134.563 4.721.82 1.774.286 3.572.565 5.402.861l.014.002v-20.529zM689.991 238.878c.123-.019.245-.036.362-.047a88.077 88.077 0 0 0 11.309-1.724 80.313 80.313 0 0 0 7.313-1.975 77.256 77.256 0 0 0 10.585-4.291 95.01 95.01 0 0 0 6.416-3.487 88.203 88.203 0 0 0 6-3.903 84.096 84.096 0 0 0 5.58-4.325 80.3 80.3 0 0 0 7.568-7.287c5.508-6.042 10.128-12.966 13.82-20.798a87.444 87.444 0 0 0 1.893-4.312 83.65 83.65 0 0 0 3.025-8.795 81.366 81.366 0 0 0 2.344-11.313c.308-2.299.52-4.618.634-6.959a85.75 85.75 0 0 0 .1-4.712c-.017-2.56-.039-5.12-.039-7.679-.002-36.759-.001-73.519-.001-110.278v-1.565c-.567.419-.902.634-1.199.892-3.564 3.09-7.173 6.132-10.674 9.292-7.398 6.68-13.248 14.521-17.2 23.696-4.548 10.559-6.568 21.674-6.981 33.114-.254 7.012.257 13.988 1.229 20.922a130.91 130.91 0 0 0 3.813 17.853 146.548 146.548 0 0 0 3.417 10.427c.569 1.545 1.169 3.08 1.766 4.617a204.718 204.718 0 0 1 1.75 4.623c1.118 3.098 2.097 6.24 2.676 9.51.27 1.524.48 3.091.521 4.644.014.518.008 1.033-.021 1.546a25.894 25.894 0 0 1-.741 4.892c-.197.786-.428 1.558-.692 2.316s-.561 1.505-.887 2.237a31.981 31.981 0 0 1-1.661 3.217 36.68 36.68 0 0 1-1.306 2.058 43.787 43.787 0 0 1-2.218 2.97 54.75 54.75 0 0 1-4.633 5.017 61.238 61.238 0 0 1-5.179 4.419 69.26 69.26 0 0 1-3.723 2.65 78.799 78.799 0 0 1-5.604 3.404 73.15 73.15 0 0 1-9.768 4.495 69.807 69.807 0 0 1-8.217 2.502 70.635 70.635 0 0 1-8.588 1.499l-.027.003c-.549.062-1.112.114-1.684.167l-.595.054-.485.044v20.37z"/><path d="M621.417 194.41zM735.888 141.198a146.548 146.548 0 0 0 3.417 10.427c.569 1.545 1.169 3.08 1.766 4.617-.597-1.537-1.196-3.072-1.766-4.617a147.571 147.571 0 0 1-3.417-10.427zM615.942 185.522z"/><path fill="#033b6a" d="M817.519 292.134c-4.097-5.068-8.23-10.113-13.065-14.515-5.796-5.278-12.341-9.173-20.086-10.918-7.453-1.68-14.988-1.962-22.515-1.097-7.684.884-15.333 2.112-22.965 3.388-9.927 1.66-19.857 3.238-29.939 3.52-4.756.133-9.515.143-14.272.2-.344.005-.688-.056-1.074-.089V242.99c.458-.107.877-.217 1.301-.303 3.673-.739 7.397-1.287 11.013-2.241 19.657-5.187 35.479-16.146 47.793-32.219 6.962-9.087 11.726-19.268 14.623-30.343 1.685-6.439 2.914-12.959 2.926-19.614.057-34.24.02-68.479.016-102.719-.001-6.48.031-12.96-.031-19.44-.011-1.038-.218-2.198-.718-3.084-1.228-2.178-4.263-2.643-6.372-.99-7.534 5.903-14.75 12.169-20.784 19.644-4.669 5.785-8.262 12.215-10.871 19.196-3.64 9.74-5.463 19.842-6.002 30.182-.399 7.646.145 15.274 1.239 22.837 1.041 7.191 2.543 14.313 4.843 21.215 2.334 7.006 4.92 13.928 7.388 20.889 2.897 8.173 2.024 15.853-2.972 23.017-3.472 4.979-7.799 9.115-12.749 12.551-7.644 5.304-15.923 9.296-25.083 11.255-1.806.387-3.651.588-5.612.896v-1.626c0-11.88-.102-23.762.02-35.64.322-31.346-.965-62.71.961-94.035.349-5.684 1.06-11.373 2.045-16.982 1.103-6.281 2.728-12.47 4.087-18.708 1.311-6.014 2.534-12.046 1.737-18.26-.629-4.909-2.201-9.421-5.217-13.452-4.154-5.553-9.477-9.816-14.878-14.011-1.794-1.393-4.052-1.336-5.825.175-4.104 3.499-8.288 6.903-11.816 11.038-5.989 7.019-8.281 15.165-7.155 24.177.686 5.487 1.902 10.919 3.101 16.327 1.824 8.223 3.729 16.444 4.326 24.854.645 9.085 1.198 18.198 1.233 27.3.139 35.839.058 71.68.059 107.52v1.493c-2.467-.455-4.805-.745-7.068-1.327-10.13-2.604-19.275-7.205-27.353-13.859-4.989-4.108-9.169-8.876-11.826-14.869-1.759-3.969-2.129-8.033-1.431-12.295.744-4.54 2.424-8.77 4.091-12.997 5.883-14.93 9.752-30.318 10.61-46.381.526-9.857-.21-19.622-2.417-29.279-1.728-7.563-4.197-14.831-7.978-21.611-6.73-12.067-16.846-20.996-27.514-29.379-1.963-1.543-5.004-.827-6.071 1.381-.48.994-.618 2.238-.619 3.368-.03 37.76-.025 75.52-.026 113.279 0 .68-.002 1.36-.034 2.039a82.109 82.109 0 0 0 1.321 18.97c1.663 8.882 4.417 17.419 8.616 25.432 5.541 10.574 13 19.634 22.221 27.207 10.544 8.66 22.447 14.631 35.779 17.649 3.176.72 6.396 1.242 9.698 1.874v9.956c0 13.72-.001 27.439.001 41.159 0 1.89.393 3.692 2.253 4.546 1.081.495 2.383.704 3.587.706 38.12.035 76.239.028 114.359.028 8.92 0 17.841.027 26.76-.033 1.159-.007 2.457-.207 3.442-.76 2.282-1.283 2.656-4.372.889-6.559zm-122.554-74.173a70.57 70.57 0 0 0 14.622-3.722 73.091 73.091 0 0 0 9.768-4.495 80.006 80.006 0 0 0 5.604-3.404 70.233 70.233 0 0 0 3.723-2.65 61.238 61.238 0 0 0 5.179-4.419 54.35 54.35 0 0 0 4.633-5.017 44.125 44.125 0 0 0 2.218-2.97c.459-.675.896-1.36 1.305-2.058a31.981 31.981 0 0 0 1.661-3.217c.326-.732.623-1.479.887-2.237a26.63 26.63 0 0 0 1.175-4.717c.125-.815.211-1.646.258-2.491.029-.513.034-1.028.021-1.546-.04-1.553-.25-3.119-.521-4.644-.58-3.27-1.558-6.412-2.676-9.51a202.913 202.913 0 0 0-1.75-4.623c-.597-1.537-1.196-3.072-1.766-4.617a147.571 147.571 0 0 1-3.417-10.427 130.91 130.91 0 0 1-3.813-17.853c-.973-6.935-1.483-13.91-1.229-20.922.414-11.44 2.433-22.556 6.981-33.114 3.952-9.174 9.802-17.016 17.2-23.696 3.5-3.161 7.109-6.203 10.674-9.292.297-.258.632-.473 1.199-.892v1.565c0 36.759-.001 73.519.001 110.278 0 2.56.022 5.12.039 7.679.01 1.58-.023 3.15-.1 4.711a82.64 82.64 0 0 1-1.379 11.528 81.45 81.45 0 0 1-1.599 6.745 83.96 83.96 0 0 1-3.025 8.795 87.861 87.861 0 0 1-1.893 4.312c-3.692 7.832-8.313 14.756-13.82 20.798a80.3 80.3 0 0 1-7.568 7.287 84.096 84.096 0 0 1-5.58 4.325 88.452 88.452 0 0 1-6 3.903 94.126 94.126 0 0 1-6.416 3.487 76.14 76.14 0 0 1-3.474 1.613 77.546 77.546 0 0 1-7.111 2.678 80.816 80.816 0 0 1-7.313 1.975 88.253 88.253 0 0 1-11.309 1.724 6.094 6.094 0 0 0-.362.047v-20.37l.485-.044.595-.054a81.394 81.394 0 0 0 1.684-.167l.027-.003a65.324 65.324 0 0 0 2.182-.279zm-30.573 20.294a169.536 169.536 0 0 1-4.721-.82l-.009-.001a75.745 75.745 0 0 1-14.286-4.235c-2.292-.929-4.542-1.966-6.751-3.104s-4.377-2.38-6.507-3.717a86.18 86.18 0 0 1-8.891-6.391 82.242 82.242 0 0 1-5.986-5.431 81.385 81.385 0 0 1-8.674-10.259 85.78 85.78 0 0 1-5.765-9.287 87.522 87.522 0 0 1-1.777-3.494 82.2 82.2 0 0 1-4.308-10.828 76.527 76.527 0 0 1-3.18-15.24c-.415-4.002-.497-8.049-.54-12.078-.019-1.72-.027-3.439-.029-5.159-.006-5.159.042-10.319.043-15.479.004-31.759.002-63.519.002-95.278v-1.755c.462.295.766.452 1.026.662 6.202 5.004 12.245 10.198 17.452 16.25 5.369 6.24 9.419 13.287 12.185 21.062 2.859 8.036 4.469 16.317 5.061 24.816.602 8.653.105 17.251-1.121 25.824-1.628 11.383-4.994 22.273-9.17 32.951a140.835 140.835 0 0 0-1.851 4.961 74.169 74.169 0 0 0-1.084 3.358 50.926 50.926 0 0 0-1.253 5.164c-.716 3.87-.531 7.506.374 10.962a27.231 27.231 0 0 0 1.312 3.816c.355.832.75 1.654 1.184 2.467a37.79 37.79 0 0 0 2.196 3.599 47.614 47.614 0 0 0 2.095 2.822 51.263 51.263 0 0 0 4.678 5.084c2.489 2.368 5.192 4.492 8.053 6.435a85.76 85.76 0 0 0 5.917 3.66c.334.19.677.354 1.013.538.826.45 1.65.905 2.487 1.319.793.393 1.598.745 2.4 1.105.389.175.772.369 1.164.536 1.008.43 2.028.821 3.051 1.202.192.072.381.156.574.227 1.195.433 2.401.83 3.616 1.196.023.007.046.016.07.022 4.959 1.489 10.085 2.429 15.367 2.852v20.532l-.014-.002c-1.831-.298-3.627-.577-5.403-.864zm149.073 56.922H672.154c-.792 0-1.188-.001-1.387-.196-.099-.098-.149-.244-.174-.463-.025-.219-.025-.511-.025-.9v-26.399-26.399-1.578l-.009-.002v-21.795c.001-.047.006-.093.006-.14-.001-18.8.013-37.6.012-56.399 0-18.799-.016-37.599-.078-56.398-.027-8.429-.542-16.865-1.099-25.28-.67-10.122-2.931-19.993-5.246-29.842-1.271-5.411-2.485-10.827-2.603-16.429-.149-7.095 2.023-13.349 6.92-18.478 3.44-3.603 7.177-6.922 10.838-10.421 1.83 1.461 3.443 2.696 4.998 4.002 3.125 2.625 6.118 5.369 8.706 8.564 4.278 5.28 5.66 11.315 5.237 17.951-.485 7.636-2.649 14.938-4.329 22.335-2.174 9.577-3.624 19.259-3.961 29.065-.391 11.348-.659 22.705-.69 34.058-.045 16.12-.053 32.239-.049 48.359.003 16.119.018 32.239.018 48.359v1.826h.001v22.008h.001c-.003 11.619-.003 23.237-.002 34.856 0 .979.001 1.357.387 1.497.154.056.37.072.672.075.151.001.323-.001.521-.005 1.968-.033 3.939-.044 5.91-.052 5.912-.023 11.827-.015 17.706-.471 5.07-.395 10.125-1.05 15.168-1.793 3.026-.445 6.048-.922 9.067-1.392 1.169-.182 2.338-.37 3.507-.561 8.178-1.335 16.336-2.798 24.642-3.167a77.527 77.527 0 0 1 4.745-.073c3.942.063 7.852.459 11.712 1.35.771.179 1.542.376 2.31.596a35.132 35.132 0 0 1 6.169 2.421c.651.329 1.292.678 1.923 1.043 2.521 1.464 4.88 3.213 7.108 5.178a67.332 67.332 0 0 1 3.547 3.372c2.282 2.324 4.416 4.786 6.503 7.29 1.043 1.253 2.074 2.516 3.106 3.777a.86.86 0 0 1 .069.099c.067.11.141.267.303.554l-.849-.002z"/><path d="M689.221 168.39zM592.997 153.369c.043 4.029.125 8.076.54 12.078-.415-4.002-.496-8.049-.54-12.078zM614.63 181.707zM745.125 211.839c5.508-6.042 10.128-12.966 13.82-20.798-3.692 7.833-8.312 14.756-13.82 20.798zM763.863 177.935zM766.94 154.951zM766.841 159.663zM766.207 166.622zM765.462 171.19zM742.821 160.865z"/></svg>