<svg xmlns="http://www.w3.org/2000/svg" width="1287.717" height="386.113" viewBox="0 0 1287.717 386.113"><path d="M39.913,317.88v-21.755h5.859l5.134,14.242l5.164-14.242h5.917v21.755h-4.612v-12.763l-4.699,12.763h-3.568l-4.409-12.734 v12.734H39.913z"/><path d="M66.882,317.88l8.702-21.755h3.452l8.702,21.755h-4.931l-1.74-3.945h-7.513l-1.682,3.945H66.882z M75.236,309.614h4.148 l-2.06-5.164L75.236,309.614z"/><path d="M105.688,296.763c1.363,0.58,2.378,1.16,3.104,1.77l-2.872,3.684c-1.16-0.928-3.162-1.682-4.67-1.682 c-1.77,0-3.278,0.638-4.525,1.914c-1.276,1.276-1.915,2.813-1.915,4.583c0,1.799,0.638,3.336,1.915,4.583 c1.248,1.247,2.843,1.886,4.728,1.886c1.77,0,3.075-0.406,3.916-1.189v-2.03h-4.989v-4.38h9.775v8.15 c-1.827,2.35-4.844,4.062-8.905,4.062c-3.075,0-5.686-1.073-7.832-3.249c-2.175-2.176-3.249-4.786-3.249-7.832 c0-3.075,1.074-5.714,3.249-7.89c2.146-2.176,4.757-3.249,7.832-3.249C102.845,295.893,104.325,296.183,105.688,296.763z"/><path d="M114.326,317.88l8.702-21.755h3.452l8.702,21.755h-4.931l-1.74-3.945h-7.513l-1.682,3.945H114.326z M122.68,309.614h4.148 l-2.06-5.164L122.68,309.614z"/><path d="M153.827,296.125v3.974l-8.238,13.169h8.296v4.612h-13.923v-3.8l8.615-13.314h-8.702v-4.641H153.827z"/><path d="M159.421,296.125h4.67v21.755h-4.67V296.125z"/><path d="M169.774,317.88v-21.727l4.438-0.028l8.354,12.85v-12.821h4.641v21.727h-4.38l-8.383-12.821v12.821H169.774z"/><path d="M205.272,296.125v4.641h-7.6v3.887h7.6v4.612h-7.6v4.003h7.6v4.612h-12.27v-21.755H205.272z"/><path d="M63.988,330.125l-5.859,21.755h-3.713l-2.843-11.022l-2.814,11.022h-3.684l-5.831-21.755h4.844l2.813,11.196l2.901-11.196 h3.684l2.813,11.196l2.843-11.196H63.988z"/><path d="M69.057,330.125h4.67v21.755h-4.67V330.125z"/><path d="M79.12,330.125h14.04v4.641h-4.728v17.114h-4.67v-17.114H79.12V330.125z"/><path d="M98.608,330.125h4.67v8.557h6.556v-8.557h4.67v21.755h-4.67v-8.586h-6.556v8.586h-4.67V330.125z"/><path d="M39.013,385.88l8.702-21.755h3.452l8.702,21.755h-4.931l-1.74-3.945h-7.513l-1.682,3.945H39.013z M47.367,377.614h4.148 l-2.06-5.164L47.367,377.614z"/><path d="M64.649,364.125h6.817c1.885,0,3.423,0.638,4.641,1.914s1.828,2.843,1.828,4.729c0,1.885-0.609,3.51-1.828,4.814 c-1.218,1.306-2.756,1.973-4.641,1.973h-2.146v8.325h-4.67V364.125z M69.319,368.766v4.177h2.146c1.247,0,1.798-1.131,1.798-2.175 c0-0.958-0.551-2.002-1.798-2.002H69.319z"/><path d="M83.208,364.125h6.817c1.885,0,3.423,0.638,4.641,1.914s1.828,2.843,1.828,4.729c0,1.885-0.609,3.51-1.828,4.814 c-1.218,1.306-2.756,1.973-4.641,1.973h-2.146v8.325h-4.67V364.125z M87.879,368.766v4.177h2.146c1.247,0,1.798-1.131,1.798-2.175 c0-0.958-0.551-2.002-1.798-2.002H87.879z"/><path d="M114.039,364.125v4.641h-7.6v3.887h7.6v4.612h-7.6v4.003h7.6v4.612h-12.27v-21.755H114.039z"/><path d="M118.849,385.88l8.702-21.755h3.452l8.702,21.755h-4.931l-1.74-3.945h-7.513l-1.682,3.945H118.849z M127.203,377.614h4.148 l-2.06-5.164L127.203,377.614z"/><path d="M144.601,364.125h7.078c1.943,0,3.539,0.667,4.757,2.001c1.189,1.335,1.798,2.959,1.798,4.873 c0,2.553-1.073,4.468-3.22,5.744l4.989,9.137h-5.221l-4.409-8.209h-1.102v8.209h-4.67V364.125z M149.271,368.766v4.583h2.35 c1.247,0,1.972-1.073,1.972-2.35c0-1.189-0.754-2.233-2.001-2.233H149.271z"/><path d="M163.219,385.88l8.702-21.755h3.452l8.702,21.755h-4.931l-1.74-3.945h-7.513l-1.682,3.945H163.219z M171.573,377.614h4.148 l-2.06-5.164L171.573,377.614z"/><path d="M188.97,385.88v-21.727l4.438-0.028l8.354,12.85v-12.821h4.641v21.727h-4.38l-8.383-12.821v12.821H188.97z"/><path d="M227.225,370.013c-1.276-1.015-2.64-1.508-4.119-1.479c-1.856,0.028-3.394,0.667-4.612,1.914s-1.828,2.756-1.828,4.554 c0,1.712,0.638,3.191,1.885,4.438c1.248,1.247,2.727,1.943,4.38,2.03c1.595,0.029,3.017-0.464,4.293-1.479l2.872,3.685 c-0.493,0.493-1.102,1.073-3.365,1.856c-1.131,0.377-2.35,0.58-3.626,0.58c-3.162,0-5.801-1.073-7.919-3.249 c-2.117-2.146-3.19-4.757-3.19-7.861c0-3.074,1.073-5.685,3.249-7.86c2.176-2.176,4.786-3.249,7.861-3.249 c2.698,0,5.019,0.813,6.991,2.437L227.225,370.013z"/><path d="M247.553,364.125v4.641h-7.6v3.887h7.6v4.612h-7.6v4.003h7.6v4.612h-12.27v-21.755H247.553z"/><g><path d="M192.601,10.8c16.92,7.2,29.52,14.4,38.52,21.96l-35.64,45.72c-14.4-11.52-39.24-20.88-57.96-20.88 c-21.96,0-40.68,7.92-56.16,23.76C65.52,97.2,57.6,116.28,57.6,138.24c0,22.32,7.92,41.4,23.76,56.88 c15.48,15.479,35.28,23.399,58.68,23.399c21.96,0,38.16-5.04,48.6-14.76v-25.2h-61.92V124.2h121.32v101.16 c-22.68,29.16-60.12,50.4-110.52,50.4c-38.16,0-70.561-13.32-97.2-40.32c-27-27-40.32-59.399-40.32-97.2 c0-38.16,13.32-70.92,40.32-97.92C66.96,13.32,99.36,0,137.521,0C157.32,0,175.68,3.6,192.601,10.8z"/><path d="M318.598,2.88h57.96v212.76h86.4v57.24h-144.36V2.88z"/><path d="M516.235,138.24c0-38.16,13.32-70.92,40.32-97.92c26.64-27,59.04-40.32,97.201-40.32c38.159,0,70.56,13.32,97.56,40.32 s40.32,59.76,40.32,97.92c0,38.16-13.32,70.56-40.32,97.56s-59.4,40.32-97.56,40.32c-38.161,0-70.561-13.32-97.201-40.32 C529.555,208.8,516.235,176.4,516.235,138.24z M573.835,138.24c0,21.959,7.92,41.04,23.4,56.52 c15.48,15.84,34.56,23.76,56.521,23.76c21.959,0,41.039-7.92,56.52-23.76c15.479-15.48,23.399-34.561,23.399-56.52 c0-21.96-7.92-41.04-23.399-56.88c-15.48-15.84-34.561-23.76-56.52-23.76c-21.961,0-40.681,7.92-56.161,23.76 C581.755,97.2,573.835,116.28,573.835,138.24z"/><path d="M854.637,2.88h87.84c24.12,0,43.92,8.28,59.04,24.84c14.76,16.56,22.32,36.72,22.32,60.48c0,31.68-13.32,55.44-39.96,71.28 l61.92,113.4h-64.8L926.277,171h-13.68v101.88h-57.96V2.88z M912.597,60.48v56.88h29.16c15.479,0,24.479-13.32,24.479-29.16 c0-14.76-9.359-27.72-24.84-27.72H912.597z"/><path d="M1143.716,2.88l40.32,101.52l40.32-101.16h63.36l-74.881,172.08v97.561h-57.6V175.32L1079.636,2.88H1143.716z"/></g></svg>