<svg xmlns="http://www.w3.org/2000/svg" width="559.731" height="178.868" viewBox="0 0 559.731 178.868"><g fill="#1B1C20"><path d="M69.96,148.038H0v-3.486h10.101V5.249H0V1.8h69.294v32.183h-3.563c-1.253-9.77-3.602-17.011-7.047-21.685 c-3.484-4.712-8.417-7.05-14.759-7.05H29.597v62.985h9.866c4.424,0,8.065-1.417,10.962-4.252c2.858-2.874,4.267-6.398,4.267-10.689 v-5.708h3.563v46.933h-3.328v-1.38c0-6.436-1.331-11.57-4.071-15.401c-2.702-3.87-6.264-5.786-10.727-5.786H29.597v72.602h11.706 c7.321,0,12.88-2.797,16.599-8.429c3.758-5.593,6.616-14.367,8.613-26.243h3.445V148.038L69.96,148.038z"/><path d="M175.587,5.249h-10.336v139.303h10.101v3.486h-39.698v-3.486h10.101V8.965h-0.47l-24.665,139.073h-4.463 L90.79,5.938h-0.431v127.158c0,4.291,0.705,7.241,2.153,8.927c1.487,1.686,4.111,2.528,7.947,2.528v3.486H76.03v-3.486 c3.719,0,6.342-0.843,7.83-2.528s2.231-4.636,2.231-8.927V5.249H76.03V1.8h33.825l16.168,92.908h0.47L142.663,1.8h32.925V5.249 L175.587,5.249z"/><path d="M219.828,0c11.784,0,20.514,5.938,26.23,17.854c5.677,11.877,8.535,30.305,8.535,55.208 c0,25.516-2.936,44.634-8.848,57.392c-5.873,12.758-14.681,19.156-26.348,19.156c-11.549,0-20.318-6.513-26.269-19.578 c-5.99-13.063-8.965-32.066-8.965-56.97c0-23.256,2.701-41.262,8.025-53.982C197.552,6.36,206.557,0,219.163,0H219.828L219.828,0z M233.256,123.672V25.018c0-6.513-1.331-11.723-3.993-15.669c-2.701-3.908-6.068-5.862-10.101-5.862 c-3.993,0-7.243,2.107-9.827,6.322c-2.544,4.214-3.836,9.923-3.836,17.125v96.738c0,6.743,1.331,12.184,3.954,16.359 c2.662,4.138,6.107,6.207,10.375,6.207c3.915,0,7.125-2.069,9.631-6.207C232.003,135.855,233.256,130.415,233.256,123.672 L233.256,123.672z"/><path d="M340.019,40.496h-3.563c-1.135-12.413-3.68-21.378-7.556-26.934c-3.915-5.517-9.748-8.314-17.539-8.314 v139.303h10.062v3.486h-39.658v-3.486h10.101V5.249c-7.908,0-13.781,2.797-17.695,8.314c-3.876,5.555-6.382,14.521-7.438,26.934 h-3.563V1.8h76.85V40.496L340.019,40.496z"/><path d="M385.435 5.249L375.334 5.249 375.334 144.552 385.199 144.552 385.199 148.038 345.737 148.038 345.737 144.552 355.837 144.552 355.837 5.249 345.737 5.249 345.737 1.8 385.435 1.8 385.435 5.249z"/><path d="M429.91,0c11.784,0,20.515,5.938,26.23,17.854c5.677,11.877,8.534,30.305,8.534,55.208 c0,25.516-2.937,44.634-8.848,57.392c-5.872,12.758-14.681,19.156-26.348,19.156c-11.549,0-20.318-6.513-26.27-19.578 c-5.989-13.063-8.965-32.066-8.965-56.97c0-23.256,2.701-41.262,8.025-53.982C407.634,6.36,416.639,0,429.245,0H429.91L429.91,0z M443.338,123.672V25.018c0-6.513-1.33-11.723-3.993-15.669c-2.701-3.908-6.067-5.862-10.1-5.862c-3.993,0-7.243,2.107-9.827,6.322 c-2.545,4.214-3.837,9.923-3.837,17.125v96.738c0,6.743,1.331,12.184,3.955,16.359c2.661,4.138,6.106,6.207,10.374,6.207 c3.915,0,7.125-2.069,9.631-6.207C442.086,135.855,443.338,130.415,443.338,123.672L443.338,123.672z"/><path d="M559.731,5.249h-2.388c-5.129,0-7.713,1.992-7.713,5.977v136.813H534.05L487.814,20.65h-0.47v110.876 c0,8.696,3.015,13.025,8.965,13.025h5.168v3.486h-28.462v-3.486c3.837,0,6.46-0.689,7.908-2.068 c1.488-1.379,2.192-3.984,2.192-7.815V5.249h-10.101V1.8h28.932l42.986,119.305h0.47V15.133c0-6.589-3.289-9.885-9.866-9.885 h-4.228V1.8h28.422V5.249L559.731,5.249z"/></g><g fill="#E62F2A"><path d="M314.056,161.903l0.112,6.553l-1.1-0.045c-0.606-1.997-1.265-3.396-1.975-4.196 c-0.711-0.801-1.616-1.2-2.716-1.2c-0.231,0-0.378,0.045-0.438,0.134c-0.06,0.09-0.09,0.359-0.09,0.809v11.602 c0,0.554,0.116,0.957,0.349,1.212c0.231,0.254,0.612,0.393,1.144,0.415l1.077,0.056v1.189h-9.256v-1.189l1.065-0.056 c0.531-0.022,0.911-0.159,1.139-0.41c0.229-0.25,0.343-0.656,0.343-1.217v-11.579c0-0.479-0.028-0.76-0.084-0.842 c-0.057-0.082-0.204-0.123-0.443-0.123c-1.1,0-2.003,0.399-2.71,1.2s-1.367,2.199-1.98,4.196l-1.1,0.045l0.135-6.553H314.056z"/><path d="M324.165,161.881v1.201l-0.662,0.044c-0.568,0.038-0.959,0.186-1.173,0.443 c-0.213,0.259-0.319,0.885-0.319,1.88v3.579h6.183v-3.579c0-0.995-0.107-1.621-0.32-1.88c-0.213-0.258-0.604-0.405-1.172-0.443 l-0.696-0.044v-1.201h8.505v1.201l-0.685,0.044c-0.576,0.038-0.969,0.186-1.178,0.443c-0.21,0.259-0.314,0.885-0.314,1.88v9.425 c0,0.987,0.106,1.612,0.32,1.874c0.213,0.262,0.6,0.407,1.161,0.438l0.695,0.056v1.189h-8.505v-1.189l0.696-0.056 c0.575-0.038,0.968-0.186,1.178-0.443c0.209-0.258,0.314-0.881,0.314-1.868v-4.511h-6.183v4.511c0,0.987,0.104,1.61,0.314,1.868 c0.209,0.258,0.602,0.405,1.178,0.443l0.662,0.056v1.189h-8.472v-1.189l0.696-0.056c0.561-0.038,0.944-0.182,1.149-0.433 c0.206-0.25,0.309-0.877,0.309-1.879v-9.425c0-1.01-0.103-1.64-0.309-1.891c-0.205-0.251-0.593-0.395-1.161-0.433l-0.685-0.044 v-1.201H324.165z"/><path d="M339.84,172.663l-0.774,1.908c-0.09,0.217-0.159,0.432-0.208,0.645c-0.049,0.214-0.072,0.421-0.072,0.623 c0,0.464,0.136,0.808,0.409,1.032c0.272,0.225,0.689,0.337,1.251,0.337h0.617v1.223h-6.295v-1.212 c0.606-0.029,1.12-0.243,1.543-0.64s0.851-1.08,1.285-2.053l5.599-12.646h3.175l5.173,13.308c0.276,0.703,0.593,1.206,0.948,1.509 s0.828,0.473,1.419,0.511v1.223h-8.617v-1.212c0.936-0.029,1.563-0.114,1.886-0.252c0.321-0.139,0.482-0.38,0.482-0.724 c0-0.098-0.03-0.245-0.09-0.443c-0.061-0.198-0.169-0.507-0.325-0.926l-0.831-2.211H339.84z M340.445,171.328h5.441l-2.569-6.642 L340.445,171.328z"/><path d="M369.517,161.903l0.112,6.553l-1.1-0.045c-0.606-1.997-1.265-3.396-1.975-4.196 c-0.711-0.801-1.616-1.2-2.716-1.2c-0.231,0-0.378,0.045-0.438,0.134c-0.06,0.09-0.09,0.359-0.09,0.809v11.602 c0,0.554,0.116,0.957,0.349,1.212c0.231,0.254,0.612,0.393,1.144,0.415l1.077,0.056v1.189h-9.256v-1.189l1.065-0.056 c0.531-0.022,0.911-0.159,1.139-0.41c0.229-0.25,0.343-0.656,0.343-1.217v-11.579c0-0.479-0.028-0.76-0.084-0.842 c-0.057-0.082-0.204-0.123-0.443-0.123c-1.1,0-2.003,0.399-2.71,1.2s-1.367,2.199-1.98,4.196l-1.1,0.045l0.135-6.553H369.517z"/><path d="M386.055,161.881v1.201l-0.661,0.044c-0.569,0.038-0.96,0.186-1.173,0.443 c-0.213,0.259-0.32,0.885-0.32,1.88v9.425c0,0.987,0.105,1.61,0.314,1.868c0.21,0.258,0.603,0.405,1.179,0.443l0.661,0.056v1.189 h-8.471v-1.189l0.695-0.056c0.562-0.038,0.944-0.182,1.15-0.433c0.206-0.25,0.309-0.877,0.309-1.879v-9.425 c0-1.01-0.103-1.64-0.309-1.891s-0.593-0.395-1.161-0.433l-0.685-0.044v-1.201H386.055z"/><path d="M402.257,166.021c0-1.167-0.165-1.943-0.494-2.328c-0.329-0.386-0.961-0.593-1.896-0.623v-1.189h6.092 v1.201c-0.875,0.029-1.47,0.239-1.784,0.628c-0.313,0.389-0.471,1.159-0.471,2.312v12.409h-1.907l-10.412-12.129v7.988 c0,1.167,0.166,1.943,0.499,2.328c0.333,0.386,0.971,0.594,1.913,0.623v1.189h-6.228v-1.189c0.928-0.029,1.554-0.237,1.88-0.623 c0.325-0.385,0.487-1.161,0.487-2.328v-9.716c-0.358-0.464-0.732-0.815-1.122-1.055c-0.389-0.239-0.826-0.39-1.313-0.449v-1.189 h5.353l9.402,11.086V166.021z"/><path d="M409.685,178.868h-1.224l-0.201-6.777h1.189c0.665,1.818,1.515,3.187,2.547,4.107 c1.032,0.92,2.236,1.38,3.612,1.38c0.83,0,1.502-0.229,2.015-0.685c0.512-0.456,0.769-1.055,0.769-1.795 c0-0.613-0.202-1.134-0.606-1.56c-0.403-0.427-1.092-0.834-2.064-1.224c-0.299-0.119-0.748-0.295-1.347-0.527 c-1.533-0.598-2.621-1.088-3.265-1.47c-0.868-0.509-1.508-1.081-1.919-1.717s-0.617-1.364-0.617-2.188 c0-1.429,0.513-2.604,1.537-3.529c1.025-0.923,2.338-1.385,3.938-1.385c0.891,0,1.827,0.164,2.811,0.493s1.532,0.494,1.644,0.494 c0.188,0,0.352-0.075,0.494-0.225c0.142-0.149,0.284-0.396,0.427-0.74h1.077l0.066,5.396h-1.076 c-0.517-1.376-1.207-2.407-2.07-3.091c-0.864-0.685-1.913-1.027-3.147-1.027c-0.86,0-1.547,0.196-2.059,0.589 c-0.513,0.394-0.769,0.911-0.769,1.555c0,0.965,1.301,1.934,3.904,2.906l0.09,0.033c1.384,0.509,2.369,0.907,2.956,1.195 c0.588,0.288,1.061,0.577,1.42,0.869c0.605,0.517,1.051,1.079,1.335,1.688c0.284,0.61,0.427,1.304,0.427,2.081 c0,1.586-0.526,2.841-1.577,3.765s-2.478,1.386-4.28,1.386c-0.583,0-1.173-0.069-1.768-0.207c-0.594-0.139-1.255-0.361-1.979-0.668 c-0.12-0.053-0.281-0.123-0.482-0.213c-0.449-0.21-0.748-0.314-0.898-0.314c-0.217,0-0.403,0.12-0.561,0.359 S409.759,178.412,409.685,178.868z"/><path d="M430.273,174.874c0,0.979,0.11,1.601,0.331,1.862s0.638,0.411,1.251,0.449l0.718,0.056v1.189h-8.617v-1.189 l0.696-0.056c0.561-0.038,0.944-0.182,1.149-0.433c0.206-0.25,0.309-0.877,0.309-1.879v-9.425c0-1.01-0.103-1.64-0.309-1.891 c-0.205-0.251-0.593-0.395-1.161-0.433l-0.685-0.044v-1.201h7.35c2.85,0,4.926,0.365,6.228,1.094 c1.301,0.729,1.952,1.884,1.952,3.462c0,1.48-0.636,2.622-1.907,3.422c-1.272,0.801-3.101,1.2-5.487,1.2 c-0.284,0-0.576-0.005-0.875-0.017c-0.299-0.011-0.613-0.027-0.942-0.05V174.874z M430.273,165.034v4.724 c0.097,0.015,0.198,0.024,0.303,0.027c0.104,0.004,0.258,0.006,0.46,0.006c1.466,0,2.506-0.262,3.119-0.785s0.92-1.402,0.92-2.637 c0-1.114-0.258-1.945-0.773-2.491c-0.517-0.546-1.291-0.818-2.323-0.818c-0.695,0-1.153,0.104-1.374,0.313 C430.384,163.583,430.273,164.137,430.273,165.034z"/><path d="M449.336,161.881v1.201l-0.661,0.044c-0.569,0.038-0.96,0.186-1.173,0.443 c-0.213,0.259-0.32,0.885-0.32,1.88v9.425c0,0.987,0.105,1.61,0.314,1.868c0.21,0.258,0.603,0.405,1.179,0.443l0.661,0.056v1.189 h-8.471v-1.189l0.695-0.056c0.562-0.038,0.944-0.182,1.15-0.433c0.206-0.25,0.309-0.877,0.309-1.879v-9.425 c0-1.01-0.103-1.64-0.309-1.891s-0.593-0.395-1.161-0.433l-0.685-0.044v-1.201H449.336z"/><path d="M457.381,174.874c0,0.987,0.105,1.61,0.314,1.868c0.21,0.258,0.603,0.405,1.179,0.443l0.661,0.056v1.189 h-8.471v-1.189l0.695-0.056c0.562-0.038,0.944-0.182,1.15-0.433c0.206-0.25,0.309-0.877,0.309-1.879v-9.425 c0-1.01-0.103-1.64-0.309-1.891s-0.593-0.395-1.161-0.433l-0.685-0.044v-1.201h7.349c3.075,0,5.234,0.305,6.48,0.915 c1.245,0.609,1.868,1.632,1.868,3.068c0,1.145-0.486,2.032-1.459,2.665c-0.973,0.632-2.473,1.037-4.499,1.217 c1.219,0.225,2.178,0.584,2.878,1.077c0.699,0.494,1.21,1.175,1.531,2.042c0.142,0.367,0.251,0.827,0.325,1.38 c0.075,0.554,0.127,0.891,0.157,1.011c0.112,0.389,0.229,0.646,0.348,0.773c0.12,0.128,0.281,0.191,0.482,0.191 c0.389,0,0.672-0.234,0.848-0.701c0.176-0.468,0.271-1.259,0.286-2.373h1.088c0.015,0.097,0.024,0.201,0.028,0.313 s0.006,0.284,0.006,0.517c0,1.563-0.327,2.762-0.982,3.596c-0.654,0.834-1.599,1.251-2.833,1.251c-0.523,0-1.012-0.101-1.464-0.303 c-0.453-0.202-0.825-0.486-1.116-0.853c-0.539-0.674-0.917-2.203-1.134-4.589c-0.015-0.195-0.026-0.341-0.033-0.438 c-0.098-0.987-0.4-1.658-0.909-2.014s-1.433-0.533-2.771-0.533h-0.157V174.874z M457.381,165.517v3.534 c0.135,0.008,0.279,0.013,0.433,0.017s0.376,0.006,0.667,0.006c1.451,0,2.481-0.235,3.092-0.707 c0.609-0.472,0.914-1.261,0.914-2.367c0-0.928-0.268-1.649-0.802-2.166c-0.535-0.516-1.281-0.773-2.238-0.773 c-0.793,0-1.336,0.133-1.627,0.397C457.527,163.723,457.381,164.409,457.381,165.517z"/><path d="M484.904,161.881l0.09,5.565h-1.212c-0.232-1.496-0.778-2.602-1.639-3.315 c-0.86-0.715-2.075-1.071-3.646-1.071c-0.883,0-1.476,0.129-1.778,0.387s-0.454,0.926-0.454,2.003v3.657h1.032 c0.897,0,1.574-0.246,2.031-0.74c0.456-0.494,0.714-1.253,0.773-2.277h1.189v7.405l-1.189-0.012 c-0.074-1.1-0.338-1.909-0.791-2.429c-0.452-0.521-1.124-0.78-2.014-0.78h-1.032v4.601c0,1.13,0.125,1.821,0.376,2.075 c0.25,0.255,0.769,0.382,1.554,0.382c1.676,0,2.953-0.364,3.832-1.094s1.546-1.98,2.003-3.753h1.2l-0.19,5.946h-15.092v-1.189 l0.696-0.056c0.561-0.038,0.944-0.182,1.149-0.433c0.206-0.25,0.309-0.877,0.309-1.879v-9.425c0-1.01-0.103-1.64-0.309-1.891 c-0.205-0.251-0.593-0.395-1.161-0.433l-0.685-0.044v-1.201H484.904z"/><path d="M503.944,171.676v3.883c0,0.554,0.129,0.953,0.388,1.2c0.258,0.247,0.693,0.389,1.307,0.427l0.797,0.056 v1.189h-9.134v-1.189l0.797-0.056c0.613-0.038,1.049-0.18,1.308-0.427c0.258-0.247,0.387-0.646,0.387-1.2v-3.883l-4.185-6.9 c-0.353-0.575-0.745-1.002-1.179-1.278c-0.434-0.277-0.931-0.415-1.492-0.415h-0.225v-1.201h9.56l-0.112,1.201H501.6 c-0.599,0-1.038,0.072-1.318,0.219c-0.28,0.146-0.421,0.379-0.421,0.701c0,0.149,0.047,0.335,0.141,0.555 c0.093,0.221,0.252,0.519,0.477,0.893l2.85,4.734l2.693-4.005c0.209-0.322,0.379-0.649,0.51-0.982 c0.131-0.332,0.196-0.6,0.196-0.802c0-0.419-0.198-0.742-0.594-0.971c-0.397-0.229-0.966-0.342-1.706-0.342v-1.201h6.598v1.201 c-0.546,0.06-1.02,0.235-1.419,0.527c-0.4,0.291-0.862,0.834-1.386,1.626L503.944,171.676z"/><path d="M520.449,161.522c1.286,0,2.476,0.194,3.568,0.583c1.092,0.389,2.049,0.957,2.872,1.705 c0.89,0.809,1.568,1.756,2.036,2.845c0.468,1.088,0.701,2.265,0.701,3.528c0,1.257-0.233,2.43-0.701,3.518 c-0.468,1.089-1.146,2.037-2.036,2.845c-0.838,0.756-1.801,1.331-2.89,1.728c-1.088,0.396-2.253,0.595-3.494,0.595 c-1.279,0-2.471-0.198-3.574-0.595s-2.066-0.972-2.889-1.728c-0.883-0.801-1.549-1.733-1.997-2.8 c-0.449-1.065-0.674-2.253-0.674-3.563c0-1.309,0.225-2.496,0.674-3.563c0.448-1.065,1.114-2.002,1.997-2.811 c0.822-0.74,1.783-1.307,2.883-1.699S519.2,161.522,520.449,161.522z M520.506,177.69c1.488,0,2.617-0.636,3.388-1.907 c0.771-1.272,1.156-3.139,1.156-5.6s-0.386-4.325-1.156-5.593s-1.899-1.902-3.388-1.902c-1.504,0-2.639,0.631-3.406,1.891 c-0.767,1.261-1.149,3.129-1.149,5.604c0,2.469,0.383,4.337,1.149,5.604C517.867,177.057,519.002,177.69,520.506,177.69z"/><path d="M540.118,161.881v1.201l-0.662,0.044c-0.538,0.038-0.922,0.18-1.15,0.427 c-0.228,0.247-0.342,0.647-0.342,1.2v7.45c0,0.876,0.033,1.61,0.101,2.205s0.153,0.975,0.259,1.139 c0.44,0.688,0.91,1.165,1.408,1.431c0.497,0.266,1.164,0.398,2.002,0.398c1.444,0,2.481-0.398,3.114-1.195 c0.632-0.796,0.948-2.122,0.948-3.978v-6.204c0-1.092-0.186-1.85-0.556-2.272c-0.37-0.422-1.026-0.648-1.97-0.679v-1.189h6.553 l-0.011,1.201c-0.942,0.022-1.599,0.245-1.97,0.667c-0.37,0.423-0.555,1.181-0.555,2.272v5.789c0,1.616-0.094,2.771-0.281,3.468 c-0.187,0.695-0.505,1.294-0.953,1.795c-0.539,0.605-1.229,1.061-2.07,1.363s-1.846,0.454-3.013,0.454 c-1.406,0-2.577-0.141-3.512-0.421c-0.936-0.28-1.687-0.716-2.255-1.307c-0.509-0.517-0.87-1.148-1.083-1.896 s-0.32-1.907-0.32-3.479v-7.013c0-0.561-0.11-0.963-0.331-1.206c-0.221-0.242-0.6-0.383-1.139-0.421l-0.685-0.044v-1.201H540.118z"/></g></svg>